<?xml version="1.0" standalone="no"?>
<!DOCTYPE svg PUBLIC "-//W3C//DTD SVG 20010904//EN"
 "http://www.w3.org/TR/2001/REC-SVG-20010904/DTD/svg10.dtd">
<svg version="1.0" xmlns="http://www.w3.org/2000/svg"
 width="670.000000pt" height="670.000000pt" viewBox="0 0 670.000000 670.000000"
 preserveAspectRatio="xMidYMid meet">
<metadata>
Created by potrace 1.11, written by Peter Selinger 2001-2013
</metadata>
<g transform="translate(0.000000,670.000000) scale(0.100000,-0.100000)"
fill="#000000" stroke="none">
<path d="M2085 5540 c-22 -4 -58 -11 -79 -15 -63 -11 -206 -64 -276 -102 -267
-145 -476 -408 -543 -683 -9 -36 -20 -78 -24 -95 -12 -46 -14 -2499 -2 -2570
49 -299 226 -575 472 -739 123 -82 295 -152 422 -173 61 -10 2499 -11 2570 -1
109 15 259 66 360 123 266 148 457 398 536 700 l24 90 0 1270 c0 1070 -2 1279
-14 1330 -8 33 -15 62 -16 65 -17 82 -98 254 -163 345 -49 69 -135 162 -200
218 -87 74 -237 155 -362 196 -154 51 -156 51 -1455 50 -665 -1 -1228 -5
-1250 -9z m1555 -874 c14 -3 41 -9 60 -12 158 -27 395 -133 488 -219 15 -14
30 -25 35 -25 4 0 -5 -24 -21 -52 -16 -29 -51 -93 -77 -143 -107 -200 -142
-213 -322 -119 -143 74 -238 105 -338 109 -190 8 -313 -55 -350 -178 -42 -140
7 -234 160 -307 33 -15 155 -60 270 -98 223 -74 353 -129 432 -183 191 -131
285 -314 284 -554 -1 -416 -242 -726 -646 -831 -80 -21 -129 -27 -245 -29
-152 -4 -247 8 -405 48 -81 21 -234 85 -316 133 -76 44 -182 122 -197 145 -8
13 5 42 64 135 109 172 120 187 156 208 54 33 118 24 202 -26 39 -23 80 -48
91 -55 136 -82 253 -116 390 -115 128 1 217 32 273 97 50 56 64 100 65 195 0
75 -3 90 -26 126 -14 23 -45 57 -69 76 -41 33 -126 78 -148 78 -6 0 -18 4 -28
10 -9 5 -51 19 -92 31 -346 99 -479 160 -594 268 -235 224 -265 656 -66 946
33 47 157 175 171 175 4 0 14 6 21 13 37 36 214 119 288 134 14 3 52 11 85 18
61 13 355 13 405 1z"/>
</g>
</svg>
