<svg width="60" height="60" viewBox="0 0 60 60" fill="none" xmlns="http://www.w3.org/2000/svg">
<circle cx="30" cy="30" r="30" fill="#01E3C2" fill-opacity="0.05"/>
<path d="M39.8588 15.5019H36.0195V14H24.9805V15.5019H21.1412C19.4092 15.5019 18 16.911 18 18.6431V42.7683C18 44.5003 19.4091 45.9095 21.1412 45.9095H39.8588C41.5908 45.9095 43 44.5004 43 42.7683V18.643C43 16.911 41.5908 15.5019 39.8588 15.5019ZM26.2792 15.2987H34.7208V17.0037H26.2792V15.2987ZM41.7013 42.7682C41.7013 43.7842 40.8748 44.6107 39.8588 44.6107H21.1412C20.1253 44.6107 19.2987 43.7842 19.2987 42.7682V18.643C19.2987 17.6271 20.1252 16.8005 21.1412 16.8005H24.9805V18.3024H36.0195V16.8006H39.8588C40.8747 16.8006 41.7013 17.6271 41.7013 18.6431V42.7682Z" fill="#01E3C2"/>
<path d="M36.1448 28.663L35.4695 29.6889C35.3734 29.8349 35.2276 29.8519 35.1693 29.8524C35.1095 29.8525 34.965 29.8385 34.8663 29.6943L34.8475 29.6669C34.5057 29.1673 33.9415 28.8993 33.3383 28.9491C32.7351 28.9992 32.2229 29.357 31.9683 29.9061L31.6076 30.6837C31.5103 30.8938 31.3211 30.8998 31.2445 30.8926C31.1677 30.8854 30.983 30.8445 30.9261 30.6202L30.1411 27.5256C29.9507 26.775 29.3043 26.2724 28.5309 26.2724C28.5278 26.2724 28.5247 26.2724 28.5216 26.2724C27.7441 26.2764 27.0985 26.7868 26.9152 27.5424L26.2072 30.4603C26.1516 30.6894 25.9636 30.7297 25.8854 30.7365C25.8074 30.743 25.6151 30.7357 25.5211 30.5194L24.8231 28.9141C24.5592 28.307 23.9609 27.9148 23.299 27.9148H21.4272V29.2135H23.299C23.4437 29.2135 23.5744 29.2992 23.6321 29.432L24.3301 31.0372C24.6195 31.7029 25.2734 32.0925 25.997 32.0303C26.7202 31.9679 27.2981 31.4718 27.4692 30.7664L28.1772 27.8485C28.2376 27.5993 28.4428 27.5714 28.5283 27.5709C28.617 27.5713 28.8192 27.5963 28.8822 27.8449L29.6672 30.9394C29.8424 31.6302 30.4142 32.1194 31.1239 32.1856C31.1779 32.1907 31.2315 32.1931 31.2847 32.1931C31.9306 32.1931 32.5087 31.8275 32.7857 31.2301L33.1464 30.4524C33.2266 30.2794 33.3825 30.2486 33.4458 30.2432C33.5088 30.2384 33.6679 30.2427 33.7756 30.4001L33.7944 30.4275C34.1048 30.8813 34.6167 31.151 35.1658 31.1509C35.1708 31.1509 35.1758 31.1509 35.1808 31.1509C35.7356 31.146 36.249 30.8663 36.554 30.4029L37.2294 29.377C37.2968 29.2746 37.4102 29.2135 37.5327 29.2135H39.5728V27.9148H37.5327C36.9721 27.915 36.4531 28.1946 36.1448 28.663Z" fill="#01E3C2"/>
<path d="M28.7595 37.5305H21.4272V38.8292H28.7595V37.5305Z" fill="#01E3C2"/>
<path d="M36.0917 40.705H21.4272V42.0037H36.0917V40.705Z" fill="#01E3C2"/>
</svg>
