<svg width="60" height="60" viewBox="0 0 60 60" fill="none" xmlns="http://www.w3.org/2000/svg">
<circle cx="30" cy="30" r="30" fill="#01E3C2" fill-opacity="0.05"/>
<path d="M41.168 31.416C41.504 28.296 40.512 25.144 38.392 22.76C37.616 21.888 36.728 21.168 35.76 20.592C35.904 20.08 36 19.552 36 19C36 15.688 33.312 13 30 13C26.688 13 24 15.688 24 19C24 19.56 24.104 20.096 24.248 20.616C23.64 20.976 23.056 21.376 22.512 21.864C19.784 24.296 18.432 27.864 18.808 31.432C16.584 32.312 15 34.472 15 37C15 40.312 17.688 43 21 43C22.928 43 24.624 42.072 25.72 40.656C27.088 41.216 28.544 41.496 29.992 41.496C31.448 41.496 32.904 41.216 34.272 40.656C35.368 42.072 37.072 43 39 43C42.312 43 45 40.312 45 37C45 34.456 43.4 32.288 41.168 31.416ZM30 16C31.656 16 33 17.344 33 19C33 20.656 31.656 22 30 22C28.344 22 27 20.656 27 19C27 17.344 28.344 16 30 16ZM21 40C19.344 40 18 38.656 18 37C18 35.344 19.344 34 21 34C22.656 34 24 35.344 24 37C24 38.656 22.656 40 21 40ZM33 37C33 37.304 33.048 37.6 33.088 37.896C31.12 38.696 28.888 38.696 26.904 37.904C26.952 37.608 26.992 37.312 26.992 37C26.992 33.96 24.712 31.472 21.776 31.08C21.512 28.472 22.512 25.88 24.504 24.104C24.888 23.76 25.304 23.472 25.728 23.216C26.816 24.32 28.328 25.008 29.992 25.008C31.664 25.008 33.176 24.312 34.264 23.208C34.952 23.624 35.576 24.144 36.136 24.768C37.688 26.512 38.416 28.816 38.176 31.096C35.264 31.488 33 33.968 33 37ZM39 40C37.344 40 36 38.656 36 37C36 35.344 37.344 34 39 34C40.656 34 42 35.344 42 37C42 38.656 40.656 40 39 40Z" fill="#01E3C2"/>
</svg>
