<svg width="140" height="26" viewBox="0 0 140 26" fill="none" xmlns="http://www.w3.org/2000/svg">
<path fill-rule="evenodd" clip-rule="evenodd" d="M35.5332 9.23992C33.8665 9.23992 32.3876 10.4841 32.3876 12.7846C32.3876 15.0851 33.8665 16.3762 35.5802 16.3762C37.3642 16.3762 38.1858 15.132 38.4441 14.2635L40.8385 15.132C40.2985 16.9161 38.5849 18.8645 35.5802 18.8645C32.2233 18.8645 29.6646 16.2588 29.6646 12.7846C29.6646 9.26339 32.2233 6.72814 35.5097 6.72814C38.5849 6.72814 40.2751 8.65306 40.7446 10.4841L38.3032 11.3761C38.045 10.3667 37.2703 9.23992 35.5332 9.23992ZM47.0671 16.4231C48.7572 16.4231 50.2596 15.179 50.2596 12.7846C50.2596 10.4137 48.7572 9.19297 47.0671 9.19297C45.4004 9.19297 43.8745 10.4137 43.8745 12.7846C43.8745 15.1555 45.4004 16.4231 47.0671 16.4231ZM47.0671 6.72814C50.4944 6.72814 53.0061 9.28687 53.0061 12.7846C53.0061 16.3058 50.4944 18.8645 47.0671 18.8645C43.6632 18.8645 41.1515 16.3058 41.1515 12.7846C41.1515 9.28687 43.6632 6.72814 47.0671 6.72814ZM60.7371 7.08026H63.5541L66.2536 14.9912L68.5307 7.08026H71.3007L67.6386 18.5124H64.9156L62.0752 10.2963L59.3052 18.5124H56.5117L52.8027 7.08026H55.7135L58.0375 14.9912L60.7371 7.08026ZM78.9612 7.00983V9.77984C78.6561 9.73289 78.3509 9.70941 78.0692 9.70941C75.9565 9.70941 74.994 10.9301 74.994 13.0663V18.5124H72.271V7.08026H74.9236V8.91128C75.4635 7.66712 76.7311 6.93941 78.2335 6.93941C78.5622 6.93941 78.8439 6.98636 78.9612 7.00983ZM84.0396 23.1369H81.1287L83.8752 17.1509L78.9925 7.08026H82.0677L85.3541 14.3104L88.4293 7.08026H91.3167L84.0396 23.1369ZM98.6955 7.08026H101.513L104.212 14.9912L106.489 7.08026H109.259L105.597 18.5124H102.874L100.034 10.2963L97.2636 18.5124H94.4701L90.7611 7.08026H93.672L95.996 14.9912L98.6955 7.08026ZM112.929 18.5124H110.229V7.08026H112.929V18.5124ZM109.807 3.0661C109.807 2.08016 110.605 1.28203 111.567 1.28203C112.553 1.28203 113.352 2.08016 113.352 3.0661C113.352 4.05203 112.553 4.82669 111.567 4.82669C110.605 4.82669 109.807 4.05203 109.807 3.0661ZM114.345 15.4137L116.716 14.7565C116.81 15.7893 117.585 16.7048 119.04 16.7048C120.167 16.7048 120.754 16.0945 120.754 15.3903C120.754 14.7799 120.331 14.3104 119.416 14.1226L117.726 13.747C115.707 13.301 114.65 11.9864 114.65 10.4137C114.65 8.41831 116.481 6.72814 118.852 6.72814C122.045 6.72814 123.078 8.7939 123.266 9.92068L120.965 10.578C120.871 9.92068 120.378 8.86433 118.852 8.86433C117.89 8.86433 117.209 9.47467 117.209 10.1789C117.209 10.7892 117.655 11.2353 118.359 11.3761L120.097 11.7282C122.256 12.1977 123.383 13.5123 123.383 15.2025C123.383 16.9396 121.975 18.8645 119.064 18.8645C115.754 18.8645 114.486 16.7048 114.345 15.4137ZM126.818 11.5404H132.429C132.382 10.2024 131.49 9.00517 129.612 9.00517C127.898 9.00517 126.912 10.3198 126.818 11.5404ZM132.734 14.5217L135.034 15.2494C134.424 17.2448 132.616 18.8645 129.87 18.8645C126.771 18.8645 124.025 16.6109 124.025 12.7376C124.025 9.12255 126.701 6.72814 129.588 6.72814C133.109 6.72814 135.175 9.05212 135.175 12.6672C135.175 13.1132 135.128 13.4888 135.105 13.5358H126.748C126.818 15.2729 128.18 16.517 129.87 16.517C131.513 16.517 132.358 15.6485 132.734 14.5217Z" fill="#9D9E9E"/>
<path d="M12.6159 20.996C7.89651 20.996 4.07324 17.2193 4.07324 12.528C4.07324 10.9643 4.52128 9.43 5.32775 8.10227L5.44723 7.92524L7.00043 8.92841L6.91082 9.07594C4.96932 12.2035 5.95501 16.2752 9.12115 18.193C12.2873 20.1108 16.4093 19.1372 18.3508 16.0096C20.2923 12.8821 19.3066 8.81039 16.1404 6.89257C15.095 6.24346 13.8704 5.9189 12.6159 5.9189V4.11909C17.3352 4.11909 21.1585 7.89574 21.1585 12.5575C21.1585 17.2488 17.3352 21.0255 12.6159 20.996Z" fill="#9D9E9E"/>
<path d="M3.05725 9.312C1.98195 12.528 2.57934 16.0391 4.64032 18.7241C6.73117 21.4091 10.0765 22.8548 13.4816 22.6188C19.0971 22.1467 23.2788 17.2488 22.8008 11.7019C22.6814 10.3447 22.2931 9.01694 21.6359 7.80724C19.8737 4.53218 16.4387 2.49633 12.6752 2.46683V0.578506C16.5283 0.608012 20.1126 2.43732 22.3827 5.44684C26.3254 10.8168 25.1306 18.3405 19.6944 22.2352C18.4399 23.1499 17.0062 23.799 15.5127 24.1825C11.7492 25.0677 7.74672 24.1235 4.81953 21.6156C1.80274 18.9896 0.249533 15.095 0.637834 11.1413C0.697572 10.5512 0.846919 9.45952 0.846919 9.45952" fill="#9D9E9E"/>
<path d="M12.7656 9.54804L0.817871 9.45952L1.92303 7.86625C1.98277 7.77773 2.07238 7.74823 2.16199 7.74823H12.7656V9.54804ZM15.0954 5.91892H2.96846L3.50611 5.00426C3.65545 4.76822 3.83467 4.29614 4.07362 4.14862C4.22297 4.11911 4.37232 4.08961 4.52166 4.11911H5.38787H11.0332H12.6162L15.0954 5.91892ZM15.0954 2.46683H4.99957L6.01513 0.696527C6.045 0.637517 6.1346 0.578506 6.22421 0.578506H13.0045L15.0954 2.46683Z" fill="#9D9E9E"/>
<path d="M12.6158 17.3669C9.92753 17.3669 7.74707 15.213 7.74707 12.5576C7.74707 9.9021 9.92753 7.74823 12.6158 7.74823C15.304 7.74823 17.4845 9.9021 17.4845 12.5576C17.4845 15.213 15.304 17.3669 12.6158 17.3669ZM12.6158 9.54804C10.9431 9.54804 9.5691 10.9053 9.59897 12.5576C9.59897 14.2098 10.973 15.5671 12.6456 15.5376C14.3183 15.5376 15.6624 14.1803 15.6624 12.528C15.6326 10.9053 14.2884 9.54804 12.6158 9.54804Z" fill="#9D9E9E"/>
<g opacity="0.56">
<g opacity="0.41">
<path opacity="0.248" d="M8.82254 9.54777L0.817568 9.45926L0.578613 11.5541H7.83685C8.01607 10.8165 8.34463 10.1379 8.82254 9.54777Z" fill="#9D9E9E"/>
</g>
</g>
</svg>
