<svg width="116" height="24" viewBox="0 0 116 24" fill="none" xmlns="http://www.w3.org/2000/svg">
<path d="M4.47976 10.626C4.5707 10.5578 4.63891 10.5123 4.66164 10.4668C6.3441 6.28344 9.73175 3.87344 13.5741 1.98636C16.0523 0.781356 18.667 0.167486 21.4407 0.440317C23.5097 0.64494 24.4873 1.91815 23.7598 3.87344C23.2369 5.26033 22.4638 6.60174 21.5999 7.82948C20.7587 9.01175 19.6673 10.0121 18.6215 11.1717C18.7579 11.2853 18.9398 11.4672 19.1444 11.6491C21.2816 13.4452 23.1687 15.446 24.1918 18.1061C24.5101 18.9473 24.692 19.9022 24.7374 20.8117C24.8056 22.244 24.0326 23.1762 22.6457 23.6082C21.1224 24.0629 19.6446 23.8355 18.1895 23.3126C14.5063 21.9939 11.5279 19.6976 9.27703 16.5373C8.50401 15.446 7.61731 15.3096 6.41231 15.2414C7.25354 18.0379 7.98108 20.8117 7.8674 23.7219C7.11712 17.8787 4.52523 12.8768 0.910223 8.32967C0.637392 7.98863 0.364561 7.60212 0.273618 7.19287C0.20541 6.87457 0.296354 6.37438 0.523713 6.16976C0.682864 6.03335 1.274 6.12429 1.47862 6.30618C1.95607 6.71542 2.34258 7.23835 2.68362 7.76127C3.34296 8.69344 3.88862 9.67109 4.47976 10.626ZM9.48165 7.64759C12.0281 7.4657 14.1425 8.32967 16.1205 9.53467C16.5298 9.78477 16.8026 9.58014 17.0982 9.35278C18.6215 8.10231 19.9402 6.69269 20.986 5.01023C21.2816 4.53278 21.5089 4.00985 21.6681 3.48693C21.9637 2.53202 21.4862 1.82721 20.4858 1.73626C19.9174 1.69079 19.3036 1.66805 18.7352 1.78173C15.1429 2.55475 12.2782 4.60098 9.75448 7.21561C9.66354 7.28382 9.6408 7.3975 9.48165 7.64759ZM10.3456 15.2868C11.3233 16.7874 13.8924 18.9019 16.0523 19.834C17.03 20.2433 18.0758 20.5843 19.1217 20.7207C20.554 20.9253 21.2816 19.9932 20.9178 18.5836C20.2812 16.1281 18.6442 14.3547 16.8253 12.7404C16.7117 12.6268 16.3252 12.695 16.1433 12.7859C15.2338 13.2406 14.3471 13.7635 13.415 14.1728C12.4146 14.6048 11.3915 14.9231 10.3456 15.2868ZM14.2107 10.967C14.2335 10.8534 14.2562 10.7397 14.2789 10.626C13.1649 10.1713 12.0735 9.67109 10.9367 9.33005C10.3456 9.14816 9.61807 9.14816 9.0042 9.33005C8.59495 9.44373 8.09476 9.94392 8.02656 10.3304C7.95835 10.7169 8.29939 11.2853 8.61769 11.6036C8.86778 11.8765 9.34524 12.0129 9.73175 12.0356C11.3233 12.1038 12.8011 11.6036 14.2107 10.967Z" fill="#9E9E9E"/>
<path d="M80.1447 13.9227C79.8264 14.9458 79.5081 15.9462 79.1898 16.9693C78.9852 17.6059 78.7351 18.1516 77.9394 18.1743C77.0981 18.197 76.8253 17.6514 76.5979 16.992C76.0295 15.3551 75.4384 13.7181 74.8927 12.0811C74.5744 11.1035 75.1656 10.285 76.0295 10.5578C76.3706 10.6715 76.7343 11.0807 76.8708 11.4445C77.28 12.5358 77.5756 13.6726 77.9621 14.9686C78.3486 13.6953 78.7124 12.6268 79.0307 11.5354C79.2126 10.9216 79.5309 10.5123 80.2584 10.5123C80.986 10.5123 81.3043 10.8988 81.4862 11.5354C81.8045 12.6268 82.1682 13.6953 82.5775 14.9913C82.964 13.7181 83.2595 12.6268 83.6688 11.5582C83.8052 11.1944 84.1008 10.7852 84.4418 10.6033C84.6692 10.4896 85.2603 10.6033 85.4195 10.8306C85.6468 11.1489 85.7605 11.6719 85.6468 12.0129C85.2603 13.3088 84.7601 14.6048 84.3054 15.878C84.1235 16.3554 83.9644 16.8556 83.7825 17.3331C83.5778 17.8787 83.1913 18.197 82.5547 18.197C81.9181 18.1743 81.5771 17.8333 81.3952 17.2649C81.0314 16.1508 80.6904 15.0595 80.3266 13.9454C80.2584 13.9227 80.1902 13.9227 80.1447 13.9227Z" fill="#9E9E9E"/>
<path d="M91.2855 17.3786C90.3533 18.1516 89.3075 18.3562 88.1707 18.0379C87.1476 17.7423 86.5792 16.992 86.5564 15.9462C86.5337 14.8321 87.0112 13.9909 88.1025 13.7408C89.1256 13.5135 90.1942 13.5589 91.2855 13.4907C91.3537 13.0133 91.1036 12.5586 90.4215 12.4676C89.8077 12.3994 89.1711 12.4449 88.5345 12.5358C87.7614 12.6495 87.3067 12.5131 87.1703 11.9447C87.0112 11.399 87.3295 10.9216 88.0797 10.8079C89.0346 10.6487 90.0123 10.4896 90.9672 10.6033C92.536 10.7624 93.3772 11.8537 93.3999 13.468C93.4227 14.5138 93.3999 15.5597 93.3999 16.6055C93.3999 17.2194 93.3999 17.8105 92.6951 18.0379C92.0585 18.288 91.6265 17.947 91.2855 17.3786ZM90.1942 14.7867C89.1938 14.7867 88.6709 15.1504 88.6481 15.787C88.6481 16.3327 89.0801 16.6737 89.7622 16.6737C90.6716 16.6965 91.3992 16.1281 91.3537 15.4233C91.3082 14.582 90.5352 14.9913 90.1942 14.7867Z" fill="#9E9E9E"/>
<path d="M104.745 15.0822C104.927 16.2872 106.086 16.7874 107.314 16.2872C107.519 16.1963 107.701 16.0826 107.883 15.9689C108.36 15.6961 108.792 15.7416 109.11 16.1963C109.406 16.6283 109.269 17.0603 108.883 17.3558C107.678 18.288 106.314 18.4017 104.927 17.947C103.563 17.4922 102.744 16.4919 102.517 15.0595C102.085 12.1948 104.154 10.0576 106.905 10.5123C108.519 10.7852 109.815 12.3994 109.747 14.0136C109.724 14.6957 109.338 15.0595 108.61 15.0595C107.337 15.0822 106.041 15.0822 104.745 15.0822ZM104.722 13.6271C105.7 13.6271 106.678 13.6271 107.655 13.6271C107.428 12.6268 106.95 12.1948 106.109 12.2175C105.336 12.2403 104.836 12.7177 104.722 13.6271Z" fill="#9E9E9E"/>
<path d="M98.0833 15.4687C98.6289 14.0591 99.0837 12.8314 99.5384 11.6036C99.6066 11.4445 99.6521 11.2853 99.7203 11.1262C100.016 10.5578 100.493 10.3531 101.062 10.6032C101.63 10.8533 101.88 11.3308 101.63 11.9219C100.857 13.7635 100.061 15.6051 99.2428 17.424C99.0154 17.9242 98.6062 18.197 98.0151 18.1743C97.4239 18.1515 97.0602 17.856 96.8328 17.3558C96.0598 15.6051 95.2868 13.8317 94.5365 12.0583C94.2636 11.3763 94.4683 10.8306 95.0367 10.5805C95.6278 10.3304 96.2189 10.5805 96.4918 11.2853C97.0374 12.604 97.5149 13.9454 98.0833 15.4687Z" fill="#9E9E9E"/>
<path d="M62.3653 14.8094C62.4108 16.9693 64.5935 18.1743 66.4578 17.1739C66.6624 17.0603 66.8443 16.8784 67.0717 16.7874C67.299 16.6965 67.5491 16.6965 67.7992 16.651C67.7083 16.8784 67.6855 17.1739 67.5037 17.3104C66.3441 18.288 65.0027 18.5381 63.6158 17.947C62.2062 17.3331 61.5241 16.1508 61.5014 14.6275C61.4786 13.1042 62.0698 11.8537 63.4794 11.1489C65.662 10.0803 68.2767 11.8765 68.1175 14.3092C68.0948 14.7867 67.8447 14.8549 67.4354 14.8549C66.0258 14.8549 64.5935 14.8549 63.1838 14.8549C62.9337 14.8094 62.6609 14.8094 62.3653 14.8094ZM67.2536 14.0819C67.299 12.5586 66.2532 11.4445 64.8208 11.4672C63.4567 11.49 62.3426 12.695 62.4108 14.0819C64.025 14.0819 65.6393 14.0819 67.2536 14.0819Z" fill="#9E9E9E"/>
<path d="M31.1489 9.07995C31.1489 10.4214 31.1489 11.6491 31.1489 12.9678C32.6495 12.9678 34.1046 12.945 35.5597 12.9905C35.9235 12.9905 36.4464 12.7177 36.5601 13.3543C36.5601 13.4225 35.9008 13.6726 35.537 13.6953C34.1046 13.7408 32.6723 13.7181 31.1035 13.7181C31.1035 14.8094 31.1035 15.8552 31.1035 16.9011C31.1035 17.1285 31.1489 17.3558 31.0807 17.5604C31.0125 17.7651 30.8534 17.9242 30.717 18.1061C30.5805 17.9242 30.3077 17.7423 30.3077 17.5377C30.2622 16.0599 30.285 14.5593 30.285 13.0587C30.285 11.74 30.3077 10.4214 30.285 9.10269C30.285 8.57976 30.4669 8.3524 31.0125 8.3524C32.8769 8.37514 34.7185 8.3524 36.5828 8.37514C36.7874 8.37514 36.9921 8.57976 37.2194 8.71618C36.9921 8.85259 36.7647 9.07995 36.5601 9.07995C34.7867 9.07995 32.9906 9.07995 31.1489 9.07995Z" fill="#9E9E9E"/>
<path d="M47.8372 17.2421C47.1324 17.5604 46.4958 18.0379 45.791 18.1288C43.7675 18.4017 42.5625 17.3331 42.4943 15.2869C42.4488 14.0364 42.4715 12.8086 42.4943 11.5582C42.4943 11.3536 42.6989 11.1262 42.8126 10.9216C42.949 11.1262 43.2218 11.3308 43.2218 11.5582C43.2673 12.7632 43.2446 13.9454 43.2446 15.1504C43.2446 16.6055 44.0176 17.4922 45.3363 17.5377C46.6549 17.6059 47.7463 16.6055 47.8145 15.1959C47.8599 13.9909 47.8145 12.8086 47.8599 11.6036C47.8599 11.3763 48.0873 11.1489 48.201 10.9216C48.3147 11.1489 48.542 11.3763 48.542 11.6036C48.5647 13.5135 48.5647 15.4005 48.542 17.3104C48.542 17.5604 48.3147 17.8105 48.201 18.0606C48.0873 17.8105 47.9509 17.5604 47.8372 17.3104C47.8145 17.2421 47.8145 17.1739 47.8372 17.2421Z" fill="#9E9E9E"/>
<path d="M51.4975 11.8992C51.0655 11.6264 50.7699 11.4445 50.4744 11.2626C50.7699 11.1262 51.0655 10.967 51.4975 10.7624C51.4975 10.3532 51.452 9.80751 51.5202 9.26185C51.543 9.05723 51.7703 8.87534 51.9067 8.67072C52.0204 8.8526 52.225 9.03449 52.225 9.23911C52.2705 9.76204 52.2478 10.3077 52.2478 10.967C52.6797 10.967 53.089 10.9216 53.4755 10.9898C53.9075 11.058 54.4759 10.6487 54.7487 11.3308C54.3167 11.4445 53.8847 11.5809 53.4528 11.6264C53.089 11.6718 52.7252 11.6264 52.2932 11.6264C52.2932 13.2861 52.2478 14.9003 52.316 16.4919C52.3614 17.2649 52.9753 17.515 54.0212 17.4468C54.2485 17.424 54.4986 17.5604 54.7487 17.6286C54.5441 17.7878 54.3622 18.0379 54.1348 18.1061C52.657 18.4926 51.543 17.6059 51.543 16.0826C51.4747 14.6275 51.4975 13.1724 51.4975 11.8992Z" fill="#9E9E9E"/>
<path d="M57.8183 10.967C58.3867 10.967 58.9096 10.9216 59.4098 10.9898C59.7281 11.0352 60.0009 11.2171 60.3192 11.3308C60.0009 11.4445 59.7053 11.6036 59.387 11.6264C58.9096 11.6719 58.4094 11.6491 57.8637 11.6491C57.8637 13.3088 57.8183 14.9231 57.8865 16.5146C57.9319 17.2876 58.5458 17.5377 59.5917 17.4695C59.819 17.4468 60.0691 17.5832 60.3192 17.6514C60.0919 17.8105 59.8872 18.0834 59.6371 18.1288C58.182 18.4471 57.1134 17.6059 57.1134 16.1054C57.0907 14.6503 57.1134 13.1952 57.1134 11.8992C56.6815 11.6264 56.3859 11.4445 56.0903 11.2853C56.3859 11.1489 56.6815 10.9898 57.1134 10.7852C57.1134 10.3986 57.068 9.87572 57.1362 9.35279C57.1589 9.12543 57.3863 8.92081 57.5227 8.69345C57.6364 8.89807 57.841 9.1027 57.8637 9.33006C57.841 9.83025 57.8183 10.3532 57.8183 10.967Z" fill="#9E9E9E"/>
<path d="M70.823 12.4221C71.5506 11.6946 72.2326 11.0352 73.1876 10.8761C73.4149 10.8306 73.6877 11.0807 73.9378 11.1717C73.7332 11.3308 73.5741 11.6036 73.3467 11.6491C71.8007 12.0129 70.8912 13.0587 70.823 14.6275C70.7775 15.537 70.8457 16.4236 70.8003 17.3331C70.7775 17.5604 70.5274 17.7878 70.391 18.0379C70.2773 17.8105 70.0727 17.5604 70.0727 17.3331C70.05 15.4233 70.05 13.5362 70.0727 11.6264C70.0727 11.399 70.2773 11.1717 70.4138 10.9216C70.5502 11.1717 70.7548 11.3763 70.823 11.6491C70.8685 11.8992 70.823 12.172 70.823 12.4221Z" fill="#9E9E9E"/>
<path d="M39.3568 12.9451C39.3568 11.49 39.334 10.0121 39.3795 8.55703C39.3795 8.32967 39.6069 8.10231 39.7433 7.87495C39.8569 8.10231 40.0843 8.32967 40.0843 8.55703C40.107 11.5127 40.107 14.4456 40.0843 17.4013C40.0843 17.6059 39.8797 17.8105 39.7887 18.0379C39.6523 17.8333 39.4022 17.6059 39.4022 17.4013C39.334 15.9235 39.3568 14.4456 39.3568 12.9451Z" fill="#9E9E9E"/>
<path d="M115.726 10.6715C115.704 12.0129 114.635 13.0815 113.316 13.0815C111.952 13.0815 110.861 11.9901 110.884 10.6033C110.906 9.2391 112.043 8.14778 113.385 8.17051C114.703 8.21599 115.749 9.30731 115.726 10.6715ZM113.248 12.7404C114.476 12.7632 115.385 11.8765 115.408 10.6715C115.431 9.4892 114.453 8.48882 113.294 8.51155C112.18 8.51155 111.202 9.51194 111.179 10.626C111.179 11.7628 112.111 12.7177 113.248 12.7404Z" fill="#9E9E9E"/>
<path d="M114.271 11.8765C113.839 11.5354 113.407 11.1944 112.884 10.7624C112.816 11.2854 112.771 11.5582 112.703 12.0584C112.521 11.7628 112.407 11.6491 112.384 11.5127C112.361 11.0807 112.407 10.626 112.361 10.194C112.271 9.48922 112.612 9.23913 113.225 9.37554C113.612 9.46648 114.112 9.6029 114.317 9.89847C114.453 10.1258 114.203 10.6033 114.067 11.1262C114.112 11.2171 114.271 11.49 114.43 11.7628C114.385 11.7855 114.339 11.831 114.271 11.8765ZM112.839 10.6488C113.248 10.5351 113.566 10.4669 113.885 10.3532C113.93 10.3304 113.93 9.98941 113.885 9.96668C113.566 9.853 113.225 9.78479 112.839 9.69384C112.839 10.0576 112.839 10.2622 112.839 10.6488Z" fill="#9E9E9E"/>
</svg>
