<svg width="98" height="33" viewBox="0 0 98 33" fill="none" xmlns="http://www.w3.org/2000/svg">
<path d="M14.0436 0.580531C14.4415 0.618424 14.8205 0.656316 15.2183 0.713156C17.4351 1.0163 19.4055 1.90679 21.1107 3.34673C21.3002 3.51725 21.4896 3.68777 21.6981 3.85828C21.7928 3.93407 21.7928 4.00986 21.717 4.10459C20.997 4.82456 20.2771 5.52558 19.576 6.24555C19.4434 6.37818 19.3676 6.30239 19.2729 6.20766C18.174 5.22244 16.9235 4.50247 15.4836 4.19932C12.6037 3.57409 9.97013 4.14248 7.69654 6.07503C5.97241 7.53392 5.00613 9.40963 4.70299 11.6453C4.45668 13.5021 4.72193 15.302 5.59347 16.9693C7.05236 19.7734 9.38279 21.3839 12.5469 21.7249C14.29 21.9144 15.9951 21.6681 17.5677 20.8533C19.7655 19.7166 21.0539 17.9356 21.3949 15.4725C21.4328 15.2262 21.3949 15.1883 21.1107 15.1883C18.9129 15.2073 16.7151 15.2073 14.5173 15.2262C14.2331 15.2262 13.9489 15.2262 13.6647 15.2262C13.4752 15.2262 13.3995 15.1694 13.3995 14.961C13.3995 13.9947 13.3995 13.0284 13.3995 12.0432C13.3995 11.8727 13.4563 11.7969 13.6268 11.8158C13.6458 11.8158 13.6647 11.8158 13.6837 11.8158C17.2835 11.8158 20.8834 11.8158 24.4832 11.8158C24.6916 11.8158 24.7864 11.8727 24.8053 12.0811C25.1653 15.2831 24.7295 18.2956 22.7022 20.9102C20.9591 23.1648 18.6098 24.51 15.7867 24.9837C13.6268 25.3437 11.4859 25.2111 9.40174 24.4911C7.12815 23.6953 5.23349 22.3691 3.71776 20.5123C2.23993 18.7124 1.36839 16.6662 1.0463 14.3547C0.989457 13.9757 0.97051 13.5968 0.932617 13.2179C0.932617 12.9716 0.932617 12.7253 0.932617 12.4979C0.951564 12.4221 0.97051 12.3463 0.97051 12.2706C1.02735 10.6412 1.44417 9.08754 2.16414 7.62865C2.92201 6.07503 3.96407 4.74877 5.27138 3.61198C7.01447 2.1152 9.0228 1.16787 11.2774 0.75105C11.789 0.656317 12.3006 0.637371 12.8121 0.561584C13.21 0.580531 13.6268 0.580531 14.0436 0.580531Z" fill="#9E9E9E"/>
<path d="M75.6579 17.0262C75.6579 19.1861 75.6579 21.3649 75.6579 23.5248C75.6579 24.4911 75.62 25.4384 75.4306 26.3858C74.9569 28.6783 73.8391 30.4972 71.6413 31.5203C70.7697 31.9371 69.8224 32.1266 68.8561 32.2213C67.6625 32.316 66.5068 32.2024 65.4079 31.7666C63.4564 31.0087 62.0733 29.6635 61.1828 27.7689C61.107 27.6173 61.1449 27.5415 61.2965 27.4657C62.168 27.1057 63.0395 26.7457 63.9111 26.3668C64.1195 26.2721 64.1763 26.3668 64.2521 26.5373C64.7258 27.5226 65.4458 28.2804 66.4499 28.7351C67.7762 29.3604 70.0877 29.1709 71.2245 27.8636C71.8307 27.1626 72.1149 26.3289 72.2476 25.4195C72.3423 24.8132 72.3044 24.188 72.3044 23.5817C72.3044 23.5059 72.3233 23.4301 72.2286 23.3922C72.1528 23.3733 72.1149 23.449 72.077 23.4869C71.1676 24.4722 70.0119 25.0027 68.7046 25.0974C65.3889 25.3248 63.0016 23.7901 61.3722 20.967C60.7849 19.9439 60.5007 18.8071 60.4628 17.6324C60.3681 15.4157 61.0691 13.4832 62.5469 11.8348C63.7216 10.5275 65.1616 9.69384 66.8857 9.40964C68.5151 9.12544 70.0308 9.39069 71.4139 10.357C71.6413 10.5275 71.8497 10.698 72.0581 10.9064C72.1149 10.9633 72.1528 11.0959 72.2665 11.039C72.3612 11.0011 72.3044 10.8875 72.3233 10.7927C72.3233 10.5654 72.3233 10.338 72.3233 10.1107C72.3233 9.78857 72.3234 9.76962 72.6454 9.76962C73.5359 9.76962 74.4454 9.76962 75.3358 9.76962C75.639 9.76962 75.6579 9.78857 75.6769 10.0917C75.6769 11.5885 75.6769 13.0663 75.6769 14.5631C75.6579 15.3968 75.6579 16.2115 75.6579 17.0262ZM63.9679 17.2914C63.9869 18.6556 64.4416 19.8871 65.4647 20.8723C67.2836 22.6343 70.2582 22.3501 71.6792 20.266C72.4939 19.0724 72.7023 17.7461 72.4939 16.3251C72.3044 15.0936 71.7739 14.0515 70.7697 13.2937C69.1403 12.0622 66.8857 12.2327 65.4268 13.6726C64.4226 14.6578 63.9869 15.8704 63.9679 17.2914Z" fill="#9E9E9E"/>
<path d="M26.2075 17.2346C26.1696 12.9147 29.5042 9.3149 34.1461 9.3149C38.8638 9.3149 42.1226 12.9716 42.1037 17.2725C42.0847 21.6302 38.6933 25.1732 34.1271 25.1732C29.5989 25.1732 26.1506 21.6112 26.2075 17.2346ZM38.5985 17.2725C38.5796 15.7378 38.068 14.4494 36.8933 13.4452C35.1692 11.9864 32.3651 12.2137 30.9252 13.9379C29.5231 15.6052 29.3337 18.0493 30.4515 19.925C31.7967 22.1417 34.7524 22.7101 36.7797 21.1376C38.0301 20.1523 38.5606 18.8261 38.5985 17.2725Z" fill="#9E9E9E"/>
<path d="M43.3352 17.2535C43.2784 12.9716 46.594 9.33385 51.2738 9.33385C55.9726 9.33385 59.2314 12.9716 59.2314 17.2725C59.2124 21.6112 55.8399 25.1921 51.2549 25.1732C46.7077 25.1542 43.2784 21.6112 43.3352 17.2535ZM46.8403 17.2725C46.8403 18.3335 47.1245 19.3187 47.7308 20.1902C49.2655 22.3691 52.4106 22.6722 54.3053 20.7776C55.9347 19.1482 56.1999 16.2683 54.8547 14.3736C53.2253 12.0622 50.0233 11.7969 48.0908 13.8431C47.2192 14.8094 46.8403 15.9651 46.8403 17.2725Z" fill="#9E9E9E"/>
<path d="M90.4741 25.1921C88.3142 25.1542 86.4574 24.4911 84.9417 23.0512C83.6533 21.8196 82.8765 20.3039 82.6113 18.5419C82.346 16.723 82.5734 14.9799 83.426 13.3316C84.6007 11.0769 86.4574 9.73173 88.9963 9.39069C91.3646 9.0686 93.3919 9.76962 95.0402 11.5127C95.7981 12.3274 96.3665 13.2558 96.7833 14.2979C96.878 14.5252 96.9728 14.7526 97.0486 14.9799C97.1622 15.2831 97.1622 15.2831 96.878 15.3968C95.8549 15.8136 94.8318 16.2493 93.8087 16.6662C91.4783 17.6324 89.1668 18.5987 86.8363 19.5461C86.6469 19.6218 86.609 19.6787 86.7037 19.8681C87.651 21.5544 89.1668 22.1607 90.9478 21.9712C92.293 21.8386 93.2971 21.1376 94.0929 20.0766C94.3013 19.8113 94.3013 19.8113 94.5666 19.9818C95.3055 20.4744 96.0444 20.967 96.7833 21.4597C96.9728 21.5733 96.9917 21.6681 96.8591 21.8575C95.476 23.7143 93.6571 24.8321 91.3456 25.0974C91.0046 25.1732 90.7014 25.2111 90.4741 25.1921ZM90.152 12.4411C90.0383 12.4411 89.9246 12.4221 89.811 12.4411C87.67 12.6684 86.0027 14.5631 86.0027 16.723C86.0027 16.9883 86.0216 16.9883 86.268 16.8746C88.4089 15.9841 90.5688 15.0936 92.7098 14.2031C93.0319 14.0705 93.0508 14.0515 92.8424 13.7484C92.8235 13.7295 92.8235 13.7105 92.8045 13.6916C92.1603 12.7821 91.213 12.479 90.152 12.4411Z" fill="#9E9E9E"/>
<path d="M77.6475 13.1042C77.6475 9.37174 77.6475 5.63926 77.6475 1.90679C77.6475 1.50891 77.6475 1.50891 78.0453 1.50891C78.9548 1.50891 79.8642 1.50891 80.7547 1.50891C81.0768 1.50891 81.0957 1.50891 81.0957 1.831C81.0957 9.35279 81.0957 16.8746 81.0957 24.4153C81.0957 24.7185 81.0768 24.7185 80.7736 24.7185C79.8453 24.7185 78.9169 24.7185 77.9885 24.7185C77.6664 24.7185 77.6475 24.7185 77.6475 24.3774C77.6475 20.6071 77.6475 16.8556 77.6475 13.1042Z" fill="#9E9E9E"/>
</svg>
