<svg width="60" height="60" viewBox="0 0 60 60" fill="none" xmlns="http://www.w3.org/2000/svg">
<circle cx="30" cy="30" r="30" fill="#01E3C2" fill-opacity="0.05"/>
<g clip-path="url(#clip0)">
<path d="M38.3233 25.3659C38.2198 25.0477 37.9447 24.8159 37.6137 24.7678L33.5177 24.1727L31.6857 20.4609C31.5376 20.1609 31.232 19.9709 30.8974 19.9709C30.5628 19.9709 30.2575 20.1609 30.1094 20.4609L28.2774 24.1727L24.1813 24.7678C23.8501 24.8159 23.5752 25.0477 23.4718 25.3659C23.3683 25.6842 23.4546 26.0335 23.694 26.267L26.6581 29.1564L25.9584 33.236C25.9018 33.5658 26.0373 33.8991 26.3081 34.0957C26.5786 34.2923 26.9375 34.3181 27.2337 34.1625L30.8974 32.2365L34.5611 34.1625C34.6898 34.2303 34.8303 34.2637 34.9701 34.2637C34.9713 34.2637 34.9724 34.2637 34.9736 34.2637C35.4579 34.2623 35.8502 33.8693 35.8502 33.3848C35.8502 33.3172 35.8426 33.2516 35.8282 33.1884L35.1368 29.1564L38.1008 26.267C38.3404 26.0335 38.4265 25.6842 38.3233 25.3659ZM33.5788 28.22C33.3716 28.4219 33.2771 28.7128 33.3261 28.998L33.8028 31.778L31.3064 30.4654C31.1783 30.3981 31.038 30.3644 30.8974 30.3644C30.7571 30.3644 30.6166 30.3981 30.4884 30.4654L27.992 31.778L28.4687 28.998C28.5177 28.7128 28.4232 28.4219 28.2161 28.22L26.1964 26.2514L28.9874 25.8458C29.2737 25.8042 29.5211 25.6245 29.6493 25.365L30.8974 22.8358L32.1457 25.365C32.2739 25.6245 32.5213 25.8042 32.8077 25.8458L35.5987 26.2514L33.5788 28.22Z" fill="#01E3C2"/>
<path d="M30.8975 14.9414C24.2333 14.9414 18.8024 20.3224 18.7225 26.968L17.273 31.1957C16.875 32.3571 16.9011 33.3792 17.3447 34.0004C17.6106 34.3726 18.021 34.5859 18.471 34.5859H18.7216V36.0606C18.7216 37.8429 20.1718 39.2929 21.9541 39.2929C22.7674 39.2929 23.4288 39.9546 23.4288 40.7676V41.709C23.4288 43.4913 24.8788 44.9415 26.6611 44.9415H33.2511C35.0334 44.9415 36.4836 43.4913 36.4836 41.709V37.9365C38.3503 36.9718 39.936 35.5417 41.093 33.7738C42.3885 31.7942 43.0733 29.4926 43.0733 27.117C43.0733 20.4035 37.6113 14.9414 30.8975 14.9414ZM35.2378 36.5889C34.9256 36.7321 34.7255 37.0443 34.7255 37.3877V41.709C34.7255 42.5222 34.0641 43.1837 33.2511 43.1837H26.6611C25.8481 43.1837 25.1866 42.5222 25.1866 41.709V40.7676C25.1866 38.9853 23.7364 37.5353 21.9541 37.5353C21.1409 37.5353 20.4794 36.8736 20.4794 36.0606V33.707C20.4794 33.2218 20.086 32.8281 19.6005 32.8281H18.7548C18.7399 32.6319 18.761 32.2763 18.9359 31.7659L20.4321 27.4022C20.4634 27.3104 20.4794 27.2141 20.4794 27.1173C20.4794 21.3728 25.153 16.6992 30.8975 16.6992C36.642 16.6992 41.3155 21.3728 41.3155 27.1173C41.3155 31.176 38.9299 34.894 35.2378 36.5889Z" fill="#01E3C2"/>
</g>
<defs>
<clipPath id="clip0">
<rect width="30" height="30" fill="white" transform="translate(15 15)"/>
</clipPath>
</defs>
</svg>
