<svg width="97" height="29" viewBox="0 0 97 29" fill="none" xmlns="http://www.w3.org/2000/svg">
<path d="M53.6797 11.1421C52.2966 11.1421 51.1598 11.6726 50.5346 12.601V11.6916C50.5346 11.5211 50.4209 11.4074 50.2504 11.4074H48.7346C48.5641 11.4074 48.4504 11.5211 48.4504 11.6916V21.7143C48.4504 21.8848 48.5641 21.9985 48.7346 21.9985H50.2504C50.4209 21.9985 50.5346 21.8848 50.5346 21.7143V15.803C50.5346 14.1736 51.5577 13.0747 53.0924 13.0747C54.7218 13.0747 55.5744 14.0599 55.5744 15.9167V21.6954C55.5744 21.8659 55.688 21.9796 55.8586 21.9796H57.3743C57.5448 21.9796 57.6585 21.8659 57.6585 21.6954V15.443C57.6585 12.8094 56.1428 11.1421 53.6797 11.1421Z" fill="#9E9E9E"/>
<path d="M75.1841 11.1232C72.9484 11.1232 71.319 12.26 70.6748 14.2115C70.4285 14.9314 70.2959 15.6704 70.2959 16.9398C70.2959 17.6598 70.4096 18.3418 70.599 19.005L70.618 19.0618C71.2432 21.0512 73.0053 22.2259 75.2978 22.2259C77.1546 22.2259 78.784 21.5059 79.7692 20.2554C79.8829 20.1039 79.8829 19.9523 79.7313 19.8576L78.765 18.986C78.6324 18.8723 78.4808 18.8913 78.3292 19.0428C77.8366 19.6112 76.9461 20.2744 75.4494 20.2744C74.0473 20.2744 72.9674 19.6681 72.5505 18.3987C72.4748 18.1713 72.4369 17.8871 72.4369 17.8492C72.4369 17.7924 72.4558 17.7545 72.5316 17.7545H79.7313C79.9208 17.7545 80.0534 17.6408 80.0534 17.4703C80.0534 15.6704 79.9208 14.9125 79.6934 14.2115C79.0492 12.26 77.4009 11.1232 75.1841 11.1232ZM72.6074 14.742C72.9674 13.6431 74.0094 12.9989 75.2789 12.9989C76.5293 12.9989 77.4767 13.6431 77.8366 14.742C77.9503 15.083 78.0072 15.4619 78.0072 16.0114C78.0072 16.0872 77.8745 16.1061 77.8177 16.1061H72.4937C72.4369 16.1061 72.399 16.0872 72.399 16.0114C72.399 15.4619 72.5126 15.0641 72.6074 14.742Z" fill="#9E9E9E"/>
<path d="M85.1691 20.1607H84.7144C83.9186 20.1607 83.6344 19.8386 83.6344 18.9481V6.89808C83.6344 6.72756 83.6344 6.59493 83.6344 6.61388H81.8345C81.664 6.61388 81.5503 6.72756 81.5503 6.89808V19.0618C81.5503 21.2027 82.4029 22.1122 84.3733 22.1122H85.188C85.3585 22.1122 85.4722 21.9985 85.4722 21.828V20.4449C85.4533 20.2744 85.3396 20.1607 85.1691 20.1607Z" fill="#9E9E9E"/>
<path d="M96.1769 20.4449C95.7601 20.4449 95.6464 20.3312 95.6085 19.8196V15.0451C95.6085 12.2221 94.3391 11.0474 91.0992 11.0474C89.5267 11.0474 88.1246 11.521 87.1962 12.241C87.0826 12.3547 87.0636 12.4873 87.1394 12.6389L87.7836 13.7378C87.8594 13.8704 88.0488 13.8894 88.2004 13.7757C88.9772 13.2262 89.8109 12.9041 90.9287 12.9041C93.1454 12.9041 93.6002 13.7567 93.6002 15.1209C93.6002 15.1777 93.5812 15.2156 93.5054 15.2156H90.9098C87.9731 15.2156 86.4194 16.4472 86.4194 18.7776C86.4194 20.9185 87.8973 22.2448 90.3035 22.2448C91.7813 22.2448 92.9749 21.7522 93.6002 20.8996C93.657 21.7711 93.9223 22.0932 95.059 22.0932H96.4421V20.6722C96.4421 20.5586 96.3285 20.4449 96.1769 20.4449ZM90.7771 20.4449C89.2804 20.4449 88.4657 19.8386 88.4657 18.7207C88.4657 17.4513 89.2993 16.9208 91.2318 16.9208H93.5054C93.5623 16.9208 93.6002 16.9398 93.6002 17.0155V18.266C93.5812 19.6302 92.5392 20.4449 90.7771 20.4449Z" fill="#9E9E9E"/>
<path d="M67.0372 6.57599C66.8666 6.57599 66.753 6.68967 66.753 6.86019V12.0894C66.2225 11.4642 65.0288 11.1042 63.6647 11.1042C61.6374 11.1042 60.0459 12.1652 59.4396 13.9652C59.1554 14.8178 59.0038 15.6514 59.0607 16.7692C59.0985 17.565 59.1554 18.6071 59.4964 19.4786C60.1974 21.3164 61.6374 22.2448 63.5699 22.2448C65.1046 22.2448 66.2793 21.8469 66.7719 21.1838V21.6954C66.7719 21.8659 66.8856 21.9796 67.0561 21.9796H68.5718C68.7424 21.9796 68.856 21.8659 68.856 21.6954V6.86019C68.856 6.68967 68.856 6.55705 68.856 6.57599H67.0372ZM66.7719 17.6029C66.7719 19.1944 65.5025 20.4638 63.9489 20.4638C62.3953 20.4638 61.1258 19.346 61.1258 17.3376V17.0156C61.1258 16.9587 61.1258 16.9019 61.1258 16.845C61.1258 16.7692 61.1258 16.6935 61.1258 16.6177V16.1251C61.1258 14.1357 62.3953 12.8852 63.9489 12.8852C65.5025 12.8852 66.7719 14.1736 66.7719 15.7461V17.6029Z" fill="#9E9E9E"/>
<path d="M47.0484 21.4301L41.6297 8.05382C41.516 7.71278 41.194 7.10649 40.5308 7.10649C39.8677 7.10649 39.5646 7.69384 39.4319 8.05382L34.0511 21.4301C34.0511 21.4301 33.8427 21.8848 33.8806 21.9417C33.9185 21.9985 33.9943 22.0364 34.07 22.0364H35.7373C35.9079 22.0364 36.0215 21.9606 36.0973 21.7711L37.4236 18.5123H40.5498H43.657L45.0022 21.7711C45.078 21.9606 45.1917 22.0364 45.3622 22.0364H47.0295C47.1242 22.0364 47.1811 21.9985 47.219 21.9417C47.2569 21.8848 47.0484 21.4301 47.0484 21.4301ZM40.5498 16.4472H38.2193L40.5498 10.8011L42.8802 16.4472H40.5498Z" fill="#9E9E9E"/>
<path d="M15.9949 5.93181L14.2707 3.80979L12.5466 5.93181L10.2351 4.68133C10.2351 4.68133 13.0203 1.40358 13.3045 1.06254C13.5886 0.721501 13.8539 0.399409 14.2707 0.380463C14.7065 0.399409 14.9528 0.721501 15.237 1.06254C15.5212 1.40358 18.3063 4.68133 18.3063 4.68133L15.9949 5.93181Z" fill="#9E9E9E"/>
<path d="M10.2351 24.1584C10.2351 24.1584 13.0203 27.4362 13.3045 27.7772C13.5886 28.0993 13.8539 28.4403 14.2707 28.4593C14.7065 28.4403 14.9528 28.1182 15.237 27.7772C15.5212 27.4362 18.3063 24.1584 18.3063 24.1584L15.9949 22.9079L14.2707 25.03L12.5466 22.9079L10.2351 24.1584Z" fill="#9E9E9E"/>
<path d="M9.47747 7.20123L6.76811 6.91703L7.05231 9.62639L4.51347 10.3843C4.51347 10.3843 4.15349 6.10233 4.11559 5.64761C4.0777 5.21184 4.03981 4.79501 4.32401 4.49187C4.62715 4.20767 5.04398 4.24556 5.47975 4.28346C5.91552 4.32135 10.2164 4.68133 10.2164 4.68133L9.47747 7.20123Z" fill="#9E9E9E"/>
<path d="M18.3066 24.1584C18.3066 24.1584 22.5886 24.5184 23.0433 24.5563C23.4791 24.5942 23.8959 24.6321 24.199 24.3479C24.4832 24.0447 24.4453 23.6279 24.4074 23.1921C24.3695 22.7564 24.0096 18.4555 24.0096 18.4555L21.4897 19.2134L21.7739 21.9227L19.0645 21.6385L18.3066 24.1584Z" fill="#9E9E9E"/>
<path d="M5.78279 12.6957L3.66077 14.4199L5.78279 16.144L4.53232 18.4555C4.53232 18.4555 1.25456 15.6704 0.913522 15.3862C0.572484 15.102 0.250392 14.8367 0.231445 14.4199C0.250392 13.9841 0.572484 13.7378 0.913522 13.4536C1.25456 13.1694 4.53232 10.3843 4.53232 10.3843L5.78279 12.6957Z" fill="#9E9E9E"/>
<path d="M24.0095 18.4555C24.0095 18.4555 27.3062 15.6704 27.6283 15.3862C27.9504 15.102 28.2914 14.8367 28.3104 14.4199C28.2914 14.0031 27.9693 13.7378 27.6283 13.4536C27.2873 13.1694 24.0095 10.3843 24.0095 10.3843L22.759 12.6957L24.8811 14.4199L22.759 16.144L24.0095 18.4555Z" fill="#9E9E9E"/>
<path d="M7.05217 19.2133L6.76797 21.9227L9.47733 21.6385L10.2352 24.1773C10.2352 24.1773 5.95326 24.5373 5.49855 24.5752C5.06277 24.6131 4.64595 24.651 4.34281 24.3668C4.05861 24.0637 4.0965 23.6468 4.13439 23.2111C4.17229 22.7753 4.53227 18.4744 4.53227 18.4744L7.05217 19.2133Z" fill="#9E9E9E"/>
<path d="M24.0096 10.3843C24.0096 10.3843 24.3695 6.10233 24.4074 5.64761C24.4453 5.21184 24.4832 4.79501 24.199 4.49187C23.8959 4.20767 23.4791 4.24556 23.0433 4.28346C22.6075 4.32135 18.3066 4.68133 18.3066 4.68133L19.0645 7.20123L21.7739 6.91703L21.4897 9.62639L24.0096 10.3843Z" fill="#9E9E9E"/>
</svg>
