<svg width="50" height="62" viewBox="0 0 50 62" fill="none" xmlns="http://www.w3.org/2000/svg">
<path d="M45.9312 61.9509H4.07041C3.93612 61.9506 3.80743 61.897 3.71259 61.8019C3.61774 61.7069 3.56448 61.5781 3.56448 61.4438V38.0937C2.56313 37.9046 1.65915 37.3721 1.00844 36.5879C0.357722 35.8037 0.00107298 34.8169 0 33.7979L0 24.0084C-3.93352e-07 23.8742 0.0532214 23.7455 0.147992 23.6505C0.242762 23.5555 0.371342 23.502 0.50553 23.5016H12.4076C12.5087 22.9499 12.775 22.4418 13.1712 22.0448C13.5674 21.6477 14.0749 21.3802 14.6264 21.2779V19.8304C14.6264 19.2919 14.8401 18.7754 15.2205 18.3942C15.6009 18.013 16.117 17.7983 16.6555 17.7972C16.7892 17.799 16.9169 17.853 17.0114 17.9476C17.1059 18.0421 17.1597 18.1699 17.1614 18.3036C17.1597 18.4373 17.1059 18.5651 17.0114 18.6598C16.9169 18.7544 16.7892 18.8084 16.6555 18.8103C16.3854 18.8109 16.1266 18.9186 15.9358 19.1097C15.745 19.3009 15.6379 19.5599 15.6379 19.83V21.2775C16.1894 21.3798 16.6968 21.6473 17.0931 22.0444C17.4893 22.4414 17.7556 22.9495 17.8567 23.5012H32.1429C32.2444 22.9496 32.5108 22.4418 32.907 22.0448C33.3031 21.6478 33.8103 21.3802 34.3617 21.2775V19.8304C34.3617 19.5603 34.2546 19.3013 34.0638 19.1101C33.873 18.919 33.6142 18.8113 33.3441 18.8108C33.2104 18.8087 33.0828 18.7546 32.9884 18.6599C32.8941 18.5651 32.8405 18.4373 32.839 18.3036C32.8407 18.17 32.8945 18.0423 32.9889 17.9477C33.0833 17.8531 33.2109 17.7991 33.3445 17.7972C33.883 17.7984 34.3989 18.0132 34.7793 18.3943C35.1596 18.7755 35.3732 19.292 35.3732 19.8304V21.2775C35.9247 21.3798 36.4321 21.6473 36.8284 22.0444C37.2246 22.4414 37.4909 22.9495 37.592 23.5012H49.4941C49.6282 23.5018 49.7567 23.5553 49.8515 23.6503C49.9463 23.7452 49.9997 23.8738 50 24.008V33.7987C49.9986 34.8176 49.6418 35.8041 48.991 36.588C48.3402 37.372 47.4363 37.9044 46.4351 38.0933V61.4425C46.4354 61.5767 46.3826 61.7055 46.2882 61.8008C46.1937 61.8961 46.0654 61.9501 45.9312 61.9509ZM8.45085 57.5746C8.31656 57.5749 8.18787 57.6285 8.09303 57.7236C7.99818 57.8186 7.94491 57.9474 7.94491 58.0817C7.94415 58.1484 7.95671 58.2146 7.98185 58.2764C8.007 58.3382 8.04422 58.3943 8.09134 58.4415C8.13847 58.4887 8.19454 58.526 8.25627 58.5512C8.31801 58.5765 8.38416 58.5892 8.45085 58.5885H41.5508C41.6175 58.5891 41.6836 58.5764 41.7454 58.5511C41.8071 58.5259 41.8632 58.4886 41.9103 58.4414C41.9575 58.3942 41.9947 58.3381 42.0199 58.2763C42.0451 58.2146 42.0578 58.1484 42.0571 58.0817C42.0571 57.9474 42.0038 57.8185 41.9089 57.7234C41.8139 57.6283 41.6851 57.5748 41.5508 57.5746H8.45085ZM19.8744 35.6994V41.0352C19.8744 41.7086 20.007 42.3753 20.2646 42.9974C20.5223 43.6194 20.9 44.1847 21.3761 44.6608C21.8522 45.1369 22.4174 45.5146 23.0395 45.7722C23.6616 46.0299 24.3283 46.1625 25.0016 46.1625C25.675 46.1625 26.3417 46.0299 26.9638 45.7722C27.5858 45.5146 28.1511 45.1369 28.6272 44.6608C29.1033 44.1847 29.481 43.6194 29.7386 42.9974C29.9963 42.3753 30.1289 41.7086 30.1289 41.0352V35.6998L19.8744 35.6994ZM19.3684 34.685H30.6344C30.7678 34.6863 30.8952 34.7404 30.9887 34.8355C31.0823 34.9306 31.1343 35.0588 31.1334 35.1922V37.1595H45.6682C46.5522 37.1469 47.3959 36.7874 48.0173 36.1586C48.6388 35.5298 48.9883 34.682 48.9906 33.7979V24.5082H1.01106V33.7979C1.01322 34.682 1.36266 35.5298 1.98405 36.1586C2.60545 36.7874 3.44904 37.1469 4.33299 37.1595H18.8617V35.1926C18.8615 35.0584 18.9147 34.9295 19.0095 34.8345C19.1043 34.7394 19.2329 34.6858 19.3672 34.6855L19.3684 34.685Z" fill="#00D7C4"/>
<path d="M25 43.4168C25.4719 43.4184 25.9337 43.28 26.3268 43.0191C26.72 42.7582 27.027 42.3865 27.2089 41.9511C27.3907 41.5156 27.4393 41.036 27.3485 40.573C27.2577 40.1099 27.0316 39.6842 26.6988 39.3497C26.3659 39.0152 25.9413 38.787 25.4787 38.6939C25.0161 38.6008 24.5363 38.647 24.1 38.8267C23.6637 39.0064 23.2904 39.3115 23.0276 39.7034C22.7647 40.0952 22.624 40.5563 22.6233 41.0282C22.6223 41.6599 22.872 42.2662 23.3176 42.7141C23.7632 43.1619 24.3683 43.4146 25 43.4168Z" fill="#00D7C4"/>
<path d="M18.4478 5.0485C18.4151 5.08122 18.3754 5.10781 18.3427 5.14707C17.8516 5.66497 17.585 6.35586 17.6007 7.06939L17.6731 10.9316L17.714 18.8729V19.169L17.7402 20.0307C17.745 20.3169 17.8066 20.5992 17.9216 20.8612C18.0365 21.1233 18.2025 21.3599 18.4098 21.5572C18.7978 21.9351 19.3188 22.1454 19.8605 22.1428H19.9129C20.2092 22.1333 20.5003 22.0617 20.7672 21.9324C21.0341 21.8032 21.2709 21.6193 21.4622 21.3927C21.529 21.4792 21.6014 21.5612 21.6789 21.6381C22.0846 22.0283 22.6261 22.2454 23.189 22.2435H23.2479C23.5365 22.237 23.821 22.1732 24.0848 22.0557C24.3485 21.9383 24.5862 21.7695 24.7841 21.5592C24.825 21.5183 24.8565 21.4737 24.8958 21.4275C24.9538 21.5024 25.0174 21.5728 25.0859 21.6381C25.4909 22.0294 26.0329 22.2467 26.596 22.2435H26.6483C26.9372 22.2383 27.2221 22.1751 27.486 22.0576C27.75 21.94 27.9875 21.7705 28.1846 21.5592C28.2254 21.5185 28.2628 21.4745 28.2962 21.4275C28.3559 21.4999 28.4189 21.5723 28.4864 21.6381C28.8922 22.0284 29.4339 22.2455 29.9969 22.2435H30.0558C30.6364 22.2279 31.1874 21.9833 31.5884 21.563C31.9894 21.1427 32.2078 20.5809 32.1961 20.0001V18.8696L32.183 10.8097C32.183 10.7441 32.1702 10.679 32.1451 10.6183C32.12 10.5577 32.0832 10.5025 32.0367 10.4561C31.9903 10.4096 31.9352 10.3728 31.8745 10.3476C31.8139 10.3225 31.7489 10.3095 31.6832 10.3095H31.6762C31.6106 10.3096 31.5457 10.3226 31.4851 10.3477C31.4245 10.3729 31.3694 10.4098 31.3231 10.4562C31.2767 10.5027 31.24 10.5578 31.215 10.6185C31.19 10.6791 31.1771 10.7441 31.1772 10.8097L31.1854 18.8696V20.0148C31.1902 20.1709 31.1637 20.3264 31.1075 20.4722C31.0513 20.6179 30.9666 20.751 30.8582 20.8635C30.7513 20.9767 30.6231 21.0676 30.4809 21.1309C30.3387 21.1943 30.1854 21.2289 30.0297 21.2327C29.8741 21.2365 29.7192 21.2094 29.5741 21.1531C29.429 21.0967 29.2965 21.0122 29.1842 20.9044C29.0707 20.7977 28.9797 20.6694 28.9165 20.527C28.8533 20.3846 28.8191 20.2311 28.8161 20.0753L28.7948 19.2001L28.7874 18.8909V18.8446C28.7809 18.8185 28.7809 18.7919 28.7743 18.7657V18.7592C28.7487 18.6484 28.6861 18.5497 28.5969 18.4791C28.5077 18.4086 28.3972 18.3705 28.2835 18.371H28.2365C28.2173 18.371 28.1956 18.3776 28.1776 18.3776C28.1637 18.3857 28.1479 18.3902 28.1318 18.3906C28.1187 18.3972 28.0991 18.4037 28.0864 18.4103C28.0698 18.4163 28.0543 18.4252 28.0406 18.4364L27.9997 18.4561C27.9872 18.4704 27.9715 18.4816 27.9539 18.4888C27.9473 18.5019 27.9342 18.5084 27.9277 18.515C27.9146 18.5346 27.9015 18.5477 27.8868 18.5677C27.8783 18.5749 27.8716 18.5838 27.8672 18.5939C27.8535 18.6121 27.8425 18.632 27.8345 18.6532C27.826 18.6603 27.8193 18.6693 27.8148 18.6794C27.8083 18.699 27.8009 18.7256 27.7952 18.7452C27.7952 18.7583 27.7886 18.7649 27.7886 18.7714C27.7832 18.7974 27.781 18.8239 27.7821 18.8504C27.7821 18.8569 27.7756 18.8634 27.7756 18.87V20.0152C27.7807 20.1713 27.7548 20.327 27.6993 20.473C27.6438 20.619 27.5598 20.7525 27.4522 20.8658C27.3446 20.9791 27.2155 21.0698 27.0726 21.1328C26.9296 21.1957 26.7755 21.2296 26.6193 21.2324C26.4645 21.2372 26.3104 21.2107 26.1661 21.1545C26.0218 21.0982 25.8903 21.0135 25.7796 20.9052C25.6652 20.7989 25.5731 20.6708 25.5089 20.5284C25.4446 20.3861 25.4094 20.2323 25.4054 20.0761L25.3878 19.2001L25.3812 18.8729V18.8266C25.3762 18.8095 25.374 18.7917 25.3747 18.7739C25.3673 18.7673 25.3673 18.7608 25.3673 18.7477C25.3386 18.6406 25.2756 18.5458 25.1878 18.4781C25.1 18.4103 24.9923 18.3733 24.8814 18.3726H24.8356C24.816 18.3792 24.7947 18.3792 24.7767 18.3857C24.7636 18.3857 24.7506 18.3923 24.7358 18.3923L24.6769 18.4119C24.667 18.4199 24.6559 18.4265 24.6442 18.4315C24.6274 18.4416 24.6099 18.4503 24.5919 18.4577L24.5657 18.4839C24.5526 18.497 24.533 18.5101 24.5199 18.5248L24.4937 18.551C24.4806 18.5706 24.4675 18.5837 24.461 18.5972L24.4413 18.6381C24.4302 18.652 24.4213 18.6676 24.4152 18.6843C24.4078 18.6987 24.4034 18.7144 24.4021 18.7305C24.3945 18.7477 24.3879 18.7653 24.3825 18.7833C24.3835 18.799 24.3813 18.8147 24.3759 18.8295V20.0205C24.3825 20.3354 24.265 20.6402 24.0487 20.8692C23.8867 21.0381 23.6784 21.1553 23.45 21.2061C23.2215 21.2568 22.9832 21.2389 22.7649 21.1545C22.5467 21.0701 22.3582 20.9231 22.2234 20.7318C22.0885 20.5406 22.0132 20.3138 22.007 20.0798L21.98 19.2001V18.832C21.98 18.7656 21.9669 18.6998 21.9415 18.6385C21.9161 18.5772 21.8788 18.5214 21.8319 18.4745C21.785 18.4275 21.7292 18.3903 21.6679 18.3649C21.6066 18.3395 21.5408 18.3264 21.4744 18.3264C21.408 18.3264 21.3423 18.3395 21.281 18.3649C21.2196 18.3903 21.1639 18.4275 21.117 18.4745C21.07 18.5214 21.0328 18.5772 21.0074 18.6385C20.982 18.6998 20.9689 18.7656 20.9689 18.832V19.9485C20.9759 20.0976 20.9534 20.2465 20.9027 20.3869C20.852 20.5272 20.7741 20.6562 20.6735 20.7663C20.5729 20.8765 20.4515 20.9658 20.3164 21.029C20.1812 21.0922 20.0349 21.1281 19.8859 21.1347C19.7421 21.1386 19.5989 21.1139 19.4648 21.0619C19.3307 21.01 19.2082 20.9318 19.1047 20.832C18.9922 20.7262 18.9023 20.5989 18.8403 20.4575C18.7782 20.3162 18.7453 20.1638 18.7435 20.0095L18.7173 19.1477V18.8254L18.6764 10.9239L18.6106 7.04853C18.6043 6.82703 18.6419 6.60648 18.721 6.39951C18.8002 6.19255 18.9194 6.00326 19.0719 5.84248C19.2244 5.68171 19.4072 5.55262 19.6096 5.46262C19.8121 5.37263 20.0304 5.32349 20.2519 5.31803H20.2585L29.686 5.08122L31.5576 6.71928C32.7458 7.77861 34.6301 9.8314 34.6301 10.8183V15.6262C34.6301 15.7604 34.6834 15.889 34.7782 15.9839C34.8731 16.0788 35.0018 16.1321 35.136 16.1321C35.2702 16.1321 35.3989 16.0788 35.4938 15.9839C35.5886 15.889 35.6419 15.7604 35.6419 15.6262V10.8155C35.6419 9.05879 32.5744 6.27551 32.2214 5.95976L30.9809 4.86895C31.2013 4.76226 31.4012 4.61743 31.5711 4.44113C31.8482 4.14938 32.0327 3.78216 32.1015 3.38572C32.1702 2.98929 32.1201 2.58138 31.9575 2.21336C31.7948 1.84535 31.5269 1.5337 31.1875 1.31766C30.8481 1.10163 30.4523 0.990877 30.05 0.999354L19.4261 1.27012C19.1588 1.27637 18.8954 1.33533 18.6509 1.44361C18.4065 1.55189 18.1858 1.70737 18.0015 1.90112C17.8173 2.09487 17.6731 2.32309 17.5772 2.57269C17.4813 2.82229 17.4357 3.08835 17.4429 3.35563C17.4548 3.69948 17.5531 4.0348 17.7287 4.33065C17.9043 4.62651 18.1516 4.87338 18.4478 5.0485Z" fill="#00D7C4"/>
</svg>
