<svg width="50" height="50" viewBox="0 0 50 50" fill="none" xmlns="http://www.w3.org/2000/svg">
<path d="M45.8333 6.66667H45V2.5C45 1.12167 43.8783 0 42.5 0H40.8333C39.455 0 38.3333 1.12167 38.3333 2.5V6.66667H11.6667V2.5C11.6667 1.12167 10.545 0 9.16667 0H7.5C6.12167 0 5 1.12167 5 2.5V6.66667H4.16667C1.86917 6.66667 0 8.53583 0 10.8333V45.8333C0 48.1308 1.86917 50 4.16667 50H45.8333C48.1308 50 50 48.1308 50 45.8333V10.8333C50 8.53583 48.1308 6.66667 45.8333 6.66667ZM40 7.5V2.5C40 2.04 40.3733 1.66667 40.8333 1.66667H42.5C42.96 1.66667 43.3333 2.04 43.3333 2.5V7.5V10.8333C43.3333 11.2933 42.96 11.6667 42.5 11.6667H40.8333C40.3733 11.6667 40 11.2933 40 10.8333V7.5ZM6.66667 7.5V2.5C6.66667 2.04 7.04 1.66667 7.5 1.66667H9.16667C9.62667 1.66667 10 2.04 10 2.5V7.5V10.8333C10 11.2933 9.62667 11.6667 9.16667 11.6667H7.5C7.04 11.6667 6.66667 11.2933 6.66667 10.8333V7.5ZM48.3333 45.8333C48.3333 47.2117 47.2117 48.3333 45.8333 48.3333H4.16667C2.78833 48.3333 1.66667 47.2117 1.66667 45.8333V21.6667H48.3333V45.8333ZM48.3333 20H1.66667V10.8333C1.66667 9.455 2.78833 8.33333 4.16667 8.33333H5V10.8333C5 12.2117 6.12167 13.3333 7.5 13.3333H9.16667C10.545 13.3333 11.6667 12.2117 11.6667 10.8333V8.33333H38.3333V10.8333C38.3333 12.2117 39.455 13.3333 40.8333 13.3333H42.5C43.8783 13.3333 45 12.2117 45 10.8333V8.33333H45.8333C47.2117 8.33333 48.3333 9.455 48.3333 10.8333V20Z" fill="#00D7C4"/>
<path d="M34.1667 10.8334H15.8333C15.3725 10.8334 15 11.2059 15 11.6667V16.6667C15 17.1275 15.3725 17.5 15.8333 17.5H34.1667C34.6275 17.5 35 17.1275 35 16.6667V11.6667C35 11.2059 34.6275 10.8334 34.1667 10.8334ZM33.3333 15.8334H16.6667V12.5H33.3333V15.8334Z" fill="#00D7C4"/>
<path d="M10.8333 24.1666H5.83333C5.3725 24.1666 5 24.5391 5 25V29.1666C5 29.6275 5.3725 30 5.83333 30H10.8333C11.2942 30 11.6667 29.6275 11.6667 29.1666V25C11.6667 24.5391 11.2942 24.1666 10.8333 24.1666ZM10 28.3333H6.66667V25.8333H10V28.3333Z" fill="#00D7C4"/>
<path d="M21.6666 24.1666H16.6666C16.2058 24.1666 15.8333 24.5391 15.8333 25V29.1666C15.8333 29.6275 16.2058 30 16.6666 30H21.6666C22.1274 30 22.4999 29.6275 22.4999 29.1666V25C22.4999 24.5391 22.1274 24.1666 21.6666 24.1666ZM20.8333 28.3333H17.4999V25.8333H20.8333V28.3333Z" fill="#00D7C4"/>
<path d="M33.3333 24.1666H28.3333C27.8725 24.1666 27.5 24.5391 27.5 25V29.1666C27.5 29.6275 27.8725 30 28.3333 30H33.3333C33.7942 30 34.1667 29.6275 34.1667 29.1666V25C34.1667 24.5391 33.7942 24.1666 33.3333 24.1666ZM32.5 28.3333H29.1667V25.8333H32.5V28.3333Z" fill="#00D7C4"/>
<path d="M44.1666 24.1666H39.1666C38.7057 24.1666 38.3333 24.5391 38.3333 25V29.1666C38.3333 29.6275 38.7057 30 39.1666 30H44.1666C44.6274 30 44.9999 29.6275 44.9999 29.1666V25C44.9999 24.5391 44.6274 24.1666 44.1666 24.1666ZM43.3333 28.3333H39.9999V25.8333H43.3333V28.3333Z" fill="#00D7C4"/>
<path d="M10.8333 32.5H5.83333C5.3725 32.5 5 32.8725 5 33.3333V37.5C5 37.9608 5.3725 38.3333 5.83333 38.3333H10.8333C11.2942 38.3333 11.6667 37.9608 11.6667 37.5V33.3333C11.6667 32.8725 11.2942 32.5 10.8333 32.5ZM10 36.6667H6.66667V34.1667H10V36.6667Z" fill="#00D7C4"/>
<path d="M21.6666 32.5H16.6666C16.2058 32.5 15.8333 32.8725 15.8333 33.3333V37.5C15.8333 37.9608 16.2058 38.3333 16.6666 38.3333H21.6666C22.1274 38.3333 22.4999 37.9608 22.4999 37.5V33.3333C22.4999 32.8725 22.1274 32.5 21.6666 32.5ZM20.8333 36.6667H17.4999V34.1667H20.8333V36.6667Z" fill="#00D7C4"/>
<path d="M33.3333 32.5H28.3333C27.8725 32.5 27.5 32.8725 27.5 33.3333V37.5C27.5 37.9608 27.8725 38.3333 28.3333 38.3333H33.3333C33.7942 38.3333 34.1667 37.9608 34.1667 37.5V33.3333C34.1667 32.8725 33.7942 32.5 33.3333 32.5ZM32.5 36.6667H29.1667V34.1667H32.5V36.6667Z" fill="#00D7C4"/>
<path d="M44.1666 32.5H39.1666C38.7057 32.5 38.3333 32.8725 38.3333 33.3333V37.5C38.3333 37.9608 38.7057 38.3333 39.1666 38.3333H44.1666C44.6274 38.3333 44.9999 37.9608 44.9999 37.5V33.3333C44.9999 32.8725 44.6274 32.5 44.1666 32.5ZM43.3333 36.6667H39.9999V34.1667H43.3333V36.6667Z" fill="#00D7C4"/>
<path d="M10.8333 40.8334H5.83333C5.3725 40.8334 5 41.2059 5 41.6667V45.8334C5 46.2942 5.3725 46.6667 5.83333 46.6667H10.8333C11.2942 46.6667 11.6667 46.2942 11.6667 45.8334V41.6667C11.6667 41.2059 11.2942 40.8334 10.8333 40.8334ZM10 45H6.66667V42.5H10V45Z" fill="#00D7C4"/>
<path d="M21.6666 40.8334H16.6666C16.2058 40.8334 15.8333 41.2059 15.8333 41.6667V45.8334C15.8333 46.2942 16.2058 46.6667 16.6666 46.6667H21.6666C22.1274 46.6667 22.4999 46.2942 22.4999 45.8334V41.6667C22.4999 41.2059 22.1274 40.8334 21.6666 40.8334ZM20.8333 45H17.4999V42.5H20.8333V45Z" fill="#00D7C4"/>
<path d="M33.5267 40.3L29.9442 44.5992L28.0892 42.7442L26.9109 43.9225L29.4109 46.4225C29.5667 46.58 29.7792 46.6667 30.0001 46.6667C30.0126 46.6667 30.0251 46.6667 30.0376 46.6659C30.2717 46.655 30.4901 46.5467 30.6409 46.3675L34.8076 41.3675L33.5267 40.3Z" fill="#00D7C4"/>
<path d="M43.5267 40.3L39.9442 44.5992L38.0892 42.7442L36.9109 43.9225L39.4109 46.4225C39.5667 46.58 39.7792 46.6667 40.0001 46.6667C40.0126 46.6667 40.0251 46.6667 40.0376 46.6659C40.2717 46.655 40.4901 46.5467 40.6409 46.3675L44.8076 41.3675L43.5267 40.3Z" fill="#00D7C4"/>
</svg>
