<svg width="60" height="60" viewBox="0 0 60 60" fill="none" xmlns="http://www.w3.org/2000/svg">
<circle cx="30" cy="30" r="30" fill="#01E3C2" fill-opacity="0.05"/>
<g clip-path="url(#clip0)">
<path d="M33.9137 37.9827C35.1241 36.988 35.8974 35.4801 35.8974 33.7949C35.8974 30.8071 33.4667 28.3763 30.4789 28.3763C27.4911 28.3763 25.0603 30.8071 25.0603 33.7949C25.0603 35.4801 25.8337 36.9877 27.0438 37.9824C24.5658 39.2398 22.8638 41.8132 22.8638 44.777V46.9746C22.8638 47.541 23.3228 48 23.8892 48H37.0686C37.635 48 38.094 47.541 38.094 46.9746V44.777C38.094 41.8132 36.3922 39.2401 33.9137 37.9827ZM30.4789 30.4271C32.3361 30.4271 33.8467 31.9379 33.8467 33.7949C33.8467 35.652 32.3361 37.1629 30.4789 37.1629C28.622 37.1629 27.1111 35.652 27.1111 33.7949C27.1111 31.9379 28.622 30.4271 30.4789 30.4271ZM36.0432 45.9492H24.9146V44.777C24.9146 41.7093 27.4102 39.2137 30.48 39.2137C33.5476 39.2137 36.0435 41.7093 36.0435 44.777V45.9492H36.0432Z" fill="#01E3C2"/>
<path d="M22.5882 24.6868L24.3997 22.5716C24.8977 21.9906 24.6048 21.0854 23.8592 20.9073L21.1502 20.2605L19.6986 17.884C19.3144 17.2548 18.363 17.206 17.9485 17.884L16.4967 20.2605L13.7877 20.9073C13.0429 21.0851 12.7484 21.9898 13.247 22.5716L15.0585 24.6868L14.836 27.4625C14.776 28.2148 15.5327 28.7902 16.2518 28.4911L18.8236 27.422L21.3948 28.4911C22.1019 28.7849 22.8717 28.2265 22.8106 27.4625L22.5882 24.6868ZM20.7534 23.6763C20.5758 23.8838 20.4882 24.1533 20.5101 24.4254L20.6324 25.9533L19.2175 25.3648C18.9654 25.2601 18.6821 25.2601 18.43 25.3648L17.0145 25.9533L17.1368 24.4254C17.1587 24.1533 17.0711 23.8838 16.8935 23.6763L15.8964 22.5124L17.3875 22.1564C17.6529 22.0929 17.882 21.9265 18.0244 21.6937L18.8236 20.3855L19.6225 21.6934C19.7646 21.9262 19.994 22.0929 20.2594 22.1564L21.7505 22.5124L20.7534 23.6763Z" fill="#01E3C2"/>
<path d="M45.9412 24.6868L47.7527 22.5716C48.2507 21.9906 47.9578 21.0854 47.2122 20.9073L44.5032 20.2605L43.0517 17.884C42.6674 17.2548 41.716 17.206 41.3016 17.884L39.8497 20.2605L37.1407 20.9073C36.396 21.0851 36.1014 21.9898 36.6 22.5716L38.4115 24.6868L38.1891 27.4625C38.129 28.2148 38.8857 28.7902 39.6049 28.4911L42.1766 27.422L44.7478 28.4911C45.4549 28.7849 46.2248 28.2265 46.1636 27.4625L45.9412 24.6868ZM44.1064 23.6763C43.9289 23.8838 43.8413 24.1533 43.8632 24.4254L43.9855 25.9533L42.5705 25.3648C42.3184 25.2601 42.0351 25.2601 41.783 25.3648L40.3675 25.9533L40.4898 24.4254C40.5117 24.1533 40.4241 23.8838 40.2465 23.6763L39.2494 22.5124L40.7405 22.1564C41.006 22.0929 41.2351 21.9265 41.3774 21.6937L42.1766 20.3855L42.9756 21.6934C43.1176 21.9262 43.347 22.0929 43.6124 22.1564L45.1035 22.5124L44.1064 23.6763Z" fill="#01E3C2"/>
<path d="M34.2649 20.2931L36.0764 18.178C36.5745 17.5969 36.2815 16.6917 35.536 16.5136L32.827 15.8668L31.3754 13.4905C30.9911 12.8612 30.0397 12.8123 29.6253 13.4903L28.1732 15.8668L25.4642 16.5136C24.7197 16.6914 24.4252 17.5961 24.9237 18.178L26.7352 20.2931L26.5128 23.0689C26.4525 23.8214 27.2095 24.3965 27.9286 24.0977L30.5004 23.0283L33.0716 24.0977C33.7787 24.3912 34.5485 23.8328 34.4874 23.0689L34.2649 20.2931ZM32.4302 19.2827C32.2526 19.4899 32.165 19.7596 32.1866 20.0317L32.3092 21.5596L30.8942 20.9711C30.6421 20.8664 30.3588 20.8664 30.1068 20.9711L28.6912 21.5596L28.8135 20.0317C28.8354 19.7596 28.7478 19.4899 28.5703 19.2827L27.5729 18.1187L29.0643 17.7627C29.3294 17.6992 29.5588 17.5328 29.7009 17.3L30.5004 15.9918L31.2993 17.2997C31.4414 17.5326 31.6707 17.6992 31.9362 17.7627L33.4273 18.1187L32.4302 19.2827Z" fill="#01E3C2"/>
</g>
<defs>
<clipPath id="clip0">
<rect width="35" height="35" fill="white" transform="translate(13 13)"/>
</clipPath>
</defs>
</svg>
