<svg width="80" height="62" viewBox="0 0 80 62" fill="none" xmlns="http://www.w3.org/2000/svg">
<path d="M49.8799 1.79692L47.1687 1.05367C46.8198 0.937303 46.476 0.973899 46.1418 1.16315C45.8064 1.35256 45.58 1.63691 45.4636 2.01572L29.1573 58.4537C29.0409 58.8327 29.0773 59.1901 29.2668 59.5248C29.4562 59.8601 29.7399 60.086 30.1193 60.2023L32.8297 60.9459C33.1794 61.0632 33.522 61.0264 33.8571 60.8369C34.1925 60.6465 34.4185 60.3631 34.5347 59.9849L50.8415 3.546C50.9577 3.16718 50.9215 2.8098 50.7318 2.47432C50.5423 2.13898 50.2588 1.91313 49.8799 1.79692Z" fill="#00D7C4"/>
<path d="M25.4434 12.8142C25.4434 12.4354 25.2975 12.0999 25.0061 11.8086L22.82 9.6227C22.5286 9.33132 22.1933 9.18524 21.8145 9.18524C21.4356 9.18524 21.1002 9.33147 20.8089 9.6227L0.437309 29.9943C0.145463 30.2857 0 30.621 0 30.9999C0 31.3787 0.145923 31.714 0.437309 32.0052L20.8088 52.3769C21.1 52.6687 21.4349 52.8139 21.8143 52.8139C22.1937 52.8139 22.5286 52.6683 22.8198 52.3769L25.0059 50.1922C25.2973 49.9009 25.4432 49.5654 25.4432 49.1862C25.4432 48.8078 25.2973 48.4725 25.0059 48.1812L7.82547 30.9999L25.0061 13.8197C25.2979 13.5285 25.4434 13.193 25.4434 12.8142Z" fill="#00D7C4"/>
<path d="M79.5633 29.9939L59.1912 9.62224C58.9 9.33101 58.5645 9.18478 58.1863 9.18478C57.8069 9.18478 57.4726 9.33101 57.1803 9.62224L54.9951 11.808C54.7039 12.0994 54.5586 12.4343 54.5586 12.8136C54.5586 13.1928 54.7037 13.5279 54.9951 13.8191L72.1761 30.9997L54.9951 48.1812C54.7039 48.4725 54.5586 48.808 54.5586 49.1862C54.5586 49.5656 54.7037 49.9009 54.9951 50.1922L57.1803 52.3769C57.4726 52.6687 57.807 52.8139 58.1863 52.8139C58.5647 52.8139 58.9 52.6682 59.1912 52.3769L79.5633 32.0054C79.8547 31.7142 80.0003 31.3782 80.0003 30.9994C80.0003 30.6204 79.8547 30.2851 79.5633 29.9939Z" fill="#00D7C4"/>
</svg>
