<svg width="26" height="27" viewBox="0 0 26 27" fill="none" xmlns="http://www.w3.org/2000/svg">
<path d="M22.3874 0.86792H3.48661C1.56105 0.86792 0 2.41354 0 4.32022V23.0351C0 24.9418 1.56098 26.4874 3.48661 26.4874H12.8084L12.8243 17.3324H10.4222C10.11 17.3324 9.85663 17.0825 9.85543 16.7734L9.84391 13.8223C9.8427 13.5115 10.0968 13.259 10.4107 13.259H12.8085V10.4075C12.8085 7.09841 14.8495 5.29659 17.8308 5.29659H20.2772C20.5901 5.29659 20.844 5.54784 20.844 5.85782V8.34616C20.844 8.65601 20.5903 8.9072 20.2775 8.90738L18.7762 8.90807C17.1549 8.90807 16.8409 9.67092 16.8409 10.7904V13.259H20.4035C20.7429 13.259 21.0063 13.5525 20.9663 13.8863L20.6131 16.8374C20.5793 17.1198 20.3374 17.3325 20.0502 17.3325H16.8568L16.8409 26.4876H22.3875C24.3131 26.4876 25.8741 24.9419 25.8741 23.0353V4.32022C25.874 2.41354 24.313 0.86792 22.3874 0.86792Z" fill="#475993"/>
</svg>
