<svg width="60" height="60" viewBox="0 0 60 60" fill="none" xmlns="http://www.w3.org/2000/svg">
<circle cx="30" cy="30" r="30" fill="#01E3C2" fill-opacity="0.05"/>
<g clip-path="url(#clip0)">
<path d="M37.9344 27.8603C37.9337 27.8547 37.9333 27.8491 37.9325 27.8436C37.9285 27.8161 37.9233 27.7888 37.9159 27.7618C37.9158 27.7615 37.9157 27.7612 37.9156 27.7609C37.9087 27.7356 37.8999 27.7107 37.8899 27.6861C37.887 27.679 37.8839 27.6723 37.8809 27.6653C37.873 27.6476 37.8642 27.63 37.8547 27.6128C37.8506 27.6053 37.8466 27.5977 37.8421 27.5903C37.8397 27.5863 37.8378 27.5822 37.8353 27.5782C37.8253 27.5622 37.8143 27.5472 37.8032 27.5324C37.8011 27.5296 37.7994 27.5267 37.7973 27.524C37.7803 27.502 37.762 27.4815 37.7428 27.4622C37.7392 27.4585 37.7352 27.4551 37.7315 27.4516C37.7148 27.4355 37.6975 27.4204 37.6794 27.4063C37.6748 27.4027 37.6703 27.3991 37.6656 27.3956C37.6414 27.3777 37.6165 27.361 37.5905 27.3465L27.5911 21.6627L33.3485 18.0373L43.0005 23.5236L38.9355 26.0833C38.6182 26.283 38.523 26.7021 38.7228 27.0193C38.9224 27.3365 39.3415 27.4317 39.6587 27.232L44.6831 24.0682C44.8851 23.9411 45.0054 23.7172 45 23.4785C44.9946 23.2399 44.8644 23.0217 44.6568 22.9038L33.666 16.6564C33.4486 16.5327 33.1807 16.5388 32.9689 16.672L25.9131 21.1151C25.9117 21.1159 25.9102 21.1169 25.9088 21.1178L22.383 23.338C22.3814 23.339 22.3797 23.34 22.3782 23.341L15.3176 27.7871C15.1156 27.9142 14.9952 28.1381 15.0007 28.3768C15.006 28.6154 15.1363 28.8336 15.3438 28.9515L26.3348 35.1989C26.4389 35.2582 26.5545 35.2877 26.6701 35.2877C26.7959 35.2877 26.9214 35.2527 27.0317 35.1833L32.0561 32.0194C32.3733 31.8198 32.4686 31.4006 32.2688 31.0835C32.0692 30.7662 31.65 30.6709 31.3328 30.8708L26.6523 33.8181L17.0003 28.3316L22.7576 24.7062L33.0519 30.5577V38.3075C33.0519 38.5547 33.1862 38.7823 33.4026 38.9018C33.5049 38.9582 33.6178 38.9863 33.7307 38.9863C33.8565 38.9863 33.9821 38.9513 34.0923 38.8819L37.6226 36.6588C37.82 36.5345 37.9397 36.3177 37.9397 36.0845V27.9397C37.9397 27.9357 37.939 27.9319 37.9389 27.9279C37.9385 27.9054 37.937 27.8829 37.9344 27.8603ZM34.4094 37.0781V30.1628C34.4094 29.9187 34.2782 29.6934 34.066 29.5728L24.0608 23.8857L26.2879 22.4832L35.9398 27.9696L35.0948 28.5017C34.7775 28.7014 34.6823 29.1205 34.882 29.4377C35.011 29.6427 35.2315 29.7549 35.4571 29.7549C35.5806 29.7549 35.7058 29.7211 35.818 29.6504L36.5822 29.1693V35.7099L34.4094 37.0781Z" fill="#01E3C2"/>
<path d="M43.9595 25.6344L38.9351 28.7981C38.6179 28.9978 38.5226 29.4169 38.7224 29.7341C38.8514 29.939 39.0719 30.0512 39.2974 30.0512C39.4209 30.0512 39.5461 30.0175 39.6584 29.9468L44.6827 26.783C44.9999 26.5833 45.0952 26.1642 44.8954 25.8471C44.6957 25.5298 44.2766 25.4345 43.9595 25.6344Z" fill="#01E3C2"/>
<path d="M31.3325 33.5856L26.6519 36.5329L16.0142 30.4864C15.6886 30.3012 15.274 30.415 15.0888 30.741C14.9036 31.0669 15.0175 31.4812 15.3434 31.6665L26.3344 37.9139C26.4385 37.9731 26.5541 38.0026 26.6697 38.0026C26.7955 38.0026 26.9211 37.9676 27.0314 37.8982L32.0557 34.7344C32.3729 34.5347 32.4682 34.1156 32.2684 33.7984C32.0688 33.4811 31.6496 33.3858 31.3325 33.5856Z" fill="#01E3C2"/>
<path d="M43.9595 28.3493L38.9351 31.513C38.6179 31.7127 38.5226 32.1318 38.7224 32.449C38.8514 32.654 39.0719 32.7662 39.2974 32.7662C39.4209 32.7662 39.5461 32.7324 39.6584 32.6617L44.6827 29.498C44.9999 29.2983 45.0952 28.8792 44.8954 28.562C44.6957 28.2447 44.2766 28.1495 43.9595 28.3493Z" fill="#01E3C2"/>
<path d="M31.3325 36.3005L26.6519 39.2479L16.0142 33.2013C15.6886 33.0161 15.274 33.1299 15.0888 33.4559C14.9036 33.7818 15.0175 34.1961 15.3434 34.3814L26.3344 40.6288C26.4385 40.688 26.5541 40.7175 26.6697 40.7175C26.7955 40.7175 26.9211 40.6825 27.0314 40.6131L32.0557 37.4493C32.3729 37.2496 32.4682 36.8305 32.2684 36.5133C32.0688 36.196 31.6496 36.1007 31.3325 36.3005Z" fill="#01E3C2"/>
<path d="M43.9595 31.0642L38.9351 34.228C38.6179 34.4276 38.5226 34.8468 38.7224 35.1639C38.8514 35.3689 39.0719 35.4811 39.2974 35.4811C39.4209 35.4811 39.5461 35.4474 39.6584 35.3766L44.6827 32.2129C44.9999 32.0132 45.0952 31.5941 44.8954 31.2769C44.6957 30.9597 44.2766 30.8644 43.9595 31.0642Z" fill="#01E3C2"/>
<path d="M31.3325 39.0155L26.6519 41.9628L16.0142 35.9162C15.6886 35.731 15.274 35.8448 15.0888 36.1708C14.9036 36.4967 15.0175 36.9111 15.3434 37.0963L26.3344 43.3437C26.4385 43.403 26.5541 43.4324 26.6697 43.4324C26.7955 43.4324 26.9211 43.3975 27.0314 43.328L32.0557 40.1642C32.3729 39.9645 32.4682 39.5454 32.2684 39.2282C32.0688 38.9109 31.6496 38.8156 31.3325 39.0155Z" fill="#01E3C2"/>
</g>
<defs>
<clipPath id="clip0">
<rect width="30" height="30" fill="white" transform="translate(15 15)"/>
</clipPath>
</defs>
</svg>
