<svg width="27" height="26" viewBox="0 0 27 26" fill="none" xmlns="http://www.w3.org/2000/svg">
<path d="M19.1591 0.380371H8.70107C4.45085 0.380371 0.993042 3.80415 0.993042 8.01255V18.3677C0.993042 22.5761 4.45085 25.9998 8.70107 25.9998H19.1591C23.4093 25.9998 26.8671 22.5761 26.8671 18.3677V8.01255C26.8671 3.80415 23.4093 0.380371 19.1591 0.380371ZM24.2642 18.3677C24.2642 21.1593 21.9785 23.4225 19.1591 23.4225H8.70107C5.88163 23.4225 3.59597 21.1593 3.59597 18.3677V8.01255C3.59597 5.2208 5.88163 2.95769 8.70107 2.95769H19.1591C21.9785 2.95769 24.2642 5.2208 24.2642 8.01255V18.3677Z" fill="url(#paint0_linear)"/>
<path d="M13.9299 6.56396C10.2399 6.56396 7.23792 9.53643 7.23792 13.19C7.23792 16.8436 10.2399 19.8161 13.9299 19.8161C17.6198 19.8161 20.6218 16.8437 20.6218 13.19C20.6218 9.53638 17.6198 6.56396 13.9299 6.56396ZM13.9299 17.2389C11.6715 17.2389 9.84085 15.4262 9.84085 13.1901C9.84085 10.954 11.6716 9.14128 13.9299 9.14128C16.1882 9.14128 18.0189 10.954 18.0189 13.1901C18.0189 15.4261 16.1882 17.2389 13.9299 17.2389Z" fill="url(#paint1_linear)"/>
<path d="M20.6353 8.20138C21.5209 8.20138 22.2388 7.49052 22.2388 6.61363C22.2388 5.73674 21.5209 5.02588 20.6353 5.02588C19.7497 5.02588 19.0317 5.73674 19.0317 6.61363C19.0317 7.49052 19.7497 8.20138 20.6353 8.20138Z" fill="url(#paint2_linear)"/>
<defs>
<linearGradient id="paint0_linear" x1="13.9301" y1="25.9253" x2="13.9301" y2="0.579362" gradientUnits="userSpaceOnUse">
<stop stop-color="#E09B3D"/>
<stop offset="0.3" stop-color="#C74C4D"/>
<stop offset="0.6" stop-color="#C21975"/>
<stop offset="1" stop-color="#7024C4"/>
</linearGradient>
<linearGradient id="paint1_linear" x1="13.9299" y1="25.9252" x2="13.9299" y2="0.579332" gradientUnits="userSpaceOnUse">
<stop stop-color="#E09B3D"/>
<stop offset="0.3" stop-color="#C74C4D"/>
<stop offset="0.6" stop-color="#C21975"/>
<stop offset="1" stop-color="#7024C4"/>
</linearGradient>
<linearGradient id="paint2_linear" x1="20.6353" y1="25.9251" x2="20.6353" y2="0.579249" gradientUnits="userSpaceOnUse">
<stop stop-color="#E09B3D"/>
<stop offset="0.3" stop-color="#C74C4D"/>
<stop offset="0.6" stop-color="#C21975"/>
<stop offset="1" stop-color="#7024C4"/>
</linearGradient>
</defs>
</svg>
