<svg width="98" height="29" viewBox="0 0 98 29" fill="none" xmlns="http://www.w3.org/2000/svg">
<path d="M0.894775 27.9288V8.26222H4.00201V27.9288H0.894775ZM20.2392 27.9288H17.0941V13.1315C17.0941 12.9041 17.0562 12.6578 16.9994 12.3926C16.9236 12.1084 16.772 11.8431 16.5825 11.6347C16.3552 11.3884 16.052 11.1989 15.6352 11.0284C15.2373 10.8579 14.6879 10.7821 14.0247 10.7821C13.3427 10.7821 12.7743 10.8579 12.3385 11.0284C11.9027 11.1989 11.5806 11.3884 11.3343 11.6158C11.1259 11.8052 10.9554 12.0705 10.8796 12.3547C10.8038 12.6199 10.7659 12.8473 10.7659 13.0557V27.9288H7.62081V12.5252C7.62081 12.2221 7.67765 11.8242 7.77238 11.3126C7.86711 10.82 8.13237 10.3084 8.56814 9.79689C9.00391 9.30428 9.62914 8.86851 10.4817 8.48958C11.3154 8.12959 12.4711 7.94013 13.9679 7.94013C15.4647 7.94013 16.6015 8.12959 17.4541 8.48958C18.2877 8.84956 18.9319 9.28533 19.3487 9.79689C19.7656 10.2895 20.0308 10.8011 20.1255 11.3316C20.2203 11.8621 20.2771 12.241 20.2771 12.5252L20.2392 27.9288ZM32.5734 25.1057V27.9288C31.0956 27.9288 29.9399 27.7393 29.0873 27.3793C28.2536 27.0193 27.6094 26.5836 27.1737 26.072C26.7379 25.5794 26.4726 25.0678 26.3779 24.5563C26.2832 24.0447 26.2263 23.6468 26.2263 23.3626V10.6305H23.858V7.95907H26.2263V2.95718H29.3715V7.95907H32.5545V10.6305H29.3715V22.7185C29.3715 22.9458 29.4094 23.1921 29.4662 23.4574C29.523 23.7226 29.6746 23.9879 29.883 24.2342C30.1104 24.4805 30.4135 24.6889 30.8304 24.8594C31.2282 25.0299 31.7777 25.1057 32.4408 25.1057H32.5734ZM41.4783 7.95907C42.9562 7.95907 44.1119 8.14854 44.9645 8.50852C45.8171 8.86851 46.4234 9.30428 46.8592 9.81584C47.276 10.3084 47.5412 10.82 47.636 11.3505C47.7307 11.8621 47.7875 12.2599 47.7875 12.5441V14.3441C47.7875 14.7798 47.7118 15.2535 47.5412 15.784C47.3897 16.3145 47.0107 16.8829 46.4044 17.4703C46.1581 17.7545 45.836 18.0008 45.4761 18.1523C45.1729 18.285 44.8698 18.3986 44.5477 18.4934C44.2256 18.5881 43.8845 18.6449 43.5435 18.6449H40.7394C40.0952 18.6449 39.5268 18.8912 39.0342 19.3649C38.5416 19.8386 38.2953 20.4259 38.2953 21.1269V22.8132C38.2953 23.4195 38.409 23.8931 38.6363 24.2531C38.7311 24.4236 38.8448 24.5752 38.9774 24.7078C39.11 24.8405 39.2805 24.9541 39.5268 25.0489C39.7163 25.1436 39.9816 25.2383 40.2847 25.3141C40.5878 25.3899 40.9857 25.4278 41.4783 25.4278C42.1225 25.4278 42.6341 25.352 42.9941 25.2194C43.373 25.0868 43.6193 24.9541 43.7709 24.8594C44.093 24.6131 44.3203 24.31 44.434 23.95C44.5477 23.59 44.6235 23.23 44.6235 22.8132H47.7686V23.7226C47.7686 24.4047 47.636 25.0299 47.3518 25.5983C47.0676 26.1857 46.6318 26.6783 46.0445 27.1141C45.6276 27.4172 45.0403 27.6825 44.3014 27.9098C43.5625 28.1372 42.6151 28.2509 41.4973 28.2509C40.6636 28.2509 39.9247 28.1751 39.3184 28.0424C38.769 27.9288 38.2195 27.7393 37.708 27.5119C37.2911 27.3225 36.9122 27.0762 36.5712 26.773C36.3059 26.5267 36.0407 26.2425 35.8323 25.9394C35.3965 25.2952 35.1881 24.5373 35.207 23.6847V12.5252C35.207 12.2221 35.2639 11.8242 35.3586 11.3126C35.4533 10.82 35.7186 10.3084 36.1354 9.79689C36.5522 9.30428 37.1775 8.86851 38.0301 8.48958C38.8827 8.11065 40.0005 7.95907 41.4783 7.95907ZM44.6235 13.4536V13.1125C44.6235 12.8852 44.5856 12.6389 44.5287 12.3736C44.4529 12.0894 44.3014 11.8242 44.1119 11.6158C43.8845 11.3695 43.5814 11.18 43.1646 11.0095C42.7667 10.839 42.2173 10.7632 41.5541 10.7632C40.872 10.7632 40.3036 10.839 39.8679 11.0095C39.4321 11.18 39.11 11.3695 38.8637 11.5968C38.6553 11.7863 38.4848 12.0515 38.409 12.3357C38.3332 12.601 38.2953 12.8283 38.2953 13.0368V16.9587C38.3521 16.7313 38.4469 16.5419 38.6363 16.4092C38.8069 16.2766 39.0153 16.1629 39.2237 16.0872C39.451 16.0114 39.6595 15.9545 39.8868 15.9356C40.1142 15.9166 40.2847 15.8977 40.3984 15.8977H42.5014C43.0698 15.8977 43.5625 15.6893 43.9793 15.2725C44.3961 14.8556 44.6045 14.363 44.6045 13.7946V13.4536H44.6235ZM51.6905 27.9288V0.607803H54.7978V27.9098H51.6905V27.9288ZM58.8713 27.9288V8.26222H61.9785V27.9288H58.8713ZM71.8876 7.95907C74.0664 7.95907 75.6579 8.39485 76.6621 9.26639C77.6663 10.1379 78.1778 11.2179 78.1778 12.5252V23.6847C78.1778 24.1394 78.1021 24.6321 77.9315 25.1815C77.78 25.731 77.4579 26.2236 76.9842 26.6783C76.5105 27.133 75.8664 27.5119 75.0517 27.8151C74.237 28.1182 73.1759 28.2698 71.8686 28.2698C70.5613 28.2698 69.5003 28.1182 68.6856 27.8151C67.8709 27.5119 67.2267 27.133 66.7531 26.6783C66.2794 26.2236 65.9762 25.731 65.8057 25.2005C65.6542 24.651 65.5594 24.1584 65.5594 23.7037V21.9416C65.5594 20.9943 65.8057 20.1228 66.2794 19.346C66.7531 18.5692 67.4541 18.0197 68.3256 17.6976C68.7614 17.546 69.2729 17.3755 69.8413 17.1671L71.4897 16.5798C72.0202 16.3903 72.4749 16.2198 72.8728 16.0682C73.1191 15.9735 73.3654 15.8787 73.6117 15.803C73.7065 15.7461 73.8391 15.6893 74.0096 15.5945C74.1612 15.4998 74.3317 15.3672 74.4643 15.1967C74.6159 15.0261 74.7485 14.8177 74.8622 14.5904C74.9759 14.363 75.0327 14.0978 75.0327 13.7946V13.0746C75.0327 12.8283 74.9759 12.5631 74.8811 12.2978C74.7675 12.0136 74.5969 11.7673 74.3696 11.5589C74.1233 11.3316 73.8012 11.1421 73.3844 11.0095C72.9865 10.8768 72.456 10.8011 71.8497 10.8011C70.6182 10.8011 69.7845 11.0663 69.3487 11.5779C68.913 12.0894 68.7046 12.7147 68.7046 13.4346H65.5594V12.5252C65.5594 11.9 65.6731 11.3126 65.9194 10.7632C66.1468 10.2137 66.5257 9.7211 67.0562 9.30428C67.5678 8.88745 68.2309 8.56536 69.0266 8.31906C69.8414 8.07275 70.7887 7.95907 71.8876 7.95907ZM75.0706 17.9439C75.0327 18.1713 74.9001 18.3797 74.6917 18.5123C74.5022 18.6449 74.3127 18.7207 74.1422 18.7776C73.7633 18.9102 73.3654 19.0428 72.9486 19.2133C72.5128 19.3839 72.1149 19.5165 71.755 19.6491C71.3381 19.8007 70.9213 19.9333 70.5045 20.1038C70.2013 20.2365 69.9171 20.407 69.6519 20.6343C69.4056 20.8617 69.1972 21.1269 69.0456 21.4111C68.8561 21.7332 68.7614 22.1122 68.7614 22.6048C68.7614 23.5521 68.9888 24.2721 69.4245 24.7268C69.8603 25.2005 70.6939 25.4278 71.9065 25.4278C73.1381 25.4278 73.9717 25.1815 74.4264 24.6889C74.8622 24.1963 75.0896 23.4953 75.0896 22.6048C75.0706 22.5669 75.0706 17.9439 75.0706 17.9439Z" fill="#9E9E9E"/>
<path d="M92.9373 22.2448C91.8194 22.2448 90.7774 21.7711 89.9816 20.9375L84.3734 14.9125C82.744 13.1694 82.744 10.3274 84.3734 8.5843C85.1692 7.73171 86.2112 7.27699 87.3291 7.27699C88.4469 7.27699 89.489 7.75066 90.2847 8.5843L95.8929 14.6093C97.5223 16.3524 97.5223 19.1944 95.8929 20.9375C95.0972 21.7901 94.0551 22.2448 92.9373 22.2448ZM85.0744 9.20954L85.7565 9.83478C84.7902 10.8579 84.7902 12.601 85.7565 13.643L91.3647 19.668C92.2362 20.5964 93.6762 20.5964 94.5477 19.668C95.514 18.6449 95.514 16.9019 94.5477 15.8598L88.9395 9.83478C88.5038 9.38006 87.9354 9.11481 87.348 9.11481C86.7607 9.11481 86.1923 9.36112 85.7565 9.83478L85.0744 9.20954Z" fill="#9E9E9E"/>
<path d="M87.3291 28.2319C86.2112 28.2319 85.1692 27.7582 84.3734 26.9246C82.744 25.1815 82.744 22.3395 84.3734 20.5964L89.9816 14.5714C90.7774 13.7188 91.8194 13.2641 92.9373 13.2641C94.0551 13.2641 95.0972 13.7378 95.8929 14.5714C97.5223 16.3145 97.5223 19.1565 95.8929 20.8996L90.2847 26.9246C89.489 27.7582 88.4469 28.2319 87.3291 28.2319ZM85.7565 25.6552C86.1923 26.1099 86.7417 26.3751 87.348 26.3751C87.9354 26.3751 88.5038 26.1099 88.9395 25.6552L94.5477 19.6301C95.514 18.607 95.514 16.8639 94.5477 15.8219C94.1119 15.3482 93.5435 15.1019 92.9562 15.1019C92.3689 15.1019 91.8005 15.3672 91.3647 15.8219L85.7565 21.8469C84.7902 22.87 84.7902 24.6131 85.7565 25.6552Z" fill="#9E9E9E"/>
</svg>
