<svg width="98" height="23" viewBox="0 0 98 23" fill="none" xmlns="http://www.w3.org/2000/svg">
<path d="M0.894679 16.9144C1.82306 16.7817 2.77039 16.6681 3.69877 16.4786C5.59343 16.0997 6.35129 15.2092 6.38918 13.2766C6.44602 10.6431 6.48392 8.00948 6.46497 5.37591C6.46497 4.50436 6.63549 4.12543 7.60176 4.18227C9.49642 4.29595 9.21222 3.99281 9.15538 5.84957C9.0796 8.72945 9.30696 11.6093 8.90908 14.4703C8.5112 17.2554 7.16599 18.6953 4.39979 19.3016C3.24405 19.5669 2.06937 19.8511 0.875732 19.8511C0.894679 18.8659 0.894679 17.8806 0.894679 16.9144Z" fill="#9E9E9E"/>
<path d="M90.5688 22.1815C89.811 21.5942 89.1289 20.9689 89.1478 19.889C89.1668 18.9227 89.8678 18.0133 90.7583 17.7859C91.7056 17.5396 92.6909 17.9754 93.1835 18.828C93.695 19.7185 93.5624 20.8174 92.8235 21.5373C92.5772 21.7836 92.293 21.9731 92.0277 22.2005C91.5541 22.1815 91.0615 22.1815 90.5688 22.1815Z" fill="#9E9E9E"/>
<path d="M80.2239 22.1815C79.5798 21.7079 78.9356 21.2152 78.784 20.3437C78.6135 19.3206 79.1819 18.2406 80.1292 17.8617C81.0197 17.5017 82.0807 17.8049 82.6491 18.6006C83.2743 19.4722 83.1986 20.7226 82.4596 21.4994C82.2323 21.7457 81.9481 21.9542 81.6828 22.1815C81.2092 22.1815 80.7166 22.1815 80.2239 22.1815Z" fill="#9E9E9E"/>
<path d="M46.8968 9.82835C45.4569 11.9883 44.0359 14.1292 42.5959 16.2891C42.1981 16.8765 41.8381 17.4638 41.4213 18.0322C40.4171 19.4343 39.034 19.4532 38.0677 18.0322C36.3815 15.5692 34.7521 13.0682 33.0848 10.5862C32.8953 10.302 32.6869 10.0178 32.4595 9.69573C32.1943 10.0178 32.289 10.3399 32.289 10.6241C32.2701 13.0872 32.2511 15.5502 32.308 18.0133C32.3269 18.7522 32.0995 18.9985 31.3606 18.9795C29.1818 18.9227 29.5796 19.2069 29.5607 17.2175C29.5417 13.5229 29.5607 9.82835 29.5417 6.13377C29.5417 5.35696 29.5986 4.58015 30.4701 4.3149C31.3796 4.0307 32.0995 4.37174 32.649 5.16749C34.79 8.25579 36.9309 11.3441 39.0908 14.4324C39.2992 14.7355 39.5266 15.0387 39.8108 15.4176C42.0654 12.1209 44.2443 8.93786 46.4232 5.75484C46.6505 5.43275 46.8589 5.11065 47.0863 4.80751C47.5599 4.22017 48.2231 4.10649 48.9052 4.3149C49.5493 4.52331 49.8525 5.03487 49.8714 5.698C49.8904 9.92309 49.8904 14.1292 49.8904 18.3543C49.8904 18.809 49.7199 18.9417 49.2651 18.9795C47.181 19.169 47.1431 19.1501 47.1431 17.1038C47.1431 14.7166 47.1431 12.3293 47.1431 9.94203C47.0673 9.88519 46.9916 9.86625 46.8968 9.82835Z" fill="#9E9E9E"/>
<path d="M92.0468 13.504C92.0278 13.7503 91.9331 13.9777 91.8194 14.205C91.5921 14.6787 91.1752 14.8492 90.6826 14.7545C90.1521 14.6408 90.0763 14.224 90.1332 13.7692C90.19 13.3903 90.2279 12.9924 90.3226 12.6325C90.4742 12.0451 90.2847 11.7988 89.7163 11.5525C87.2343 10.4915 85.9081 8.31263 86.0786 5.60327C86.1165 4.90225 85.9081 4.76962 85.2828 4.76962C83.4829 4.78857 81.7019 4.76962 79.902 4.76962C78.0642 4.76962 78.0642 4.76962 77.5716 2.96969C77.4011 2.32551 77.1927 1.68132 76.4537 1.58659C75.6201 1.49186 74.7675 1.51081 73.9338 1.56765C73.517 1.58659 73.2328 1.90868 73.2707 2.3634C73.2897 2.78023 73.5549 2.98864 73.9528 3.02653C74.1612 3.04548 74.3696 3.06443 74.578 3.04548C75.5633 2.95075 76.018 3.40547 76.2264 4.37174C77.06 7.97159 77.9695 11.5336 78.8221 15.1334C79.0305 15.9671 79.3905 16.5355 80.3567 16.5355C84.1839 16.5165 88.0112 16.5355 91.8573 16.5355C92.4257 16.5355 92.9562 16.3649 93.1457 15.8155C93.5814 14.4892 93.9225 13.144 94.1498 11.7609C92.8236 11.6662 92.1415 12.2156 92.0468 13.504ZM79.182 9.10839C78.9926 8.67262 78.8978 8.18 78.7652 7.70634C78.5568 6.89164 78.841 6.49376 79.6936 6.5506C80.2241 6.53165 80.7736 6.5506 80.9062 7.13794C81.0767 7.85791 81.4935 8.61578 81.0956 9.3547C80.7925 9.97993 79.5041 9.80941 79.182 9.10839ZM81.5504 14.7355C81.0957 14.8682 80.6599 14.7166 80.4894 14.2998C80.2241 13.6177 80.0346 12.9167 79.902 12.1967C79.8262 11.7988 80.1294 11.5525 80.5083 11.4957C81.0388 11.4199 81.5314 11.5336 81.7019 12.102C81.8725 12.7082 81.9482 13.3335 82.0619 13.8829C82.0998 14.3187 81.9293 14.6029 81.5504 14.7355ZM85.245 13.5229C85.245 14.0534 85.3018 14.6976 84.5818 14.7355C83.8808 14.7734 83.824 14.1482 83.7482 13.6177C83.6913 13.2387 83.6155 12.8598 83.5777 12.4809C83.5019 11.9125 83.6724 11.4957 84.3166 11.4578C84.9039 11.4388 85.2071 11.7799 85.245 12.3672C85.2639 12.6514 85.245 12.9167 85.245 13.2009C85.245 13.3145 85.2639 13.4282 85.245 13.5229ZM84.165 9.71468C83.0093 9.69573 82.9903 9.10839 82.7819 7.42214C82.6682 6.53165 83.3692 6.5506 83.9945 6.5506C85.0934 6.5506 85.245 6.74006 85.245 8.08527C85.245 8.88103 85.3397 9.71468 84.165 9.71468ZM88.6174 12.4809C88.5417 12.9924 88.4469 13.504 88.3522 14.0156C88.2575 14.4703 88.0301 14.8303 87.4996 14.7355C87.0449 14.6597 86.9501 14.2619 86.9501 13.845C86.9501 13.5987 86.9501 13.3524 86.9501 13.1061C86.9501 12.8219 86.9312 12.5567 86.9501 12.2725C86.988 11.6662 87.3859 11.4009 87.9354 11.4767C88.5227 11.5525 88.7122 11.9504 88.6174 12.4809Z" fill="#9E9E9E"/>
<path d="M76.1315 17.8617C73.6685 13.6177 71.2433 9.35469 68.7234 5.1296C67.9466 3.82229 66.5256 3.84124 65.7488 5.14855C63.1152 9.50626 60.5575 13.9019 57.9618 18.2596C57.7534 18.6196 57.6397 18.8469 58.246 18.9227C60.4817 19.188 60.728 19.0743 61.8079 17.1417C62.0542 16.687 62.3384 16.2323 62.5658 15.7586C62.831 15.1713 63.21 14.9439 63.8731 14.9629C65.1236 15.0197 66.393 14.9629 67.6624 14.9818C68.9129 15.0008 70.3907 14.5271 71.3759 15.1713C72.2664 15.7397 72.6454 17.1228 73.2516 18.1459C73.3274 18.2596 73.4032 18.3922 73.4601 18.5059C73.5927 18.809 73.839 18.9038 74.1421 18.9038H76.7378C76.4347 18.3922 76.2831 18.127 76.1315 17.8617ZM69.0645 12.1967C68.4392 12.1777 67.795 12.1967 67.1698 12.1967C66.5446 12.1967 65.9004 12.1777 65.2751 12.1967C64.7257 12.2156 64.6878 11.9883 64.9341 11.5714C65.5783 10.5294 66.1846 9.46837 66.8098 8.40736C67.0182 8.06632 67.1887 7.91475 67.454 8.36947C68.0982 9.44942 68.7613 10.5294 69.4244 11.6093C69.7276 12.083 69.5381 12.2156 69.0645 12.1967Z" fill="#9E9E9E"/>
<path d="M26.8135 9.90414C26.8135 11.4578 26.8324 12.9924 26.8135 14.5461C26.7756 16.8196 25.7524 18.1649 23.5546 18.5438C20.7316 19.0364 17.8707 19.0174 15.0666 18.5817C12.8688 18.2406 11.7888 16.9523 11.732 14.7545C11.6751 11.4957 11.732 8.2179 11.6941 4.94014C11.6941 4.29596 11.9593 4.20123 12.5088 4.18228C14.4413 4.12544 14.4413 4.10649 14.4413 6.0201C14.4413 8.65367 14.4413 11.2872 14.4413 13.9208C14.4413 15.2092 14.7445 15.7018 16.0139 15.8723C18.1738 16.1944 20.3527 16.1755 22.5126 15.8913C23.782 15.7207 24.0851 15.2281 24.1041 13.9587C24.1041 11.0409 24.123 8.12317 24.0851 5.20539C24.0662 4.46648 24.2178 4.14439 25.0514 4.18228C27.1924 4.27701 26.7756 3.93597 26.8135 5.9822C26.8324 7.28952 26.8135 8.59683 26.8135 9.90414Z" fill="#9E9E9E"/>
<path d="M92.1415 0.658211C89.3563 0.639264 87.0448 2.96969 87.0827 5.75483C87.1206 8.53998 89.3942 10.7946 92.1225 10.7757C94.8698 10.7567 97.1244 8.48314 97.1244 5.71694C97.1055 2.9318 94.8887 0.677158 92.1415 0.658211ZM95.5898 4.99697C94.3582 5.88746 93.9793 6.98636 94.4719 8.44524C94.6993 9.08943 94.3014 9.08943 93.8656 8.84312C93.733 8.78628 93.6004 8.72944 93.4867 8.65366C92.5583 7.93369 91.6489 7.95263 90.7015 8.65366C90.4742 8.82417 90.1331 9.10837 89.8489 8.89996C89.5837 8.71049 89.6974 8.29367 89.7921 8.00947C90.19 6.85373 89.8679 5.96325 88.9016 5.24328C88.6742 5.07276 88.2953 4.86435 88.4279 4.50436C88.5416 4.22016 88.9206 4.23911 89.1858 4.23911C90.4363 4.25806 91.2131 3.67071 91.592 2.47708C91.6868 2.19288 91.7815 1.87079 92.1604 1.68133C92.2552 1.81395 92.3878 1.92763 92.4446 2.0792C92.8993 3.50019 93.733 4.33384 95.3245 4.25806C95.7982 4.277 96.1203 4.59909 95.5898 4.99697Z" fill="#9E9E9E"/>
<path d="M52.5618 11.5335C52.5618 9.39258 52.5808 7.25162 52.5429 5.11066C52.5239 4.44753 52.6945 4.20123 53.4144 4.20123C55.3091 4.20123 55.3091 4.16333 55.3091 6.09588C55.3091 9.99887 55.2901 13.9019 55.328 17.7859C55.328 18.6006 55.1196 18.8659 54.286 18.8469C52.5618 18.7901 52.5618 18.8469 52.5618 17.1228C52.5618 15.2471 52.5618 13.3903 52.5618 11.5335Z" fill="#9E9E9E"/>
</svg>
