<svg width="106" height="19" viewBox="0 0 106 19" fill="none" xmlns="http://www.w3.org/2000/svg">
<path d="M11.172 3.804C11.076 3.972 10.972 4.096 10.86 4.176C10.756 4.248 10.624 4.284 10.464 4.284C10.296 4.284 10.112 4.224 9.912 4.104C9.72 3.976 9.488 3.836 9.216 3.684C8.944 3.532 8.624 3.396 8.256 3.276C7.896 3.148 7.468 3.084 6.972 3.084C6.524 3.084 6.132 3.14 5.796 3.252C5.46 3.356 5.176 3.504 4.944 3.696C4.72 3.888 4.552 4.12 4.44 4.392C4.328 4.656 4.272 4.948 4.272 5.268C4.272 5.676 4.384 6.016 4.608 6.288C4.84 6.56 5.144 6.792 5.52 6.984C5.896 7.176 6.324 7.348 6.804 7.5C7.284 7.652 7.776 7.816 8.28 7.992C8.784 8.16 9.276 8.36 9.756 8.592C10.236 8.816 10.664 9.104 11.04 9.456C11.416 9.8 11.716 10.224 11.94 10.728C12.172 11.232 12.288 11.844 12.288 12.564C12.288 13.348 12.152 14.084 11.88 14.772C11.616 15.452 11.224 16.048 10.704 16.56C10.192 17.064 9.564 17.464 8.82 17.76C8.076 18.048 7.224 18.192 6.264 18.192C5.712 18.192 5.168 18.136 4.632 18.024C4.096 17.92 3.58 17.768 3.084 17.568C2.596 17.368 2.136 17.128 1.704 16.848C1.272 16.568 0.888 16.256 0.552 15.912L1.5 14.364C1.58 14.252 1.684 14.16 1.812 14.088C1.94 14.008 2.076 13.968 2.22 13.968C2.42 13.968 2.636 14.052 2.868 14.22C3.1 14.38 3.376 14.56 3.696 14.76C4.016 14.96 4.388 15.144 4.812 15.312C5.244 15.472 5.76 15.552 6.36 15.552C7.28 15.552 7.992 15.336 8.496 14.904C9 14.464 9.252 13.836 9.252 13.02C9.252 12.564 9.136 12.192 8.904 11.904C8.68 11.616 8.38 11.376 8.004 11.184C7.628 10.984 7.2 10.816 6.72 10.68C6.24 10.544 5.752 10.396 5.256 10.236C4.76 10.076 4.272 9.884 3.792 9.66C3.312 9.436 2.884 9.144 2.508 8.784C2.132 8.424 1.828 7.976 1.596 7.44C1.372 6.896 1.26 6.228 1.26 5.436C1.26 4.804 1.384 4.188 1.632 3.588C1.888 2.988 2.256 2.456 2.736 1.992C3.216 1.528 3.808 1.156 4.512 0.875999C5.216 0.596 6.024 0.456 6.936 0.456C7.96 0.456 8.904 0.616 9.768 0.935999C10.632 1.256 11.368 1.704 11.976 2.28L11.172 3.804ZM27.2239 3.3H21.9919V18H18.7639V3.3H13.5319V0.647999H27.2239V3.3ZM36.4785 15.396C37.1025 15.396 37.6585 15.292 38.1465 15.084C38.6425 14.876 39.0585 14.584 39.3945 14.208C39.7305 13.832 39.9865 13.376 40.1625 12.84C40.3465 12.304 40.4385 11.704 40.4385 11.04V0.647999H43.6665V11.04C43.6665 12.072 43.4985 13.028 43.1625 13.908C42.8345 14.78 42.3585 15.536 41.7345 16.176C41.1185 16.808 40.3665 17.304 39.4785 17.664C38.5905 18.016 37.5905 18.192 36.4785 18.192C35.3585 18.192 34.3545 18.016 33.4665 17.664C32.5785 17.304 31.8225 16.808 31.1985 16.176C30.5825 15.536 30.1065 14.78 29.7705 13.908C29.4425 13.028 29.2785 12.072 29.2785 11.04V0.647999H32.5065V11.028C32.5065 11.692 32.5945 12.292 32.7705 12.828C32.9545 13.364 33.2145 13.824 33.5505 14.208C33.8945 14.584 34.3105 14.876 34.7985 15.084C35.2945 15.292 35.8545 15.396 36.4785 15.396ZM59.427 3.3H54.195V18H50.967V3.3H45.735V0.647999H59.427V3.3ZM64.9376 3.216V8.028H71.0096V10.512H64.9376V15.42H72.6416V18H61.6976V0.647999H72.6416V3.216H64.9376ZM80.7463 8.904C81.3543 8.904 81.8823 8.828 82.3303 8.676C82.7863 8.524 83.1583 8.316 83.4463 8.052C83.7423 7.78 83.9623 7.46 84.1063 7.092C84.2503 6.724 84.3223 6.32 84.3223 5.88C84.3223 5 84.0303 4.324 83.4463 3.852C82.8703 3.38 81.9863 3.144 80.7943 3.144H78.7303V8.904H80.7463ZM89.0503 18H86.1343C85.5823 18 85.1823 17.784 84.9343 17.352L81.2863 11.796C81.1503 11.588 80.9983 11.44 80.8303 11.352C80.6703 11.264 80.4303 11.22 80.1103 11.22H78.7303V18H75.5023V0.647999H80.7943C81.9703 0.647999 82.9783 0.771999 83.8183 1.02C84.6663 1.26 85.3583 1.6 85.8943 2.04C86.4383 2.48 86.8383 3.008 87.0943 3.624C87.3503 4.232 87.4783 4.904 87.4783 5.64C87.4783 6.224 87.3903 6.776 87.2143 7.296C87.0463 7.816 86.7983 8.288 86.4703 8.712C86.1503 9.136 85.7503 9.508 85.2703 9.828C84.7983 10.148 84.2583 10.4 83.6503 10.584C83.8583 10.704 84.0503 10.848 84.2263 11.016C84.4023 11.176 84.5623 11.368 84.7063 11.592L89.0503 18ZM105.552 0.647999V18H103.896C103.64 18 103.424 17.96 103.248 17.88C103.08 17.792 102.916 17.648 102.756 17.448L93.6962 5.88C93.7442 6.408 93.7682 6.896 93.7682 7.344V18H90.9242V0.647999H92.6162C92.7522 0.647999 92.8682 0.655999 92.9642 0.671999C93.0682 0.679999 93.1562 0.703999 93.2282 0.743999C93.3082 0.776 93.3842 0.828 93.4562 0.899999C93.5282 0.963999 93.6082 1.052 93.6962 1.164L102.792 12.78C102.768 12.5 102.748 12.224 102.732 11.952C102.716 11.68 102.708 11.428 102.708 11.196V0.647999H105.552Z" fill="#00D7C4"/>
</svg>
