<svg width="60" height="51" viewBox="0 0 60 51" fill="none" xmlns="http://www.w3.org/2000/svg">
<path d="M46.9315 50.5479C46.7226 50.565 46.5129 50.5274 46.323 50.4389C46.133 50.3503 45.9694 50.2138 45.8482 50.0429L42.0218 44.9232H23.6823C22.3253 44.9188 21.025 44.3783 20.0647 43.4194C19.1045 42.4605 18.5622 41.1609 18.556 39.8038V28.9878H17.9782L14.1518 34.1071C14.0145 34.2599 13.8478 34.3834 13.6617 34.4702C13.4755 34.557 13.2738 34.6053 13.0685 34.6122C12.8597 34.6292 12.65 34.5917 12.4601 34.5032C12.2702 34.4147 12.1065 34.2784 11.9852 34.1075L8.15877 28.9878H5.1263C3.76919 28.9835 2.4688 28.4429 1.50856 27.4839C0.548313 26.5249 0.0060662 25.2252 0 23.8681L0 5.11973C0.0060662 3.76262 0.548313 2.46293 1.50856 1.50391C2.4688 0.544903 3.76919 0.00432436 5.1263 0L36.3181 0C37.6752 0.00432436 38.9756 0.544903 39.9358 1.50391C40.8961 2.46293 41.4383 3.76262 41.4444 5.11973V15.9362H54.8006C56.1789 15.9302 57.5033 16.4716 58.4827 17.4415C58.9636 17.9125 59.3456 18.4748 59.6061 19.0954C59.8667 19.716 60.0006 20.3824 60 21.0555V39.8038C59.9939 41.1609 59.4517 42.4606 58.4914 43.4196C57.5312 44.3787 56.2308 44.9192 54.8737 44.9236H51.8412L48.0148 50.0433C47.8775 50.196 47.7108 50.3194 47.5246 50.4061C47.3385 50.4929 47.1367 50.5411 46.9315 50.5479ZM21.2277 28.9878V39.8042C21.2244 40.1273 21.2857 40.4478 21.408 40.7469C21.5302 41.046 21.711 41.3177 21.9396 41.546C22.1682 41.7744 22.4401 41.9547 22.7394 42.0766C23.0387 42.1984 23.3592 42.2593 23.6823 42.2556H42.5992C42.8079 42.2386 43.0175 42.2762 43.2074 42.3647C43.3972 42.4532 43.5608 42.5895 43.6821 42.7603L46.8588 46.9426L50.0359 42.7603C50.1731 42.6076 50.3398 42.4842 50.5259 42.3975C50.7119 42.3108 50.9136 42.2625 51.1188 42.2556H54.8733C55.1964 42.2593 55.517 42.1984 55.8162 42.0766C56.1155 41.9547 56.3874 41.7744 56.616 41.546C56.8447 41.3177 57.0254 41.046 57.1477 40.7469C57.2699 40.4478 57.3312 40.1273 57.3279 39.8042V21.1278C57.3312 20.8047 57.2699 20.4842 57.1477 20.1851C57.0254 19.886 56.8447 19.6143 56.616 19.386C56.3874 19.1577 56.1155 18.9773 55.8162 18.8555C55.517 18.7336 55.1964 18.6728 54.8733 18.6764H41.5171V23.8681C41.5404 24.4585 41.4425 25.0475 41.2295 25.5986H49.1716C49.3421 25.5986 49.5108 25.6322 49.6683 25.6974C49.8258 25.7626 49.9688 25.8582 50.0893 25.9788C50.2098 26.0993 50.3054 26.2423 50.3707 26.3998C50.4359 26.5572 50.4695 26.726 50.4695 26.8964C50.4695 27.0669 50.4359 27.2356 50.3707 27.3931C50.3054 27.5505 50.2098 27.6936 50.0893 27.8141C49.9688 27.9346 49.8258 28.0302 49.6683 28.0955C49.5108 28.1607 49.3421 28.1942 49.1716 28.1942H39.0621C38.2417 28.7145 37.2899 28.9898 36.3185 28.9878H21.2277ZM4.98206 2.66836C4.65893 2.66462 4.3383 2.72545 4.039 2.84727C3.73969 2.96909 3.46772 3.14946 3.23905 3.37779C3.01037 3.60612 2.8296 3.87781 2.70732 4.17694C2.58505 4.47606 2.52374 4.79659 2.52699 5.11973V23.8681C2.52374 24.1912 2.58505 24.5117 2.70732 24.8109C2.8296 25.11 3.01037 25.3817 3.23905 25.61C3.46772 25.8384 3.73969 26.0187 4.039 26.1405C4.3383 26.2624 4.65893 26.3232 4.98206 26.3195H8.73658C8.94534 26.3025 9.15493 26.34 9.34478 26.4285C9.53463 26.517 9.6982 26.6533 9.81945 26.8241L12.9962 31.0064L16.1733 26.8241C16.3105 26.6714 16.4772 26.548 16.6633 26.4613C16.8493 26.3746 17.051 26.3264 17.2562 26.3195H36.1734C36.4967 26.3234 36.8175 26.2627 37.117 26.141C37.4165 26.0193 37.6887 25.839 37.9175 25.6106C38.1464 25.3823 38.3273 25.1105 38.4497 24.8113C38.572 24.512 38.6334 24.1914 38.6301 23.8681V5.11973C38.6334 4.79663 38.5721 4.47613 38.4498 4.17703C38.3276 3.87794 38.1469 3.60626 37.9182 3.37794C37.6896 3.14961 37.4177 2.96924 37.1184 2.84739C36.8192 2.72554 36.4986 2.66467 36.1755 2.66836H4.98206ZM49.0977 35.6215H29.4584C29.286 35.6246 29.1147 35.5933 28.9545 35.5294C28.7943 35.4656 28.6485 35.3704 28.5255 35.2496C28.4025 35.1288 28.3048 34.9846 28.2381 34.8256C28.1714 34.6666 28.137 34.4959 28.137 34.3235C28.137 34.1511 28.1714 33.9804 28.2381 33.8214C28.3048 33.6623 28.4025 33.5182 28.5255 33.3974C28.6485 33.2766 28.7943 33.1814 28.9545 33.1176C29.1147 33.0537 29.286 33.0224 29.4584 33.0255H49.0973C49.2697 33.0224 49.4409 33.0537 49.6011 33.1176C49.7613 33.1814 49.9071 33.2766 50.0301 33.3974C50.1531 33.5182 50.2508 33.6623 50.3175 33.8214C50.3842 33.9804 50.4186 34.1511 50.4186 34.3235C50.4186 34.4959 50.3842 34.6666 50.3175 34.8256C50.2508 34.9846 50.1531 35.1288 50.0301 35.2496C49.9071 35.3704 49.7613 35.4656 49.6011 35.5294C49.4409 35.5933 49.2697 35.6246 49.0973 35.6215H49.0977ZM30.3974 19.6849H10.8304C10.658 19.688 10.4867 19.6567 10.3266 19.5928C10.1664 19.529 10.0205 19.4339 9.89754 19.313C9.77453 19.1922 9.67683 19.0481 9.61014 18.8891C9.54344 18.73 9.5091 18.5593 9.5091 18.3869C9.5091 18.2145 9.54344 18.0438 9.61014 17.8848C9.67683 17.7258 9.77453 17.5816 9.89754 17.4608C10.0205 17.34 10.1664 17.2449 10.3266 17.181C10.4867 17.1171 10.658 17.0858 10.8304 17.0889H30.3974C30.5682 17.0881 30.7374 17.1211 30.8954 17.186C31.0534 17.251 31.1969 17.3465 31.3178 17.4672C31.4386 17.5879 31.5344 17.7313 31.5995 17.8892C31.6646 18.0471 31.6979 18.2163 31.6973 18.3871C31.7122 18.5423 31.694 18.699 31.6438 18.8466C31.5936 18.9942 31.5127 19.1296 31.4063 19.2436C31.2775 19.3826 31.1215 19.4935 30.9479 19.5695C30.7743 19.6454 30.5869 19.6847 30.3974 19.6849ZM22.5995 12.1862H10.8304C10.4862 12.1862 10.1561 12.0494 9.91272 11.806C9.66934 11.5627 9.5326 11.2326 9.5326 10.8884C9.5326 10.5442 9.66934 10.2141 9.91272 9.97067C10.1561 9.72728 10.4862 9.59055 10.8304 9.59055H22.5995C22.9437 9.59055 23.2738 9.72728 23.5171 9.97067C23.7605 10.2141 23.8973 10.5442 23.8973 10.8884C23.8973 11.2326 23.7605 11.5627 23.5171 11.806C23.2738 12.0494 22.9437 12.1862 22.5995 12.1862Z" fill="#01E3C2"/>
</svg>
