<svg width="60" height="60" viewBox="0 0 60 60" fill="none" xmlns="http://www.w3.org/2000/svg">
<circle cx="30" cy="30" r="30" fill="#01E3C2" fill-opacity="0.05"/>
<g clip-path="url(#clip0)">
<path d="M43.3709 17.5239V17.48H43.224H16.7613H16.6144V17.5239C15.7486 17.5834 15.1027 18.2722 15 19.1082V19.2554V36.6928C15 37.0309 15.088 37.3159 15.2349 37.5727C15.5727 38.1676 16.0715 38.4682 16.7613 38.4682H26.4188V40.9042H24.5842C24.1293 40.9042 23.777 41.2581 23.777 41.7121C23.777 42.1661 24.1293 42.5199 24.5842 42.5199H35.4012C35.8561 42.5199 36.2231 42.166 36.2231 41.7121C36.2231 41.258 35.8562 40.9042 35.4012 40.9042H33.5666V38.4682H43.224C43.9141 38.4682 44.4173 38.1676 44.7505 37.5727C44.9017 37.3034 45 37.0153 45 36.6928V19.2554V19.1083C44.8973 18.2722 44.2075 17.5834 43.3709 17.5239ZM43.3709 19.2554V36.6929C43.3709 36.7962 43.327 36.84 43.224 36.84H16.7613C16.6586 36.84 16.6144 36.7962 16.6144 36.6929V19.2554V19.1083H43.3708V19.2554H43.3709Z" fill="#01E3C2"/>
</g>
<defs>
<clipPath id="clip0">
<rect width="30" height="30" fill="white" transform="translate(15 15)"/>
</clipPath>
</defs>
</svg>
