<svg width="42" height="43" viewBox="0 0 42 43" fill="none" xmlns="http://www.w3.org/2000/svg">
<path d="M41.0861 16.3514L38.7326 18.7052L32.1749 12.1481L34.5293 9.79402C35.2711 9.05225 36.3856 8.96053 37.0151 9.58926L41.291 13.8659C41.9195 14.4944 41.8279 15.6096 41.0861 16.3514ZM31.082 13.2404L37.6397 19.7982L22.0025 35.4351C21.9308 35.5068 21.7317 35.706 21.4523 35.7772C21.42 35.7928 21.387 35.806 21.3542 35.8164L13.1933 38.4172C12.9649 38.4894 12.7354 38.4427 12.5865 38.2936C12.4371 38.1445 12.3909 37.9152 12.4624 37.6867L15.0632 29.5265C15.0743 29.493 15.0875 29.4605 15.1024 29.4288C15.1739 29.149 15.3725 28.9504 15.445 28.8782L18.3837 25.9395H8.45827C8.05817 25.9395 7.7335 25.6149 7.7335 25.2147C7.7335 24.8138 8.05809 24.49 8.45827 24.49H19.8332L31.082 13.2404ZM19.9854 34.9313L15.9485 30.895L14.8656 34.2942L16.5863 36.0151L19.9854 34.9313ZM30.8301 15.8468C30.5979 15.6144 30.2214 15.6144 29.9897 15.8468L17.7991 28.0365C17.5672 28.2687 17.5672 28.6452 17.7991 28.8774C18.031 29.1095 18.4078 29.1095 18.6397 28.8774L30.8301 16.6875C31.0621 16.4551 31.0621 16.0787 30.8301 15.8468ZM30.0934 39.0539C30.0934 39.4893 29.7391 39.8442 29.3035 39.8442H14.9193L13.6201 40.2584C13.3592 40.3415 13.0909 40.3834 12.8225 40.3834C12.2508 40.3834 11.7193 40.1876 11.2845 39.8441H3.81739C3.38168 39.8441 3.02636 39.4901 3.02636 39.0538V5.86139C3.02636 5.42568 3.3812 5.07108 3.81739 5.07108H6.78066V6.32241C6.78066 6.75859 7.1343 7.11248 7.57121 7.11248C8.00795 7.11248 8.3616 6.75859 8.3616 6.32241V5.071H12.9055V6.32233C12.9055 6.75851 13.2591 7.1124 13.6959 7.1124C14.1328 7.1124 14.4864 6.75851 14.4864 6.32233V5.071H18.4377V6.32233C18.4377 6.75851 18.7914 7.1124 19.2284 7.1124C19.665 7.1124 20.0187 6.75851 20.0187 6.32233V5.071H24.3656V6.32233C24.3656 6.75851 24.719 7.1124 25.1555 7.1124C25.5924 7.1124 25.9463 6.75851 25.9463 6.32233V5.071H29.3049C29.74 5.071 30.0949 5.4256 30.0949 5.86131V11.3353L30.9235 10.5071L32.4659 8.96444V5.86139C32.4659 4.11864 31.048 2.70047 29.3049 2.70047H25.9463V0.79063C25.9463 0.354203 25.5924 0 25.1555 0C24.7195 0 24.3656 0.353724 24.3656 0.79063V2.70047H20.0177V0.79063C20.0177 0.354203 19.6641 0 19.2273 0C18.7904 0 18.4368 0.353724 18.4368 0.79063V2.70047H14.4855V0.79063C14.4855 0.354203 14.1318 0 13.6948 0C13.2582 0 12.9045 0.353724 12.9045 0.79063V2.70047H8.36064V0.79063C8.36064 0.354203 8.00691 0 7.57025 0C7.13334 0 6.7797 0.353724 6.7797 0.79063V2.70047H3.81643C2.0736 2.70047 0.655029 4.11864 0.655029 5.86139V39.0534C0.655029 40.7964 2.07368 42.2143 3.81643 42.2143H29.3031C31.0462 42.2143 32.4641 40.7964 32.4641 39.0534V27.5458L30.093 29.9174V39.0539H30.0934ZM23.9202 12.1689H8.45827C8.05817 12.1689 7.7335 12.4931 7.7335 12.8936C7.7335 13.2943 8.05809 13.6184 8.45827 13.6184H23.9202C24.3204 13.6184 24.645 13.2942 24.645 12.8936C24.645 12.4931 24.3204 12.1689 23.9202 12.1689ZM23.9202 18.0123H8.45827C8.05817 18.0123 7.7335 18.3366 7.7335 18.7371C7.7335 19.1377 8.05809 19.4618 8.45827 19.4618H23.9202C24.3204 19.4618 24.645 19.1377 24.645 18.7371C24.645 18.3366 24.3204 18.0123 23.9202 18.0123Z" fill="#01E3C2"/>
</svg>
