<svg width="88" height="284" viewBox="0 0 88 284" fill="none" xmlns="http://www.w3.org/2000/svg">
<circle opacity="0.4" cx="16" cy="86" r="2" fill="#01E3C2"/>
<circle opacity="0.4" cx="16" cy="100" r="2" fill="#01E3C2"/>
<circle opacity="0.4" cx="16" cy="114" r="2" fill="#01E3C2"/>
<circle opacity="0.4" cx="16" cy="128" r="2" fill="#01E3C2"/>
<circle opacity="0.4" cx="16" cy="142" r="2" fill="#01E3C2"/>
<circle opacity="0.4" cx="16" cy="156" r="2" fill="#01E3C2"/>
<circle opacity="0.4" cx="16" cy="170" r="2" fill="#01E3C2"/>
<circle opacity="0.4" cx="16" cy="184" r="2" fill="#01E3C2"/>
<circle opacity="0.4" cx="16" cy="198" r="2" fill="#01E3C2"/>
<circle opacity="0.4" cx="16" cy="212" r="2" fill="#01E3C2"/>
<circle opacity="0.4" cx="16" cy="226" r="2" fill="#01E3C2"/>
<circle opacity="0.4" cx="16" cy="240" r="2" fill="#01E3C2"/>
<circle opacity="0.4" cx="16" cy="254" r="2" fill="#01E3C2"/>
<circle opacity="0.4" cx="16" cy="268" r="2" fill="#01E3C2"/>
<circle opacity="0.4" cx="16" cy="282" r="2" fill="#01E3C2"/>
<circle opacity="0.4" cx="2" cy="86" r="2" fill="#01E3C2"/>
<circle opacity="0.4" cx="2" cy="100" r="2" fill="#01E3C2"/>
<circle opacity="0.4" cx="2" cy="114" r="2" fill="#01E3C2"/>
<circle opacity="0.4" cx="2" cy="128" r="2" fill="#01E3C2"/>
<circle opacity="0.4" cx="2" cy="142" r="2" fill="#01E3C2"/>
<circle opacity="0.4" cx="2" cy="156" r="2" fill="#01E3C2"/>
<circle opacity="0.4" cx="2" cy="170" r="2" fill="#01E3C2"/>
<circle opacity="0.4" cx="2" cy="184" r="2" fill="#01E3C2"/>
<circle opacity="0.4" cx="2" cy="198" r="2" fill="#01E3C2"/>
<circle opacity="0.4" cx="2" cy="212" r="2" fill="#01E3C2"/>
<circle opacity="0.4" cx="2" cy="226" r="2" fill="#01E3C2"/>
<circle opacity="0.4" cx="2" cy="240" r="2" fill="#01E3C2"/>
<circle opacity="0.4" cx="2" cy="254" r="2" fill="#01E3C2"/>
<circle opacity="0.4" cx="2" cy="268" r="2" fill="#01E3C2"/>
<circle opacity="0.4" cx="2" cy="282" r="2" fill="#01E3C2"/>
<circle opacity="0.4" cx="30" cy="86" r="2" fill="#01E3C2"/>
<circle opacity="0.4" cx="30" cy="100" r="2" fill="#01E3C2"/>
<circle opacity="0.4" cx="30" cy="114" r="2" fill="#01E3C2"/>
<circle opacity="0.4" cx="30" cy="128" r="2" fill="#01E3C2"/>
<circle opacity="0.4" cx="30" cy="142" r="2" fill="#01E3C2"/>
<circle opacity="0.4" cx="30" cy="156" r="2" fill="#01E3C2"/>
<circle opacity="0.4" cx="30" cy="170" r="2" fill="#01E3C2"/>
<circle opacity="0.4" cx="30" cy="184" r="2" fill="#01E3C2"/>
<circle opacity="0.4" cx="30" cy="198" r="2" fill="#01E3C2"/>
<circle opacity="0.4" cx="30" cy="212" r="2" fill="#01E3C2"/>
<circle opacity="0.4" cx="30" cy="226" r="2" fill="#01E3C2"/>
<circle opacity="0.4" cx="30" cy="240" r="2" fill="#01E3C2"/>
<circle opacity="0.4" cx="30" cy="254" r="2" fill="#01E3C2"/>
<circle opacity="0.4" cx="30" cy="268" r="2" fill="#01E3C2"/>
<circle opacity="0.4" cx="30" cy="282" r="2" fill="#01E3C2"/>
<circle opacity="0.4" cx="44" cy="86" r="2" fill="#01E3C2"/>
<circle opacity="0.4" cx="44" cy="100" r="2" fill="#01E3C2"/>
<circle opacity="0.4" cx="44" cy="114" r="2" fill="#01E3C2"/>
<circle opacity="0.4" cx="44" cy="128" r="2" fill="#01E3C2"/>
<circle opacity="0.4" cx="44" cy="142" r="2" fill="#01E3C2"/>
<circle opacity="0.4" cx="44" cy="156" r="2" fill="#01E3C2"/>
<circle opacity="0.4" cx="44" cy="170" r="2" fill="#01E3C2"/>
<circle opacity="0.4" cx="44" cy="184" r="2" fill="#01E3C2"/>
<circle opacity="0.4" cx="44" cy="198" r="2" fill="#01E3C2"/>
<circle opacity="0.4" cx="44" cy="212" r="2" fill="#01E3C2"/>
<circle opacity="0.4" cx="44" cy="226" r="2" fill="#01E3C2"/>
<circle opacity="0.4" cx="44" cy="240" r="2" fill="#01E3C2"/>
<circle opacity="0.4" cx="44" cy="254" r="2" fill="#01E3C2"/>
<circle opacity="0.4" cx="44" cy="268" r="2" fill="#01E3C2"/>
<circle opacity="0.4" cx="44" cy="282" r="2" fill="#01E3C2"/>
<circle opacity="0.4" cx="58" cy="86" r="2" fill="#01E3C2"/>
<circle opacity="0.4" cx="58" cy="100" r="2" fill="#01E3C2"/>
<circle opacity="0.4" cx="58" cy="114" r="2" fill="#01E3C2"/>
<circle opacity="0.4" cx="58" cy="128" r="2" fill="#01E3C2"/>
<circle opacity="0.4" cx="58" cy="142" r="2" fill="#01E3C2"/>
<circle opacity="0.4" cx="58" cy="156" r="2" fill="#01E3C2"/>
<circle opacity="0.4" cx="58" cy="170" r="2" fill="#01E3C2"/>
<circle opacity="0.4" cx="58" cy="184" r="2" fill="#01E3C2"/>
<circle opacity="0.4" cx="58" cy="198" r="2" fill="#01E3C2"/>
<circle opacity="0.4" cx="58" cy="212" r="2" fill="#01E3C2"/>
<circle opacity="0.4" cx="58" cy="226" r="2" fill="#01E3C2"/>
<circle opacity="0.4" cx="58" cy="240" r="2" fill="#01E3C2"/>
<circle opacity="0.4" cx="58" cy="254" r="2" fill="#01E3C2"/>
<circle opacity="0.4" cx="58" cy="268" r="2" fill="#01E3C2"/>
<circle opacity="0.4" cx="58" cy="282" r="2" fill="#01E3C2"/>
<circle opacity="0.4" cx="72" cy="86" r="2" fill="#01E3C2"/>
<circle opacity="0.4" cx="72" cy="100" r="2" fill="#01E3C2"/>
<circle opacity="0.4" cx="72" cy="114" r="2" fill="#01E3C2"/>
<circle opacity="0.4" cx="72" cy="128" r="2" fill="#01E3C2"/>
<circle opacity="0.4" cx="72" cy="142" r="2" fill="#01E3C2"/>
<circle opacity="0.4" cx="72" cy="156" r="2" fill="#01E3C2"/>
<circle opacity="0.4" cx="72" cy="170" r="2" fill="#01E3C2"/>
<circle opacity="0.4" cx="72" cy="184" r="2" fill="#01E3C2"/>
<circle opacity="0.4" cx="72" cy="198" r="2" fill="#01E3C2"/>
<circle opacity="0.4" cx="72" cy="212" r="2" fill="#01E3C2"/>
<circle opacity="0.4" cx="72" cy="226" r="2" fill="#01E3C2"/>
<circle opacity="0.4" cx="72" cy="240" r="2" fill="#01E3C2"/>
<circle opacity="0.4" cx="72" cy="254" r="2" fill="#01E3C2"/>
<circle opacity="0.4" cx="72" cy="268" r="2" fill="#01E3C2"/>
<circle opacity="0.4" cx="72" cy="282" r="2" fill="#01E3C2"/>
<circle opacity="0.4" cx="86" cy="86" r="2" fill="#01E3C2"/>
<circle opacity="0.4" cx="86" cy="100" r="2" fill="#01E3C2"/>
<circle opacity="0.4" cx="16" cy="58" r="2" fill="#01E3C2"/>
<circle opacity="0.4" cx="16" cy="72" r="2" fill="#01E3C2"/>
<circle opacity="0.4" cx="2" cy="58" r="2" fill="#01E3C2"/>
<circle opacity="0.4" cx="2" cy="72" r="2" fill="#01E3C2"/>
<circle opacity="0.4" cx="30" cy="58" r="2" fill="#01E3C2"/>
<circle opacity="0.4" cx="30" cy="72" r="2" fill="#01E3C2"/>
<circle opacity="0.4" cx="44" cy="58" r="2" fill="#01E3C2"/>
<circle opacity="0.4" cx="44" cy="72" r="2" fill="#01E3C2"/>
<circle opacity="0.4" cx="58" cy="58" r="2" fill="#01E3C2"/>
<circle opacity="0.4" cx="58" cy="72" r="2" fill="#01E3C2"/>
<circle opacity="0.4" cx="72" cy="58" r="2" fill="#01E3C2"/>
<circle opacity="0.4" cx="72" cy="72" r="2" fill="#01E3C2"/>
<circle opacity="0.4" cx="86" cy="58" r="2" fill="#01E3C2"/>
<circle opacity="0.4" cx="86" cy="72" r="2" fill="#01E3C2"/>
<circle opacity="0.4" cx="16" cy="30" r="2" fill="#01E3C2"/>
<circle opacity="0.4" cx="16" cy="44" r="2" fill="#01E3C2"/>
<circle opacity="0.4" cx="2" cy="30" r="2" fill="#01E3C2"/>
<circle opacity="0.4" cx="2" cy="44" r="2" fill="#01E3C2"/>
<circle opacity="0.4" cx="30" cy="30" r="2" fill="#01E3C2"/>
<circle opacity="0.4" cx="30" cy="44" r="2" fill="#01E3C2"/>
<circle opacity="0.4" cx="44" cy="30" r="2" fill="#01E3C2"/>
<circle opacity="0.4" cx="44" cy="44" r="2" fill="#01E3C2"/>
<circle opacity="0.4" cx="58" cy="30" r="2" fill="#01E3C2"/>
<circle opacity="0.4" cx="58" cy="44" r="2" fill="#01E3C2"/>
<circle opacity="0.4" cx="72" cy="30" r="2" fill="#01E3C2"/>
<circle opacity="0.4" cx="72" cy="44" r="2" fill="#01E3C2"/>
<circle opacity="0.4" cx="86" cy="30" r="2" fill="#01E3C2"/>
<circle opacity="0.4" cx="86" cy="44" r="2" fill="#01E3C2"/>
<circle opacity="0.4" cx="16" cy="2" r="2" fill="#01E3C2"/>
<circle opacity="0.4" cx="16" cy="16" r="2" fill="#01E3C2"/>
<circle opacity="0.4" cx="2" cy="2" r="2" fill="#01E3C2"/>
<circle opacity="0.4" cx="2" cy="16" r="2" fill="#01E3C2"/>
<circle opacity="0.4" cx="30" cy="2" r="2" fill="#01E3C2"/>
<circle opacity="0.4" cx="30" cy="16" r="2" fill="#01E3C2"/>
<circle opacity="0.4" cx="44" cy="2" r="2" fill="#01E3C2"/>
<circle opacity="0.4" cx="44" cy="16" r="2" fill="#01E3C2"/>
<circle opacity="0.4" cx="58" cy="2" r="2" fill="#01E3C2"/>
<circle opacity="0.4" cx="58" cy="16" r="2" fill="#01E3C2"/>
<circle opacity="0.4" cx="72" cy="2" r="2" fill="#01E3C2"/>
<circle opacity="0.4" cx="72" cy="16" r="2" fill="#01E3C2"/>
<circle opacity="0.4" cx="86" cy="2" r="2" fill="#01E3C2"/>
<circle opacity="0.4" cx="86" cy="16" r="2" fill="#01E3C2"/>
<circle opacity="0.4" cx="86" cy="114" r="2" fill="#01E3C2"/>
<circle opacity="0.4" cx="86" cy="128" r="2" fill="#01E3C2"/>
<circle opacity="0.4" cx="86" cy="142" r="2" fill="#01E3C2"/>
<circle opacity="0.4" cx="86" cy="156" r="2" fill="#01E3C2"/>
<circle opacity="0.4" cx="86" cy="170" r="2" fill="#01E3C2"/>
<circle opacity="0.4" cx="86" cy="184" r="2" fill="#01E3C2"/>
<circle opacity="0.4" cx="86" cy="198" r="2" fill="#01E3C2"/>
<circle opacity="0.4" cx="86" cy="212" r="2" fill="#01E3C2"/>
<circle opacity="0.4" cx="86" cy="226" r="2" fill="#01E3C2"/>
<circle opacity="0.4" cx="86" cy="240" r="2" fill="#01E3C2"/>
<circle opacity="0.4" cx="86" cy="254" r="2" fill="#01E3C2"/>
<circle opacity="0.4" cx="86" cy="268" r="2" fill="#01E3C2"/>
<circle opacity="0.4" cx="86" cy="282" r="2" fill="#01E3C2"/>
</svg>
