<svg width="287" height="515" viewBox="0 0 287 515" fill="none" xmlns="http://www.w3.org/2000/svg">
<circle cx="79.5" cy="207.5" r="207.5" fill="#01E3C2" fill-opacity="0.1"/>
<path d="M-8 425.067C-8 425.067 24.741 444.416 53.8511 445.907C88.3641 447.675 97.4127 423.571 131.979 425.067C161.834 426.359 196 445.907 196 445.907" stroke="#01E3C2" stroke-opacity="0.1" stroke-width="10"/>
<path d="M-8 441.067C-8 441.067 24.741 460.416 53.8511 461.907C88.3641 463.675 97.4127 439.571 131.979 441.067C161.834 442.359 196 461.907 196 461.907" stroke="#01E3C2" stroke-opacity="0.1" stroke-width="10"/>
<path d="M-8 457.067C-8 457.067 24.741 476.416 53.8511 477.907C88.3641 479.675 97.4127 455.571 131.979 457.067C161.834 458.359 196 477.907 196 477.907" stroke="#01E3C2" stroke-opacity="0.1" stroke-width="10"/>
<path d="M-8 473.067C-8 473.067 24.741 492.416 53.8511 493.907C88.3641 495.675 97.4127 471.571 131.979 473.067C161.834 474.359 196 493.907 196 493.907" stroke="#01E3C2" stroke-opacity="0.1" stroke-width="10"/>
<path d="M-8 489.067C-8 489.067 24.741 508.416 53.8511 509.907C88.3641 511.675 97.4127 487.571 131.979 489.067C161.834 490.359 196 509.907 196 509.907" stroke="#01E3C2" stroke-opacity="0.1" stroke-width="10"/>
</svg>
