<svg width="497" height="690" viewBox="0 0 497 690" fill="none" xmlns="http://www.w3.org/2000/svg">
<circle cx="440.5" cy="207.5" r="207.5" fill="#01E3C2" fill-opacity="0.1"/>
<path d="M353 425.067C353 425.067 385.741 444.416 414.851 445.907C449.364 447.675 458.413 423.571 492.979 425.067C522.834 426.359 557 445.907 557 445.907" stroke="#01E3C2" stroke-opacity="0.1" stroke-width="10"/>
<path d="M353 441.067C353 441.067 385.741 460.416 414.851 461.907C449.364 463.675 458.413 439.571 492.979 441.067C522.834 442.359 557 461.907 557 461.907" stroke="#01E3C2" stroke-opacity="0.1" stroke-width="10"/>
<path d="M353 457.067C353 457.067 385.741 476.416 414.851 477.907C449.364 479.675 458.413 455.571 492.979 457.067C522.834 458.359 557 477.907 557 477.907" stroke="#01E3C2" stroke-opacity="0.1" stroke-width="10"/>
<path d="M353 473.067C353 473.067 385.741 492.416 414.851 493.907C449.364 495.675 458.413 471.571 492.979 473.067C522.834 474.359 557 493.907 557 493.907" stroke="#01E3C2" stroke-opacity="0.1" stroke-width="10"/>
<path d="M353 489.067C353 489.067 385.741 508.416 414.851 509.907C449.364 511.675 458.413 487.571 492.979 489.067C522.834 490.359 557 509.907 557 509.907" stroke="#01E3C2" stroke-opacity="0.1" stroke-width="10"/>
</svg>
