<svg width="116" height="23" viewBox="0 0 116 23" fill="none" xmlns="http://www.w3.org/2000/svg">
<path d="M0.273713 6.89766C0.34192 6.85218 0.364656 6.76124 0.387392 6.6703C0.523807 6.37473 0.751166 6.14737 1.04673 6.03369C1.16041 5.98822 1.27409 5.96548 1.41051 5.96548C1.50145 5.96548 1.56966 5.96548 1.6606 5.96548C8.1858 5.96548 14.711 5.96548 21.2362 5.96548C21.3726 5.96548 21.509 5.96548 21.6227 5.98822C22.1684 6.07916 22.5549 6.53388 22.6231 7.10228C22.6231 7.14775 22.6231 7.19322 22.6231 7.23869C22.6231 7.89803 22.6231 8.53464 22.6231 9.19398C22.6231 9.44408 22.5776 9.69417 22.4185 9.92153C22.1911 10.2626 21.8728 10.4445 21.4408 10.4672C21.3726 10.4672 21.2817 10.4672 21.2135 10.4672C14.711 10.4672 8.20854 10.4672 1.68334 10.4672C1.61513 10.4672 1.52419 10.4672 1.45598 10.4672C0.955789 10.4445 0.614751 10.2171 0.387392 9.76238C0.34192 9.67144 0.34192 9.58049 0.250977 9.51228C0.273712 8.62558 0.273713 7.76162 0.273713 6.89766Z" fill="#9E9E9E"/>
<path d="M0.273682 12.7181C0.341889 12.6726 0.364625 12.5817 0.387361 12.5135C0.478305 12.3088 0.591984 12.1497 0.773871 12.0133C0.978494 11.8541 1.20585 11.7859 1.45595 11.7632C1.52416 11.7632 1.6151 11.7632 1.68331 11.7632C7.822 11.7632 13.9379 11.7632 20.0766 11.7632C20.1903 11.7632 20.3267 11.7632 20.4404 11.7859C21.0315 11.8768 21.4181 12.3316 21.4635 12.9454C21.4635 12.9909 21.4635 13.0136 21.4635 13.0591C21.4635 13.7185 21.4635 14.3551 21.4635 15.0144C21.4635 15.31 21.3726 15.6055 21.168 15.8329C20.9406 16.1057 20.6678 16.2421 20.3267 16.2649C20.2358 16.2649 20.1448 16.2649 20.0539 16.2649C13.9152 16.2649 7.79926 16.2649 1.66057 16.2649C1.59236 16.2649 1.52416 16.2649 1.45595 16.2649C0.955758 16.2421 0.591984 15.992 0.387361 15.5373C0.341889 15.4691 0.341889 15.3782 0.273682 15.31C0.273682 14.446 0.273682 13.582 0.273682 12.7181Z" fill="#9E9E9E"/>
<path d="M20.5768 0.167863C20.6223 0.190599 20.6677 0.213334 20.7132 0.23607C21.1907 0.463429 21.4408 0.827203 21.4635 1.35013C21.4635 1.50928 21.4635 1.66843 21.4635 1.82758C21.4635 2.30503 21.4635 2.80522 21.4635 3.28268C21.4635 3.39636 21.4635 3.53277 21.418 3.64645C21.3043 4.21485 20.8269 4.60136 20.2585 4.60136C20.1903 4.60136 20.0993 4.60136 20.0311 4.60136C13.9152 4.60136 7.79923 4.60136 1.70601 4.60136C1.6378 4.60136 1.5696 4.60136 1.50139 4.60136C0.978463 4.57862 0.614689 4.35126 0.410066 3.87381C0.364594 3.8056 0.364594 3.71466 0.296387 3.64645C0.296387 2.78249 0.296387 1.91853 0.296387 1.05456C0.364594 1.00909 0.38733 0.918148 0.410066 0.827204C0.546481 0.531638 0.751104 0.327014 1.02393 0.190599C1.09214 0.167863 1.16035 0.122391 1.20582 0.0996552C7.66281 0.167863 14.1198 0.167863 20.5768 0.167863Z" fill="#9E9E9E"/>
<path d="M115.727 15.9238C115.636 16.1512 115.454 16.2421 115.226 16.2649C115.181 16.2649 115.113 16.2649 115.067 16.2649C114.362 16.2649 113.635 16.2649 112.93 16.2649C112.885 16.2649 112.816 16.2649 112.771 16.2649C112.521 16.2421 112.316 16.1512 112.18 15.9466C112.134 15.8784 112.089 15.8102 112.043 15.7647C111.498 14.9462 110.952 14.1277 110.406 13.3092C110.202 13.0136 109.997 12.6953 109.815 12.3998C109.792 12.3543 109.747 12.3088 109.702 12.2406C109.679 12.1951 109.633 12.1724 109.588 12.1724C109.474 12.1497 109.338 12.1497 109.224 12.1724C109.156 12.1724 109.133 12.2179 109.11 12.2861C109.11 12.3543 109.11 12.4452 109.11 12.5134C109.11 13.5138 109.11 14.4915 109.11 15.4918C109.11 15.5828 109.11 15.6737 109.11 15.7419C109.065 16.0602 108.883 16.2649 108.542 16.2649C108.269 16.2649 107.974 16.2649 107.701 16.2649C107.291 16.2649 106.882 16.2649 106.473 16.2649C106.337 16.2649 106.2 16.2421 106.086 16.1512C105.95 16.0375 105.882 15.9011 105.859 15.7419C105.859 15.6737 105.859 15.5828 105.859 15.5146C105.859 11.1493 105.859 6.76127 105.859 2.39597C105.859 2.32777 105.859 2.23682 105.859 2.16862C105.882 1.87305 106.109 1.66843 106.405 1.64569C106.45 1.64569 106.518 1.64569 106.564 1.64569C107.178 1.64569 107.792 1.64569 108.406 1.64569C108.451 1.64569 108.519 1.64569 108.565 1.64569C108.86 1.66843 109.042 1.85031 109.088 2.14588C109.11 2.23682 109.11 2.32777 109.11 2.41871C109.11 3.71466 109.11 5.0106 109.11 6.30655C109.11 7.26145 109.11 8.21636 109.11 9.17127C109.11 9.23948 109.11 9.33042 109.11 9.39863C109.11 9.46684 109.156 9.51231 109.224 9.51231C109.247 9.51231 109.292 9.51231 109.315 9.51231C109.588 9.51231 109.588 9.51231 109.747 9.30769C110.315 8.51193 110.884 7.71617 111.452 6.94315C111.589 6.76127 111.725 6.57938 111.861 6.37476C112.021 6.1474 112.225 6.05645 112.498 6.03372C112.544 6.03372 112.612 6.03372 112.657 6.03372C113.339 6.03372 113.999 6.03372 114.681 6.03372C114.772 6.03372 114.885 6.03372 114.976 6.05645C115.204 6.12466 115.317 6.28381 115.34 6.51117C115.34 6.67032 115.295 6.82947 115.204 6.96589C115.113 7.1023 115.022 7.21598 114.931 7.32966C114.294 8.17089 113.658 8.98938 112.998 9.83061C112.862 10.0125 112.703 10.2171 112.566 10.399C112.544 10.4445 112.498 10.49 112.475 10.5354C112.43 10.5809 112.453 10.6264 112.475 10.6946C112.521 10.7628 112.544 10.8083 112.589 10.8765C113.203 11.7859 113.839 12.6726 114.453 13.582C114.84 14.1277 115.226 14.6961 115.59 15.2418C115.658 15.3327 115.704 15.4236 115.749 15.5146C115.727 15.6055 115.727 15.7647 115.727 15.9238Z" fill="#9E9E9E"/>
<path d="M0.273682 18.5157C0.341889 18.4703 0.364625 18.3793 0.387361 18.3111C0.569248 17.9019 0.864815 17.6745 1.2968 17.5836C1.41048 17.5608 1.50142 17.5608 1.6151 17.5608C2.34265 17.5608 3.09293 17.5608 3.82048 17.5608C6.50331 17.5608 9.18615 17.5608 11.8917 17.5608C12.0281 17.5608 12.1873 17.5608 12.3237 17.6063C12.8466 17.7427 13.2331 18.1974 13.2559 18.7431C13.2559 19.4479 13.2559 20.1754 13.2559 20.8803C13.2559 21.3577 13.0058 21.7215 12.5738 21.9261C12.5056 21.9716 12.4374 21.9943 12.3692 22.017C8.64049 22.017 4.9118 22.017 1.16038 22.017C1.13765 21.9943 1.09217 21.9716 1.06944 21.9716C0.728399 21.8124 0.50104 21.5851 0.364625 21.244C0.341889 21.1986 0.319153 21.1531 0.273682 21.1076C0.273682 20.2436 0.273682 19.3797 0.273682 18.5157Z" fill="#9E9E9E"/>
<path d="M29.7848 13.3319C29.7848 11.1493 29.7848 8.96663 29.7848 6.78399C29.7848 6.69304 29.7848 6.6021 29.7848 6.53389C29.762 6.2838 30.0349 5.94276 30.3759 5.9655C30.8306 5.9655 31.3081 5.9655 31.7628 5.9655C31.9674 5.9655 32.1493 5.9655 32.3539 5.9655C32.7404 5.9655 32.9451 6.14738 33.0133 6.53389C33.0133 6.57936 33.0133 6.62484 33.036 6.67031C33.036 6.69304 33.0815 6.71578 33.1042 6.69305C33.1497 6.67031 33.1724 6.62484 33.2179 6.6021C33.7863 6.12465 34.4229 5.82908 35.1504 5.73814C35.9917 5.62446 36.8329 5.69267 37.6514 6.01097C38.2425 6.23833 38.7882 6.55663 39.2429 6.98861C40.1523 7.82984 40.6753 8.89842 40.8799 10.1262C40.9481 10.5581 40.9708 10.9674 40.9481 11.3994C40.9026 12.1951 40.7435 12.9909 40.3797 13.7184C39.8795 14.7415 39.152 15.5146 38.1516 16.0375C37.5377 16.3558 36.8784 16.5149 36.1963 16.5604C35.4233 16.6059 34.6957 16.4922 33.9909 16.2194C33.7408 16.1284 33.5135 15.992 33.2861 15.8101C33.2634 15.7874 33.2406 15.7647 33.2179 15.7419C33.1497 15.6965 33.1042 15.7192 33.0815 15.7874C33.0815 15.8556 33.0815 15.9465 33.0815 16.0148C33.0815 17.3107 33.0815 18.6066 33.0815 19.9026C33.0815 19.9935 33.0815 20.1072 33.0587 20.1982C33.036 20.5165 32.7632 20.7438 32.4676 20.7211C31.8765 20.7211 31.2853 20.7211 30.6942 20.7211C30.5805 20.7211 30.4668 20.7211 30.3532 20.7211C30.0576 20.6983 29.853 20.5165 29.8302 20.2209C29.8302 20.13 29.8302 20.039 29.8302 19.9481C29.7848 17.7427 29.7848 15.5373 29.7848 13.3319ZM33.0133 11.1038C33.0133 11.2857 33.036 11.4448 33.0587 11.604C33.2634 12.4907 33.7636 13.0818 34.6048 13.3774C34.7639 13.4456 34.9458 13.4683 35.1277 13.4911C35.537 13.5365 35.9235 13.4683 36.2872 13.3092C36.9466 12.9909 37.3558 12.468 37.5377 11.7859C37.6287 11.4676 37.6287 11.1265 37.6059 10.8082C37.5377 10.2626 37.3331 9.76239 36.9238 9.39861C36.3327 8.83022 35.6279 8.62559 34.8321 8.78475C34.3092 8.89843 33.8545 9.19399 33.5135 9.60324C33.1724 10.0352 33.0133 10.5581 33.0133 11.1038Z" fill="#9E9E9E"/>
<path d="M55.1126 5.96548C55.4764 5.96548 55.8175 5.96548 56.1812 5.96548C56.2494 5.96548 56.2949 5.96548 56.3631 5.96548C56.5677 5.98822 56.7269 6.07916 56.8406 6.26105C56.886 6.35199 56.9315 6.46567 56.9542 6.55662C57.2953 7.71615 57.6363 8.85294 57.9546 10.0125C58.2047 10.8764 58.4548 11.7404 58.7049 12.6044C58.7049 12.6271 58.7276 12.6726 58.7276 12.6953C58.7731 12.8317 58.7959 12.8317 58.9323 12.8545C59.1142 12.8545 59.1369 12.8317 59.1824 12.6726C59.3415 12.0814 59.5007 11.4903 59.6598 10.8992C60.0463 9.48955 60.4328 8.05718 60.8193 6.64756C60.8421 6.53388 60.8876 6.4202 60.9558 6.32926C61.0922 6.12464 61.2741 6.01096 61.5014 5.98822C61.5469 5.98822 61.5696 5.98822 61.6151 5.98822C62.3426 5.98822 63.0475 5.98822 63.775 5.98822C63.8659 5.98822 63.9569 5.98822 64.0478 6.01096C64.2752 6.07916 64.4116 6.23832 64.4344 6.46568C64.4571 6.60209 64.4116 6.7385 64.3889 6.87492C64.2525 7.28416 64.1388 7.69341 64.0024 8.10266C63.5249 9.60323 63.0702 11.1265 62.5927 12.6271C62.3427 13.4229 62.0926 14.2413 61.8425 15.0371C61.5469 15.9465 61.2741 16.8787 60.9785 17.7881C60.8421 18.2429 60.6602 18.6976 60.3874 19.1068C60.0009 19.7207 59.5234 20.2209 58.8868 20.5619C58.4321 20.812 57.9319 20.9484 57.409 21.0166C57.1361 21.0394 56.8633 21.0621 56.5677 21.0621C55.8175 21.0166 55.0899 20.8802 54.4306 20.5164C54.1577 20.3573 53.8849 20.1981 53.6575 19.9708C53.4075 19.7434 53.3847 19.4251 53.5211 19.1523C53.5666 19.0841 53.6121 18.9931 53.6575 18.9249C53.8622 18.6294 54.0441 18.3565 54.2487 18.061C54.2941 18.0155 54.3169 17.97 54.3624 17.9018C54.5897 17.6063 54.8398 17.5153 55.2036 17.629C55.3173 17.6517 55.4082 17.7199 55.4992 17.7654C55.6128 17.8336 55.7265 17.9246 55.8629 17.9928C56.0903 18.1064 56.3404 18.1974 56.5905 18.1974C57.0225 18.1974 57.3635 18.0155 57.5909 17.6745C57.6363 17.5835 57.6818 17.4926 57.7273 17.4016C57.8409 17.1061 57.9546 16.7878 58.0456 16.4922C58.0683 16.4467 58.0683 16.424 58.0683 16.3785C58.0683 16.333 58.0456 16.3103 58.0228 16.2876C57.9546 16.2876 57.9092 16.2876 57.8409 16.2876C57.5454 16.2876 57.2725 16.2876 56.977 16.2876C56.5677 16.2876 56.3631 16.1284 56.2267 15.7646C56.0448 15.219 55.8629 14.6961 55.681 14.1504C55.4309 13.3774 55.1581 12.6044 54.908 11.8313C54.3851 10.2398 53.8622 8.64832 53.3165 7.03407C53.2938 6.94313 53.271 6.85218 53.2256 6.7385C53.2028 6.69303 53.2028 6.64756 53.2028 6.60209C53.1801 6.26105 53.362 6.03369 53.703 5.98822C53.7712 5.96548 53.8622 5.98822 53.9304 5.98822C54.3624 5.96548 54.7261 5.96548 55.1126 5.96548Z" fill="#9E9E9E"/>
<path d="M90.5124 6.64759C90.5578 6.62486 90.5578 6.57939 90.5578 6.55665C90.6488 6.12467 90.8307 5.96552 91.2854 5.96552C91.831 5.96552 92.3767 5.96552 92.9451 5.96552C93.036 5.96552 93.1043 5.96552 93.1952 5.96552C93.5362 5.96552 93.7409 6.17014 93.8091 6.48844C93.8318 6.55665 93.8318 6.6476 93.8318 6.7158C93.8318 9.64874 93.8318 12.5817 93.8318 15.5146C93.8318 15.6055 93.8318 15.6965 93.8091 15.7874C93.7409 16.0375 93.5362 16.2194 93.2861 16.2422C93.2634 16.2422 93.2179 16.2422 93.1952 16.2422C92.5359 16.2422 91.8992 16.2422 91.2399 16.2422C90.8534 16.2422 90.6715 16.083 90.5806 15.7192C90.5806 15.6965 90.5806 15.651 90.5578 15.6283C90.5351 15.5828 90.5123 15.5828 90.4896 15.6055C90.4214 15.651 90.3759 15.6965 90.3305 15.742C89.853 16.1512 89.2846 16.3786 88.6707 16.4922C88.3979 16.5377 88.1251 16.5605 87.8295 16.5605C87.3293 16.5605 86.8291 16.4922 86.3517 16.3331C85.5104 16.0603 84.7829 15.6283 84.1918 14.9917C83.8052 14.5824 83.4869 14.105 83.2368 13.6048C82.9413 13.0364 82.7821 12.4225 82.7367 11.7859C82.6684 10.9219 82.7139 10.058 82.9867 9.23949C83.2141 8.55741 83.5779 7.94354 84.0553 7.39788C84.8966 6.46571 85.9197 5.92005 87.1702 5.73816C87.7613 5.64722 88.3524 5.66995 88.9208 5.80637C89.512 5.94278 90.0349 6.19288 90.4669 6.62486C90.4441 6.62486 90.4669 6.64759 90.5124 6.64759ZM90.5351 11.0811C90.5351 10.9674 90.5351 10.831 90.5124 10.7173C90.3305 9.44411 89.1027 8.48921 87.784 8.78477C87.2838 8.89845 86.8519 9.14855 86.5108 9.55779C85.9424 10.2626 85.8287 11.0356 86.0788 11.8996C86.3744 12.9682 87.4657 13.673 88.5343 13.5138C89.0345 13.4456 89.4438 13.241 89.8075 12.9C90.3077 12.4225 90.5351 11.8086 90.5351 11.0811Z" fill="#9E9E9E"/>
<path d="M49.4059 15.5601C49.3604 15.5601 49.3377 15.5828 49.3149 15.6055C48.792 16.083 48.1781 16.3786 47.4733 16.4922C46.0637 16.7196 44.7905 16.4013 43.6537 15.5601C43.0853 15.1508 42.6533 14.6279 42.2895 14.014C41.9258 13.4002 41.6984 12.7408 41.5847 12.036C41.4483 11.0811 41.4938 10.1262 41.8121 9.21675C42.2213 8.03449 42.9489 7.07958 44.0175 6.44298C44.6313 6.05647 45.2907 5.82911 46.0182 5.73817C46.6776 5.66996 47.3142 5.66996 47.9508 5.87458C48.4282 6.011 48.8602 6.26109 49.2467 6.57939C49.2922 6.60213 49.3149 6.6476 49.3604 6.67034C49.3831 6.69307 49.4059 6.67034 49.4059 6.6476C49.4059 6.60213 49.4059 6.55666 49.4286 6.51119C49.4741 6.21562 49.7014 6.011 49.997 5.98826C50.1334 5.98826 50.2698 5.98826 50.4062 5.98826C50.9064 5.98826 51.4066 5.98826 51.9068 5.98826C51.975 5.98826 52.0205 5.98826 52.0887 5.98826C52.3843 6.011 52.6116 6.23835 52.6344 6.53392C52.6344 6.60213 52.6344 6.6476 52.6344 6.71581C52.6344 9.67147 52.6344 12.6271 52.6344 15.5601C52.6344 15.6283 52.6344 15.6737 52.6344 15.742C52.6116 16.0375 52.407 16.2649 52.0887 16.2649C51.8841 16.2649 51.7022 16.2649 51.4976 16.2649C51.0429 16.2649 50.5881 16.2649 50.1334 16.2649C50.0652 16.2649 50.0197 16.2649 49.9515 16.2649C49.656 16.2421 49.4513 16.0375 49.4059 15.742C49.4286 15.6737 49.4513 15.6055 49.4059 15.5601ZM47.1323 8.71657C46.9959 8.71657 46.8367 8.7393 46.7003 8.76204C45.9273 8.94392 45.3816 9.37591 45.0633 10.1035C44.8587 10.5354 44.8132 11.0129 44.8814 11.4903C44.9496 11.9905 45.1543 12.4453 45.518 12.809C46.0637 13.3547 46.7003 13.6048 47.4733 13.4911C48.0417 13.4229 48.5192 13.1501 48.8829 12.7181C49.5195 11.9223 49.6105 11.0356 49.2467 10.1262C48.8829 9.21675 47.9735 8.71657 47.1323 8.71657Z" fill="#9E9E9E"/>
<path d="M69.2319 5.66995C69.6866 5.66995 70.2322 5.71543 70.7552 5.8291C71.3236 5.94278 71.8692 6.17014 72.3694 6.44297C72.6195 6.57939 72.8696 6.7158 73.097 6.89769C73.1424 6.92043 73.1879 6.9659 73.2106 7.01137C73.5062 7.30694 73.5289 7.67071 73.2788 7.98901C73.1879 8.10269 73.097 8.19363 73.006 8.30731C72.8241 8.51194 72.6422 8.71656 72.4604 8.92118C72.233 9.19401 71.9374 9.26222 71.5964 9.17128C71.46 9.12581 71.3463 9.08033 71.2326 9.01213C70.8916 8.8075 70.5278 8.62562 70.164 8.46646C69.823 8.33005 69.4592 8.26184 69.0727 8.26184C68.8226 8.26184 68.5725 8.28458 68.3224 8.39826C68.2087 8.44373 68.0951 8.51194 68.0269 8.60288C67.8904 8.76203 67.8677 8.96666 68.0041 9.12581C68.0951 9.23949 68.2315 9.33043 68.3906 9.3759C68.5725 9.44411 68.7544 9.48958 68.959 9.53505C69.5729 9.64873 70.2095 9.76241 70.8234 9.89882C71.4372 10.0352 72.0284 10.2399 72.5513 10.6264C73.006 10.9447 73.3698 11.3539 73.5744 11.8996C73.7563 12.377 73.8018 12.8545 73.7336 13.3547C73.6881 13.7185 73.5744 14.0822 73.4153 14.4233C73.1879 14.8552 72.8923 15.219 72.5286 15.5146C71.892 15.992 71.1871 16.2876 70.4141 16.4468C70.0049 16.5377 69.5729 16.5604 69.1409 16.5604C68.1633 16.5604 67.2084 16.424 66.3217 16.0148C65.9806 15.8556 65.6396 15.6965 65.344 15.4919C65.1167 15.3554 64.912 15.1735 64.7301 14.9689C64.6619 14.9007 64.5937 14.8098 64.5483 14.7188C64.3664 14.4005 64.3891 14.0595 64.6165 13.7867C64.6847 13.6957 64.7756 13.6275 64.8438 13.5593C65.1167 13.3547 65.3895 13.1501 65.6623 12.9454C65.7533 12.8772 65.8669 12.809 65.9806 12.7635C66.1398 12.6953 66.2762 12.6953 66.4353 12.7408C66.64 12.809 66.7991 12.9227 66.9583 13.0591C67.2311 13.2865 67.5267 13.4684 67.845 13.6502C68.3906 13.9458 68.9818 14.014 69.5956 13.9458C69.8685 13.9231 70.0958 13.8321 70.3004 13.6048C70.3914 13.5138 70.4369 13.4001 70.4369 13.2637C70.4369 13.1046 70.3687 12.9682 70.2322 12.8772C70.0958 12.809 69.9594 12.7408 69.823 12.6953C69.5047 12.6044 69.1864 12.5362 68.8681 12.468C68.3679 12.3543 67.845 12.2634 67.3448 12.1497C66.8218 12.036 66.3217 11.8314 65.8897 11.5358C65.0939 10.9901 64.7074 10.2399 64.6619 9.28496C64.6392 8.94392 64.6619 8.62562 64.7529 8.28458C64.8666 7.87533 65.0712 7.48882 65.344 7.17052C65.7305 6.69307 66.2535 6.35203 66.8219 6.10193C67.2766 5.89731 67.7768 5.78363 68.2769 5.71543C68.5498 5.66995 68.8453 5.66995 69.2319 5.66995Z" fill="#9E9E9E"/>
<path d="M100.221 5.66992C100.948 5.64719 101.607 5.76087 102.244 5.98823C102.926 6.21559 103.517 6.6021 104.04 7.07955C104.313 7.32964 104.54 7.57974 104.745 7.8753C104.768 7.92078 104.813 7.96625 104.836 8.01172C105.086 8.39823 104.927 8.762 104.7 8.98936C104.677 9.0121 104.631 9.05757 104.586 9.08031C104.199 9.37587 103.813 9.67144 103.426 9.967C103.04 10.2626 102.767 10.2171 102.449 9.94427C102.38 9.8988 102.335 9.83059 102.29 9.78512C102.085 9.55776 101.858 9.3304 101.607 9.14851C101.266 8.87568 100.857 8.762 100.448 8.73927C99.7431 8.6938 99.1293 8.94389 98.6291 9.44408C98.3335 9.73965 98.1516 10.1034 98.0607 10.5127C97.947 10.9901 97.9697 11.4903 98.1289 11.945C98.4244 12.7863 99.0156 13.3092 99.9023 13.4683C100.266 13.5365 100.63 13.4911 100.994 13.4001C101.335 13.3092 101.607 13.1046 101.858 12.8772C102.017 12.718 102.176 12.5589 102.335 12.3997C102.449 12.2861 102.562 12.1951 102.699 12.1269C102.881 12.036 103.04 12.036 103.222 12.1269C103.29 12.1724 103.381 12.2179 103.449 12.2633C103.836 12.5589 104.222 12.8317 104.609 13.1273C104.722 13.2182 104.813 13.3319 104.904 13.4456C105.041 13.673 105.041 13.923 104.904 14.1504C104.79 14.3323 104.677 14.4914 104.54 14.6506C104.063 15.219 103.472 15.651 102.812 15.992C102.312 16.2421 101.789 16.3785 101.244 16.4695C100.948 16.5149 100.653 16.5149 100.357 16.5377C100.107 16.5604 99.8568 16.5149 99.6067 16.4922C98.9019 16.424 98.2198 16.2194 97.6059 15.8783C96.4237 15.2417 95.5597 14.2868 95.0823 13.0136C94.9004 12.5134 94.8094 12.0132 94.764 11.4903C94.6958 10.6946 94.8094 9.92153 95.0823 9.17125C95.5597 7.92078 96.3782 6.96587 97.5605 6.32926C98.1061 6.0337 98.6973 5.82908 99.3111 5.7154C99.584 5.69266 99.925 5.66992 100.221 5.66992Z" fill="#9E9E9E"/>
<path d="M75.8478 11.1493C75.8478 10.4672 75.8478 9.78514 75.8478 9.10306C75.8478 8.76202 75.8478 8.76202 75.4841 8.76202C75.2794 8.76202 75.0748 8.76202 74.8702 8.76202C74.7792 8.76202 74.6883 8.76203 74.5974 8.73929C74.3245 8.69382 74.1199 8.48919 74.0972 8.19363C74.0972 8.14816 74.0972 8.07995 74.0972 8.03448C74.0972 7.57976 74.0972 7.12504 74.0972 6.67032C74.0972 6.62485 74.0972 6.57938 74.0972 6.53391C74.1199 6.2156 74.3473 5.98825 74.6656 5.96551C74.9157 5.96551 75.1658 5.96551 75.4386 5.96551C75.5295 5.96551 75.6205 5.96551 75.6887 5.96551C75.7796 5.96551 75.8024 5.92004 75.8251 5.8291C75.8251 5.76089 75.8251 5.69268 75.8251 5.62447C75.8251 4.96513 75.8251 4.30579 75.8251 3.64645C75.8251 3.55551 75.8251 3.46456 75.8251 3.39635C75.8706 3.12352 76.0525 2.94164 76.3253 2.87343C76.3935 2.85069 76.4844 2.85069 76.5526 2.85069C77.1665 2.85069 77.7804 2.85069 78.3942 2.85069C78.4852 2.85069 78.5761 2.85069 78.6671 2.87343C78.8944 2.94164 79.0309 3.07805 79.0991 3.32815C79.1218 3.44183 79.1218 3.55551 79.1218 3.66919C79.1218 4.32853 79.1218 4.96513 79.1218 5.62447C79.1218 5.69268 79.1218 5.76089 79.1218 5.8291C79.1218 5.8973 79.1673 5.94278 79.2355 5.94278C79.3037 5.94278 79.3719 5.94278 79.4401 5.94278C80.1676 5.94278 80.8725 5.94278 81.6 5.94278C81.6682 5.94278 81.7364 5.94278 81.8046 5.94278C82.1229 5.96551 82.373 6.2156 82.373 6.53391C82.373 7.05683 82.373 7.57976 82.373 8.07995C82.373 8.39825 82.1684 8.62561 81.8728 8.69382C81.7592 8.71655 81.6227 8.71655 81.5091 8.71655C80.827 8.71655 80.1449 8.71655 79.4628 8.71655C79.3946 8.71655 79.3264 8.71655 79.2582 8.71655C79.1673 8.71655 79.1445 8.76203 79.1218 8.85297C79.1218 8.89844 79.1218 8.96665 79.1218 9.01212C79.1218 10.1489 79.1218 11.263 79.1218 12.3998C79.1218 12.4907 79.1218 12.5817 79.1218 12.6499C79.1673 13.0591 79.4628 13.3547 79.8948 13.3774C80.1904 13.4001 80.4405 13.3092 80.6906 13.1728C80.7588 13.1501 80.8042 13.1046 80.8725 13.0591C80.9634 13.0136 81.0316 12.9682 81.1226 12.9454C81.3726 12.8772 81.6227 12.9454 81.7819 13.1728C81.8501 13.2637 81.9183 13.3774 81.9865 13.4911C82.1457 13.7639 82.3048 14.014 82.4867 14.2868C82.5094 14.3323 82.5549 14.4005 82.5776 14.446C82.7595 14.7643 82.7141 15.0371 82.464 15.3327C82.2821 15.5373 82.0547 15.7192 81.8046 15.8556C81.3044 16.1512 80.7588 16.3103 80.1904 16.4013C79.8266 16.4468 79.4628 16.4695 79.0991 16.4468C78.3715 16.4013 77.6894 16.2194 77.0756 15.7647C76.439 15.31 76.0525 14.6734 75.8933 13.9003C75.8251 13.6048 75.8024 13.3092 75.8024 13.0136C75.8478 12.4225 75.8478 11.7859 75.8478 11.1493Z" fill="#9E9E9E"/>
</svg>
