<svg width="70" height="70" viewBox="0 0 70 70" fill="none" xmlns="http://www.w3.org/2000/svg">
<g clip-path="url(#clip0)">
<path d="M59.0625 13.6719C58.3078 13.6719 57.6953 14.2844 57.6953 15.0391C57.6953 15.7938 58.3078 16.4062 59.0625 16.4062C59.8172 16.4062 60.4297 15.7938 60.4297 15.0391C60.4297 14.2844 59.8172 13.6719 59.0625 13.6719Z" fill="#01E3C2"/>
<path d="M10.9375 13.6719C10.1828 13.6719 9.57031 14.2844 9.57031 15.0391C9.57031 15.7938 10.1828 16.4062 10.9375 16.4062C11.6922 16.4062 12.3047 15.7938 12.3047 15.0391C12.3047 14.2844 11.6922 13.6719 10.9375 13.6719Z" fill="#01E3C2"/>
<path d="M68.6328 30.0781H66.9977C66.4866 26.1401 65.2518 22.3873 63.3139 18.9075C62.9466 18.248 62.1141 18.0108 61.4543 18.3781C60.7946 18.7455 60.5575 19.5781 60.9249 20.2378C62.635 23.3089 63.7476 26.6127 64.2406 30.0781H63.1641C62.409 30.0781 61.7969 30.6902 61.7969 31.4453V36.9141C61.7969 37.6692 62.409 38.2813 63.1641 38.2813H68.6328C69.3879 38.2813 70 37.6692 70 36.9141V31.4453C70 30.6902 69.3879 30.0781 68.6328 30.0781ZM67.2656 35.5469H64.5313V32.8125H65.7724C65.7728 32.8125 65.7734 32.8125 65.7738 32.8125C65.7743 32.8125 65.7747 32.8125 65.7753 32.8125H67.2656V35.5469Z" fill="#01E3C2"/>
<path d="M50.0365 40.0068C50.0356 39.9856 50.0351 39.9644 50.0333 39.9432C50.0309 39.9142 50.0269 39.8856 50.0227 39.8572C50.0201 39.8397 50.018 39.8222 50.0146 39.8047C50.0083 39.7712 50.0001 39.7384 49.9915 39.7057C49.9882 39.6933 49.9856 39.6808 49.9819 39.6685C49.9697 39.6277 49.9555 39.5876 49.9397 39.5484C49.9379 39.5441 49.9367 39.5396 49.9349 39.5354C49.916 39.4897 49.8948 39.4453 49.8713 39.4023L36.1997 14.3834C35.96 13.9448 35.5 13.6719 35 13.6719C34.5 13.6719 34.04 13.9448 33.8003 14.3835L20.1287 39.4025C20.1052 39.4454 20.084 39.4898 20.0651 39.5355C20.0633 39.5397 20.0621 39.5441 20.0603 39.5485C20.0445 39.5877 20.0303 39.6278 20.0181 39.6687C20.0144 39.681 20.0118 39.6934 20.0085 39.7059C19.9998 39.7385 19.9917 39.7712 19.9854 39.8048C19.9821 39.8222 19.9801 39.8397 19.9773 39.8573C19.9731 39.8858 19.9691 39.9144 19.9667 39.9433C19.9649 39.9645 19.9642 39.9857 19.9635 40.0069C19.9629 40.0241 19.9609 40.0411 19.9609 40.0586C19.9609 40.0676 19.9622 40.0762 19.9623 40.0853C19.9627 40.1067 19.9641 40.128 19.9656 40.1495C19.9674 40.1767 19.9696 40.2038 19.973 40.2306C19.9754 40.2495 19.9784 40.2682 19.9816 40.2871C19.9865 40.3166 19.9924 40.3458 19.9992 40.3747C20.003 40.391 20.0073 40.4072 20.0118 40.4234C20.0204 40.4545 20.0303 40.4852 20.0409 40.5154C20.0439 40.524 20.0458 40.5327 20.0491 40.5413L24.9797 53.6074C24.5842 53.8035 24.2184 54.0639 23.8969 54.3852C23.122 55.1601 22.6953 56.19 22.6953 57.2852C22.6953 59.0674 23.8384 60.5872 25.4297 61.1516V68.6328C25.4297 69.3879 26.0418 70 26.7969 70H43.2031C43.9582 70 44.5703 69.3879 44.5703 68.6328V61.1539C45.1403 60.9528 45.663 60.6253 46.1032 60.1851C46.878 59.4102 47.3047 58.3803 47.3047 57.2852C47.3047 55.6756 46.3724 54.2804 45.0197 53.6092L49.951 40.5413C49.9543 40.5327 49.9562 40.524 49.9592 40.5154C49.9699 40.4852 49.9797 40.4545 49.9883 40.4234C49.9929 40.4072 49.997 40.391 50.0009 40.3747C50.0078 40.3458 50.0135 40.3166 50.0186 40.2871C50.0217 40.2682 50.0248 40.2495 50.0272 40.2306C50.0306 40.2038 50.0328 40.1767 50.0346 40.1495C50.0359 40.128 50.0374 40.1067 50.0378 40.0853C50.038 40.0764 50.0392 40.0676 50.0392 40.0586C50.0391 40.0411 50.0371 40.0241 50.0365 40.0068ZM35 38.6914C35.7539 38.6914 36.3672 39.3047 36.3672 40.0586C36.3672 40.8125 35.7539 41.4258 35 41.4258C34.2461 41.4258 33.6328 40.8125 33.6328 40.0586C33.6328 39.3047 34.2461 38.6914 35 38.6914ZM41.8359 67.2656H28.1641V61.3867H41.8359V67.2656ZM44.1696 58.2515C43.9112 58.51 43.5679 58.6523 43.2031 58.6523H26.7969C26.043 58.6523 25.4297 58.039 25.4297 57.2852C25.4297 56.9204 25.572 56.5771 25.8304 56.3188C26.0889 56.0603 26.4321 55.918 26.7969 55.918H43.194C43.197 55.918 43.2 55.9184 43.203 55.9184C43.2045 55.9184 43.2061 55.9182 43.2076 55.9182C43.9595 55.9207 44.5704 56.5328 44.5704 57.2852C44.5703 57.6499 44.428 57.9932 44.1696 58.2515ZM42.2577 53.1836H27.7423L23.3054 41.4258H26.7969C27.552 41.4258 28.1641 40.8137 28.1641 40.0586C28.1641 39.3035 27.552 38.6914 26.7969 38.6914H23.6332L33.6328 20.3921V36.1922C32.0415 36.7566 30.8984 38.2762 30.8984 40.0586C30.8984 42.3202 32.7384 44.1602 35 44.1602C37.2616 44.1602 39.1016 42.3202 39.1016 40.0586C39.1016 38.2763 37.9585 36.7566 36.3672 36.1922V20.3921L46.3668 38.6914H43.2031C42.448 38.6914 41.8359 39.3035 41.8359 40.0586C41.8359 40.8137 42.448 41.4258 43.2031 41.4258H46.6946L42.2577 53.1836Z" fill="#01E3C2"/>
<path d="M8.54561 18.3781C7.8858 18.0106 7.05318 18.2477 6.68596 18.9075C4.74824 22.3873 3.51326 26.1401 3.00234 30.0781H1.36719C0.61209 30.0781 0 30.6902 0 31.4453V36.9141C0 37.6692 0.61209 38.2812 1.36719 38.2812H6.83594C7.59103 38.2812 8.20312 37.6692 8.20312 36.9141V31.4453C8.20312 30.6902 7.59103 30.0781 6.83594 30.0781H5.75928C6.25242 26.6127 7.3649 23.3089 9.07498 20.2378C9.44234 19.5781 9.20541 18.7455 8.54561 18.3781ZM5.46875 35.5469H2.73438V32.8125H4.22475C4.22529 32.8125 4.2257 32.8125 4.22625 32.8125C4.22666 32.8125 4.22721 32.8125 4.22762 32.8125H5.46875V35.5469Z" fill="#01E3C2"/>
<path d="M65.8984 0C64.1162 0 62.5964 1.14311 62.032 2.73438H39.1016V1.36719C39.1016 0.61209 38.4895 0 37.7344 0H32.2656C31.5105 0 30.8984 0.61209 30.8984 1.36719V2.73438H7.96797C7.40359 1.14311 5.88383 0 4.10156 0C1.83996 0 0 1.83996 0 4.10156C0 6.36316 1.83996 8.20312 4.10156 8.20312C5.88383 8.20312 7.40359 7.06002 7.96797 5.46875H21.7129C18.7968 6.68896 16.1226 8.27299 13.9214 10.1287C13.344 10.6154 13.2706 11.4779 13.7573 12.0552C14.0278 12.3761 14.4143 12.5412 14.8032 12.5412C15.1144 12.5412 15.4272 12.4357 15.6837 12.2194C19.6064 8.91242 25.2045 6.55061 30.8984 5.75846V6.83594C30.8984 7.59103 31.5105 8.20312 32.2656 8.20312H37.7344C38.4895 8.20312 39.1016 7.59103 39.1016 6.83594V5.75846C44.7955 6.55061 50.3936 8.91242 54.3163 12.2192C54.5728 12.4355 54.8856 12.5412 55.1968 12.5411C55.5859 12.5411 55.9724 12.3759 56.2427 12.055C56.7295 11.478 56.656 10.6154 56.0786 10.1287C53.8774 8.27299 51.2032 6.68896 48.2871 5.46875H62.032C62.5964 7.06002 64.116 8.20312 65.8984 8.20312C68.16 8.20312 70 6.36316 70 4.10156C70 1.83996 68.16 0 65.8984 0ZM4.10156 5.46875C3.3477 5.46875 2.73438 4.85543 2.73438 4.10156C2.73438 3.3477 3.3477 2.73438 4.10156 2.73438C4.85543 2.73438 5.46875 3.3477 5.46875 4.10156C5.46875 4.85543 4.85543 5.46875 4.10156 5.46875ZM36.3672 4.10156V4.22461V5.46875H33.6328V4.22461V4.10156V2.73438H36.3672V4.10156ZM65.8984 5.46875C65.1446 5.46875 64.5312 4.85543 64.5312 4.10156C64.5312 3.3477 65.1446 2.73438 65.8984 2.73438C66.6523 2.73438 67.2656 3.3477 67.2656 4.10156C67.2656 4.85543 66.6523 5.46875 65.8984 5.46875Z" fill="#01E3C2"/>
</g>
<defs>
<clipPath id="clip0">
<rect width="70" height="70" fill="white"/>
</clipPath>
</defs>
</svg>
