<svg width="70" height="37" viewBox="0 0 70 37" fill="none" xmlns="http://www.w3.org/2000/svg">
<path d="M34.1607 0.00437079C41.6608 0.00437079 49.1433 -0.0131121 56.6434 0.0218532C58.6714 0.0218532 60.6819 0.179197 62.6399 0.773607C66.8707 2.03236 69.3533 5.09182 69.598 9.47996C69.9826 16.0884 69.668 22.7143 69.7554 29.3402C69.7554 30.0395 69.3708 30.0745 68.8463 30.0745C63.2343 30.0745 57.6049 30.0745 51.993 30.0745C49.8426 30.0745 47.6923 30.1095 45.5419 30.057C43.3216 30.0046 41.1887 29.585 39.3006 28.3088C37.4125 27.0325 36.2761 25.2843 35.8915 23.064C35.6118 21.3856 35.6642 19.7073 36.1188 18.0639C36.8181 15.5464 38.4964 13.938 40.8915 13.0464C42.9195 12.2947 45.0524 11.9625 47.2203 11.9275C51.3986 11.8751 55.5595 11.91 59.7378 11.8926C60.6819 11.8926 60.7693 11.7877 60.6294 10.8611C60.5595 10.3366 60.5071 9.81213 60.3147 9.30513C59.8952 8.09883 59.1259 7.27715 57.8672 6.89253C56.3986 6.45546 54.9126 6.3156 53.3916 6.3156C43.2867 6.3156 33.1642 6.3156 23.0592 6.3156C19.825 6.3156 16.5907 6.3156 13.3564 6.3156C12.5347 6.3156 11.748 6.40302 10.9613 6.61281C9.77244 6.94498 9.1081 7.66177 9.05565 8.64079C8.98572 10.0919 9.49272 10.9135 10.734 11.403C11.5032 11.7003 12.3074 11.7877 13.1116 11.7877C16.2235 11.7877 19.3354 11.7527 22.4299 11.8052C24.4579 11.8401 26.4684 12.1024 28.3215 13.0115C30.9789 14.2877 32.2551 16.473 32.4125 19.3751C32.5348 21.6304 32.2726 23.8157 31.1537 25.8087C29.7726 28.2563 27.6397 29.62 24.86 29.9696C23.846 30.1095 22.8145 30.0745 21.8005 30.0745C15.0697 30.0745 8.33887 30.0745 1.62554 30.0745C0.611542 30.0745 0.594059 30.057 0.594059 29.0255C0.594059 27.592 0.594059 26.1759 0.594059 24.7423C0.594059 23.9556 0.681472 23.8857 1.48567 23.8857C7.35984 23.8857 13.234 23.9031 19.1082 23.9031C19.9998 23.9031 20.8914 23.8157 21.7655 23.5535C23.6537 23.0115 24.4579 21.0709 23.4439 19.4101C22.9543 18.5884 22.0627 18.3087 21.1886 18.0989C20.5942 17.959 19.9648 17.9416 19.3529 17.9416C15.9088 17.9416 12.4473 17.9416 9.00321 17.9416C7.37732 17.9416 5.7864 17.6793 4.26541 17.0325C2.08008 16.0884 0.786369 14.4275 0.296855 12.1373C-0.175176 9.88206 -0.122728 7.64428 0.733921 5.47644C1.64302 3.18621 3.40876 1.80508 5.66402 0.965916C7.56963 0.249128 9.56265 0.0743012 11.5732 0.0568186C19.1257 -0.013112 26.6432 0.00437079 34.1607 0.00437079ZM54.4056 24.008C56.2588 24.008 58.1119 24.008 59.9651 24.0255C60.4721 24.0255 60.6819 23.8507 60.6819 23.3262C60.6644 21.7353 60.6469 20.1269 60.6819 18.536C60.6994 17.9416 60.4721 17.7667 59.8952 17.7667C56.486 17.7842 53.0769 17.7667 49.6853 17.7842C48.7762 17.7842 47.8671 17.8891 46.9755 18.1339C45.944 18.3961 45.2447 19.2003 45.1049 20.2493C44.8601 22.2248 45.5419 23.2563 47.465 23.7808C48.0419 23.9381 48.6363 24.0255 49.2308 24.0255C50.9615 24.008 52.6748 24.008 54.4056 24.008Z" fill="#9E9E9E"/>
<path d="M57.4647 34.7249C57.4647 35.1445 57.4647 35.5641 57.4647 35.9836C57.4647 36.3333 57.3073 36.5431 56.9227 36.5431C56.5381 36.5256 56.4157 36.3333 56.4157 35.9662C56.4332 35.2494 56.4332 34.5151 56.3982 33.7983C56.3982 33.4836 56.2933 33.1165 56.7304 33.0116C57.115 32.9067 57.4822 32.9417 57.7444 33.3263C58.0766 33.8158 58.4087 34.3053 58.8808 34.7773C58.8808 34.3752 58.8808 33.9557 58.8808 33.5536C58.8808 33.2039 59.0032 32.9766 59.4053 32.9766C59.8074 32.9766 59.9122 33.2214 59.9122 33.571C59.9122 34.3403 59.9122 35.1095 59.9122 35.8613C59.9122 36.141 59.9123 36.4557 59.5451 36.5081C59.178 36.5606 58.8283 36.5781 58.601 36.1934C58.3038 35.6864 57.9717 35.1969 57.657 34.6899C57.5696 34.7074 57.5171 34.7249 57.4647 34.7249Z" fill="#9E9E9E"/>
<path d="M11.5729 36.5431C11.3456 36.5431 11.1008 36.5606 10.8736 36.5431C9.94698 36.4731 9.37005 35.9312 9.30012 35.092C9.2127 33.9207 9.59732 33.3088 10.5938 33.064C11.2057 32.9242 11.8176 32.9766 12.4295 32.9766C12.6917 32.9766 12.8841 33.099 12.8841 33.3962C12.8841 33.7109 12.6743 33.7808 12.412 33.7808C12.0274 33.7808 11.6428 33.7633 11.2582 33.7808C10.926 33.7983 10.5938 33.9032 10.5064 34.2528C10.4015 34.6549 10.3316 35.1095 10.6463 35.4591C10.9085 35.7389 11.2757 35.634 11.6253 35.6515C11.7477 35.6515 11.8176 35.5815 11.8351 35.4591C11.8351 35.3368 11.8001 35.2319 11.6778 35.1969C11.5379 35.1619 11.3806 35.1445 11.2407 35.127C11.0309 35.092 10.8736 35.0046 10.8736 34.7773C10.8736 34.55 11.0134 34.4102 11.2232 34.3927C11.6603 34.3752 12.1148 34.3752 12.5519 34.4102C12.7442 34.4277 12.8666 34.5675 12.8841 34.7424C12.9015 35.2319 12.9015 35.7214 12.8841 36.2109C12.8666 36.4731 12.6393 36.5431 12.412 36.5431C12.1323 36.5431 11.8526 36.5431 11.5729 36.5431Z" fill="#9E9E9E"/>
<path d="M15.9614 34.6025C15.9614 35.0046 15.9614 35.4067 15.9614 35.8088C15.9614 36.1585 15.9614 36.5256 15.4719 36.5256C14.9824 36.5431 14.9474 36.1934 14.9474 35.8263C14.9474 35.127 14.9474 34.4277 14.9474 33.7284C14.9474 33.4312 14.9299 33.0815 15.2971 32.9941C15.6817 32.9067 16.0488 32.9242 16.311 33.3088C16.6432 33.7808 16.8355 34.3752 17.3425 34.7599C17.4649 34.3752 17.3775 34.0431 17.3775 33.7109C17.3775 33.3438 17.395 32.9941 17.867 32.9766C18.3565 32.9417 18.3915 33.3088 18.3915 33.6759C18.3915 34.3927 18.3915 35.127 18.3915 35.8438C18.3915 36.106 18.4439 36.4382 18.0593 36.5081C17.7446 36.578 17.4124 36.578 17.2027 36.2634C16.818 35.7039 16.4509 35.1445 16.0838 34.5675C16.0488 34.585 15.9964 34.6025 15.9614 34.6025Z" fill="#9E9E9E"/>
<path d="M1.95803 36.5431C1.81817 36.5431 1.53845 36.5431 1.25872 36.5431C0.961518 36.5431 0.751726 36.4207 0.769209 36.0885C0.786691 35.7389 1.01397 35.6864 1.31117 35.7039C1.71327 35.7389 2.11537 35.7389 2.51747 35.7389C2.76223 35.7214 3.18181 35.8088 3.16433 35.4242C3.16433 35.1095 2.77971 35.1619 2.53495 35.1445C2.23775 35.127 1.94055 35.1619 1.64334 35.127C1.0839 35.0745 0.664313 34.8298 0.611865 34.2004C0.559417 33.5885 0.856622 33.2214 1.486 33.064C2.20278 32.8892 2.91957 32.9766 3.65384 32.9766C3.8986 32.9766 4.12587 33.0465 4.12587 33.3787C4.10839 33.6584 3.95105 33.8158 3.68881 33.8333C3.21678 33.8507 2.74475 33.8333 2.2902 33.8682C2.06292 33.8857 1.74824 33.8507 1.76572 34.1654C1.7832 34.4626 2.09789 34.4452 2.32516 34.4102C2.76223 34.3577 3.18181 34.3927 3.6014 34.4801C4.09091 34.585 4.33567 34.8997 4.33567 35.3892C4.33567 35.8787 4.16084 36.2633 3.63636 36.4207C3.11188 36.5606 2.60489 36.5606 1.95803 36.5431Z" fill="#9E9E9E"/>
<path d="M68.8111 36.5431C67.4125 36.5256 66.7306 35.9137 66.7831 34.6899C66.818 33.7458 67.2901 33.1689 68.2167 33.0291C68.6537 32.9591 69.1083 32.9941 69.5453 32.9941C69.8076 32.9941 69.9824 33.1514 69.9824 33.4312C69.9824 33.7458 69.7726 33.7983 69.5104 33.7983C69.1083 33.7808 68.7062 33.7284 68.3216 33.8857C68.1817 33.9382 68.0244 34.0256 68.0768 34.2004C68.1118 34.3577 68.2691 34.3577 68.3915 34.3577C68.7586 34.3577 69.1083 34.3577 69.4754 34.3752C69.7202 34.3752 69.9649 34.4277 69.9824 34.7424C69.9999 35.092 69.7202 35.1445 69.4579 35.1445C69.0908 35.1619 68.7411 35.1445 68.374 35.1619C68.2516 35.1619 68.0943 35.1794 68.0593 35.3368C68.0069 35.5116 68.1467 35.599 68.3041 35.6689C68.6537 35.8088 69.0209 35.7738 69.3705 35.7913C69.6328 35.8088 69.9824 35.7389 69.9999 36.1585C69.9999 36.5955 69.6502 36.578 69.353 36.578C69.1607 36.5431 68.9859 36.5431 68.8111 36.5431Z" fill="#9E9E9E"/>
<path d="M36.6262 36.5431C36.364 36.5431 36.1892 36.4557 36.0493 36.2284C35.6297 35.5815 34.6857 35.5641 34.2311 36.176C34.1087 36.3333 34.0038 36.4906 33.7941 36.5256C33.6017 36.5606 33.392 36.5955 33.2521 36.4382C33.1122 36.2808 33.2346 36.1235 33.3045 35.9662C33.6892 35.1095 34.0738 34.2529 34.4934 33.4312C34.7906 32.8543 35.4374 32.8018 35.7521 33.3612C36.2416 34.2354 36.6612 35.1445 37.0808 36.0536C37.2731 36.4557 36.9759 36.5431 36.6262 36.5431Z" fill="#9E9E9E"/>
<path d="M54.0909 36.5431C53.8986 36.5431 53.7413 36.4207 53.584 36.1934C53.1294 35.5291 52.1679 35.5291 51.7308 36.2109C51.521 36.5431 51.2238 36.613 50.9091 36.4906C50.507 36.3158 50.7692 36.0186 50.8741 35.7913C51.2238 35.0221 51.5909 34.2529 51.9406 33.4836C52.0804 33.1864 52.2553 32.9941 52.6049 32.9766C52.9721 32.9766 53.1819 33.1514 53.3392 33.4836C53.7238 34.3053 54.1434 35.127 54.5455 35.9487C54.7378 36.3333 54.6154 36.5431 54.0909 36.5431Z" fill="#9E9E9E"/>
<path d="M23.6539 36.5431C23.3742 36.5431 23.1994 36.4207 23.042 36.1759C22.6225 35.5116 21.591 35.5291 21.2064 36.1934C21.049 36.4557 20.8567 36.5431 20.577 36.5256C20.2448 36.5081 20.105 36.3333 20.2448 36.0186C20.6644 35.092 21.084 34.1654 21.556 33.2738C21.8008 32.8193 22.4476 32.8193 22.6924 33.2913C23.1819 34.1829 23.6015 35.1095 24.0386 36.0186C24.2309 36.4032 24.0036 36.5256 23.6539 36.5431Z" fill="#9E9E9E"/>
<path d="M63.8636 36.5431C62.3601 36.5431 61.6608 35.8263 61.8181 34.4627C61.9055 33.7808 62.2377 33.3263 62.902 33.1165C63.4615 32.9417 64.0384 32.9592 64.5978 32.9941C64.8251 33.0116 65.0174 33.134 64.9999 33.3962C64.9825 33.6585 64.8076 33.7634 64.5629 33.7634C64.3356 33.7634 64.0908 33.7634 63.8636 33.7634C63.1118 33.7808 62.8321 34.0606 62.8321 34.8298C62.8321 35.4767 63.1118 35.7389 63.8461 35.7564C64.0384 35.7564 64.2307 35.7564 64.423 35.7564C64.6853 35.7564 64.965 35.7913 64.9475 36.141C64.93 36.4906 64.6678 36.5256 64.4055 36.5256C64.2482 36.5431 64.0559 36.5431 63.8636 36.5431Z" fill="#9E9E9E"/>
<path d="M43.3046 34.3228C43.3046 34.0256 43.2871 33.7284 43.3046 33.4312C43.3221 33.1165 43.4969 32.9766 43.8116 32.9766C44.1263 32.9766 44.3011 33.134 44.3011 33.4312C44.3186 33.9207 44.3361 34.4102 44.3186 34.8997C44.3011 35.5116 44.5808 35.7564 45.1578 35.7564C45.2802 35.7564 45.42 35.7564 45.5424 35.7564C45.8221 35.7738 46.0844 35.8263 46.0669 36.1759C46.0494 36.4731 45.8046 36.5256 45.5599 36.5256C45.3851 36.5256 45.2277 36.5256 45.0529 36.5256C43.7067 36.5081 43.3221 36.106 43.3046 34.7599C43.2871 34.62 43.2871 34.4801 43.3046 34.3228C43.2871 34.3228 43.3046 34.3228 43.3046 34.3228Z" fill="#9E9E9E"/>
<path d="M27.6393 36.5431C26.2232 36.5256 25.8036 36.0885 25.7861 34.7773C25.7861 34.3577 25.7861 33.9207 25.7861 33.5011C25.7861 33.1689 25.9435 32.9766 26.2931 32.9766C26.6428 32.9766 26.8001 33.1689 26.8001 33.4836C26.8001 33.9557 26.8176 34.4277 26.8001 34.8822C26.7826 35.4592 27.0099 35.7389 27.6218 35.7564C27.954 35.7564 28.5309 35.5641 28.4959 36.1759C28.461 36.7704 27.884 36.4382 27.6393 36.5431Z" fill="#9E9E9E"/>
<path d="M39.842 34.3403C39.842 34.4627 39.842 34.6025 39.842 34.7249C39.842 35.6864 39.8945 35.7214 40.8385 35.7739C41.1183 35.7913 41.5204 35.6864 41.5204 36.141C41.5379 36.6305 41.1183 36.5431 40.8211 36.5606C40.4539 36.5781 40.1043 36.5431 39.7371 36.4557C39.2826 36.3333 38.9679 36.0536 38.8805 35.599C38.7231 34.8648 38.8106 34.113 38.828 33.3787C38.8455 33.099 39.0553 32.9941 39.335 32.9941C39.6148 32.9941 39.7896 33.1165 39.8071 33.3962C39.842 33.7109 39.8246 34.0256 39.842 34.3403C39.8246 34.3403 39.842 34.3403 39.842 34.3403Z" fill="#9E9E9E"/>
<path d="M7.37729 34.8298C7.37729 35.2319 7.37729 35.634 7.37729 36.0361C7.37729 36.4032 7.15001 36.5606 6.80036 36.5431C6.46819 36.5431 6.31084 36.4032 6.31084 36.0536C6.31084 35.2319 6.27588 34.4102 6.27588 33.5885C6.27588 33.2564 6.38077 32.9941 6.78288 32.9941C7.16749 32.9941 7.37729 33.1864 7.39477 33.571C7.39477 33.9731 7.37729 34.4102 7.37729 34.8298Z" fill="#9E9E9E"/>
<path d="M47.8848 34.7424C47.8848 34.3228 47.8848 33.8857 47.8848 33.4661C47.8848 33.1689 48.0421 32.9941 48.3568 32.9766C48.689 32.9591 48.8988 33.1165 48.8988 33.4661C48.8988 34.3403 48.8988 35.2144 48.8988 36.0885C48.8988 36.4032 48.7064 36.5431 48.3918 36.5431C48.0946 36.5431 47.9022 36.4032 47.8848 36.0885C47.8848 35.634 47.9022 35.1969 47.8848 34.7424Z" fill="#9E9E9E"/>
</svg>
