<svg width="31" height="26" viewBox="0 0 31 26" fill="none" xmlns="http://www.w3.org/2000/svg">
<path d="M30.5227 3.25611C29.8558 3.54891 29.1636 3.77991 28.4532 3.94714C29.2359 3.21068 29.8244 2.28954 30.1564 1.26138C30.2512 0.967852 29.9292 0.714035 29.6615 0.871194C28.6733 1.45157 27.6089 1.88697 26.4977 2.16542C26.4332 2.18158 26.3667 2.18977 26.3 2.18977C26.0976 2.18977 25.9008 2.11535 25.746 1.98029C24.5638 0.948578 23.0432 0.380371 21.4646 0.380371C20.7815 0.380371 20.0918 0.485796 19.4146 0.693747C17.3165 1.33811 15.6976 3.05179 15.1897 5.16608C14.9991 5.95912 14.9475 6.75289 15.0362 7.52528C15.0464 7.61404 15.004 7.67599 14.9779 7.70504C14.932 7.75598 14.8669 7.78518 14.7994 7.78518C14.7919 7.78518 14.7841 7.78482 14.7764 7.78409C10.1837 7.3616 6.04216 5.17072 3.11471 1.61511C2.96543 1.43375 2.67916 1.45599 2.56017 1.65808C1.9869 2.6319 1.68395 3.74571 1.68395 4.87908C1.68395 6.61602 2.38872 8.25289 3.6129 9.44618C3.0981 9.32533 2.59983 9.13498 2.13699 8.88044C1.91307 8.75726 1.63755 8.91558 1.63441 9.16918C1.60236 11.7495 3.1281 14.0455 5.41371 15.0794C5.36768 15.0805 5.32165 15.081 5.27555 15.081C4.91325 15.081 4.54642 15.0464 4.18536 14.9781C3.93319 14.9304 3.72134 15.1672 3.79964 15.4093C4.54151 17.7027 6.53574 19.3931 8.92219 19.7769C6.94158 21.0933 4.63511 21.7878 2.23453 21.7878L1.48615 21.7873C1.25557 21.7873 1.06055 21.9362 1.00179 22.1573C0.943908 22.3751 1.05053 22.6049 1.24715 22.7181C3.95222 24.2769 7.03773 25.1007 10.1715 25.1007C12.9145 25.1007 15.4804 24.5617 17.7979 23.4988C19.9225 22.5243 21.7999 21.1313 23.378 19.3585C24.8482 17.7071 25.9978 15.8007 26.7948 13.6923C27.5546 11.6826 27.9562 9.53813 27.9562 7.49079V7.39326C27.9561 7.06452 28.1063 6.75521 28.3683 6.54465C29.3624 5.74545 30.2281 4.80466 30.9412 3.74846C31.1295 3.46957 30.8325 3.12004 30.5227 3.25611Z" fill="#76A9EA"/>
</svg>
